<svg width="43" height="44" viewBox="0 0 43 44" fill="none" xmlns="http://www.w3.org/2000/svg">
<path fill-rule="evenodd" clip-rule="evenodd" d="M17.2 5H25.8C33.9077 5 37.9625 5 40.4802 7.4905C42.2948 9.28187 42.8022 11.8616 42.9441 16.1562H0.0559001C0.1978 11.8616 0.7052 9.28187 2.5198 7.4905C5.03745 5 9.09235 5 17.2 5ZM25.8 39H17.2C9.09235 39 5.03745 39 2.5198 36.5095C-2.563e-07 34.0211 0 30.0134 0 22C0 21.0607 2.00735e-07 20.1767 0.0043002 19.3438H42.9957C43 20.1767 43 21.0607 43 22C43 30.0134 43 34.0211 40.4802 36.5095C37.9625 39 33.9077 39 25.8 39ZM8.6 28.9062C8.17234 28.9062 7.76219 29.0742 7.45979 29.373C7.15739 29.6719 6.9875 30.0773 6.9875 30.5C6.9875 30.9227 7.15739 31.3281 7.45979 31.627C7.76219 31.9258 8.17234 32.0938 8.6 32.0938H17.2C17.6277 32.0938 18.0378 31.9258 18.3402 31.627C18.6426 31.3281 18.8125 30.9227 18.8125 30.5C18.8125 30.0773 18.6426 29.6719 18.3402 29.373C18.0378 29.0742 17.6277 28.9062 17.2 28.9062H8.6ZM22.575 28.9062C22.1473 28.9062 21.7372 29.0742 21.4348 29.373C21.1324 29.6719 20.9625 30.0773 20.9625 30.5C20.9625 30.9227 21.1324 31.3281 21.4348 31.627C21.7372 31.9258 22.1473 32.0938 22.575 32.0938H25.8C26.2277 32.0938 26.6378 31.9258 26.9402 31.627C27.2426 31.3281 27.4125 30.9227 27.4125 30.5C27.4125 30.0773 27.2426 29.6719 26.9402 29.373C26.6378 29.0742 26.2277 28.9062 25.8 28.9062H22.575Z" fill="#B0B0B0"/>
</svg>
