<svg width="59" height="44" viewBox="0 0 59 44" fill="none" xmlns="http://www.w3.org/2000/svg">
<path d="M5.36364 0C3.94111 0 2.57685 0.579462 1.57097 1.61091C0.565096 2.64236 0 4.04131 0 5.5V35.75H5.36364C5.36364 37.938 6.21128 40.0365 7.7201 41.5836C9.22891 43.1308 11.2753 44 13.4091 44C15.5429 44 17.5893 43.1308 19.0981 41.5836C20.6069 40.0365 21.4545 37.938 21.4545 35.75H37.5455C37.5455 37.938 38.3931 40.0365 39.9019 41.5836C41.4107 43.1308 43.4571 44 45.5909 44C47.7247 44 49.7711 43.1308 51.2799 41.5836C52.7887 40.0365 53.6364 37.938 53.6364 35.75H59V22L50.9545 11H42.9091V0M24.1364 5.5L34.8636 16.5L24.1364 27.5V19.25H8.04545V13.75H24.1364M42.9091 15.125H49.6136L54.8968 22H42.9091M13.4091 31.625C14.476 31.625 15.4992 32.0596 16.2536 32.8332C17.008 33.6068 17.4318 34.656 17.4318 35.75C17.4318 36.844 17.008 37.8932 16.2536 38.6668C15.4992 39.4404 14.476 39.875 13.4091 39.875C12.3422 39.875 11.319 39.4404 10.5646 38.6668C9.81019 37.8932 9.38636 36.844 9.38636 35.75C9.38636 34.656 9.81019 33.6068 10.5646 32.8332C11.319 32.0596 12.3422 31.625 13.4091 31.625ZM45.5909 31.625C46.6578 31.625 47.681 32.0596 48.4354 32.8332C49.1898 33.6068 49.6136 34.656 49.6136 35.75C49.6136 36.844 49.1898 37.8932 48.4354 38.6668C47.681 39.4404 46.6578 39.875 45.5909 39.875C44.524 39.875 43.5008 39.4404 42.7464 38.6668C41.992 37.8932 41.5682 36.844 41.5682 35.75C41.5682 34.656 41.992 33.6068 42.7464 32.8332C43.5008 32.0596 44.524 31.625 45.5909 31.625Z" fill="#B0B0B0"/>
</svg>
