<svg width="44" height="44" viewBox="0 0 44 44" fill="none" xmlns="http://www.w3.org/2000/svg">
<path fill-rule="evenodd" clip-rule="evenodd" d="M22 44C34.1503 44 44 34.1503 44 22C44 9.84974 34.1503 0 22 0C9.84974 0 0 9.84974 0 22C0 34.1503 9.84974 44 22 44ZM36.3223 16.2789C37.0754 15.5768 37.1168 14.397 36.4146 13.6439C35.7124 12.8907 34.5327 12.8494 33.7795 13.5516L19.0531 27.2815L10.2206 19.0467C9.46749 18.3445 8.28773 18.3858 7.58556 19.139C6.8834 19.8921 6.92471 21.0718 7.67784 21.774L19.0531 32.3795L36.3223 16.2789Z" fill="#B0B0B0"/>
</svg>
