<svg width="44" height="44" viewBox="0 0 44 44" fill="none" xmlns="http://www.w3.org/2000/svg">
<path d="M0 17.6V26.4C0 32.6238 -1.3113e-07 35.7346 1.9338 37.6684C2.4112 38.1458 2.9612 38.5044 3.6124 38.7772C3.59768 38.679 3.58375 38.5808 3.5706 38.4824C3.3 36.4628 3.3 33.9438 3.3 31.0178V12.9844C3.3 10.0584 3.3 7.5372 3.5706 5.5198L3.6146 5.225C2.98596 5.47874 2.41447 5.85575 1.9338 6.3338C-1.3113e-07 8.2676 0 11.3784 0 17.6ZM44 17.6V26.4C44 32.6238 44 35.7346 42.0662 37.6684C41.5888 38.1458 41.0388 38.5044 40.3876 38.7772L40.4294 38.4824C40.7 36.4628 40.7 33.9438 40.7 31.0178V12.9844C40.7 10.0584 40.7 7.5372 40.4294 5.5198C40.4155 5.42142 40.4009 5.32315 40.3854 5.225C41.0388 5.4956 41.5888 5.8564 42.0662 6.3338C44 8.2676 44 11.3784 44 17.6Z" fill="#B0B0B0"/>
<path fill-rule="evenodd" clip-rule="evenodd" d="M8.5338 1.9338C6.6 3.8654 6.6 6.9784 6.6 13.2V30.8C6.6 37.0216 6.6 40.1346 8.5338 42.0662C10.4654 44 13.5784 44 19.8 44H24.2C30.4216 44 33.5346 44 35.4662 42.0662C37.4 40.1346 37.4 37.0216 37.4 30.8V13.2C37.4 6.9784 37.4 3.8654 35.4662 1.9338C33.5346 -1.3113e-07 30.4216 0 24.2 0H19.8C13.5784 0 10.4654 -1.3113e-07 8.5338 1.9338ZM13.75 33C13.75 32.5624 13.9238 32.1427 14.2333 31.8333C14.5427 31.5238 14.9624 31.35 15.4 31.35H22C22.4376 31.35 22.8573 31.5238 23.1667 31.8333C23.4762 32.1427 23.65 32.5624 23.65 33C23.65 33.4376 23.4762 33.8573 23.1667 34.1667C22.8573 34.4762 22.4376 34.65 22 34.65H15.4C14.9624 34.65 14.5427 34.4762 14.2333 34.1667C13.9238 33.8573 13.75 33.4376 13.75 33ZM15.4 22.55C14.9624 22.55 14.5427 22.7238 14.2333 23.0333C13.9238 23.3427 13.75 23.7624 13.75 24.2C13.75 24.6376 13.9238 25.0573 14.2333 25.3667C14.5427 25.6762 14.9624 25.85 15.4 25.85H28.6C29.0376 25.85 29.4573 25.6762 29.7667 25.3667C30.0762 25.0573 30.25 24.6376 30.25 24.2C30.25 23.7624 30.0762 23.3427 29.7667 23.0333C29.4573 22.7238 29.0376 22.55 28.6 22.55H15.4ZM13.75 15.4C13.75 14.9624 13.9238 14.5427 14.2333 14.2333C14.5427 13.9238 14.9624 13.75 15.4 13.75H28.6C29.0376 13.75 29.4573 13.9238 29.7667 14.2333C30.0762 14.5427 30.25 14.9624 30.25 15.4C30.25 15.8376 30.0762 16.2573 29.7667 16.5667C29.4573 16.8762 29.0376 17.05 28.6 17.05H15.4C14.9624 17.05 14.5427 16.8762 14.2333 16.5667C13.9238 16.2573 13.75 15.8376 13.75 15.4Z" fill="#B0B0B0"/>
</svg>
