<svg width="68" height="68" viewBox="0 0 68 68" fill="none" xmlns="http://www.w3.org/2000/svg">
<path d="M4 49.5957L10.8205 17.5054H24.4109C26.4991 17.5054 28.3179 17.7244 29.8673 18.1623C31.4503 18.5666 32.747 19.2573 33.7575 20.2343C34.8016 21.2113 35.5763 22.4916 36.0815 24.0751C36.6204 25.6585 36.8898 27.5957 36.8898 29.8867C36.8898 32.3461 36.5699 34.755 35.9299 37.1133C35.3237 39.4717 34.2964 41.5773 32.8481 43.4303C31.3998 45.2833 29.4968 46.7826 27.1391 47.928C24.8151 49.0398 21.9353 49.5957 18.4998 49.5957H4ZM17.843 46.0582C18.9545 46.0582 19.9313 45.6034 20.7733 44.6937C21.649 43.7504 22.39 42.5712 22.9963 41.1562C23.6362 39.7075 24.1583 38.1241 24.5625 36.4058C25.0003 34.6539 25.3371 32.9694 25.5729 31.3522C25.8424 29.7351 26.0276 28.2864 26.1286 27.0061C26.2634 25.7259 26.3307 24.8162 26.3307 24.2772C26.3307 23.2328 26.1118 22.4242 25.6739 21.8515C25.2698 21.245 24.5456 20.9418 23.5015 20.9418H21.0764L15.6706 46.0582H17.843Z" fill="url(#paint0_linear_114_96)" stroke="white" stroke-width="4"/>
<path d="M59.3493 46.8668C58.5073 47.2711 57.6316 47.6753 56.7222 48.0796C55.8465 48.4502 54.9034 48.7871 53.893 49.0904C52.8825 49.3599 51.771 49.5789 50.5585 49.7473C49.3797 49.9158 48.0829 50 46.6683 50C42.155 50 38.669 48.9893 36.2103 46.9678C33.7852 44.9464 32.7692 42.0322 32.7692 37.3155C32.7692 34.5865 32.9937 31.5712 33.8357 29.1792C34.6778 26.7534 35.924 24.6478 37.5743 22.8622C39.2247 21.0429 41.2625 19.611 43.6875 18.5666C46.1126 17.5222 48.8913 17 52.0236 17C53.5056 17 54.8529 17.1011 56.0654 17.3032C57.3116 17.5054 58.4231 17.7749 59.3999 18.1118C60.4103 18.415 61.3029 18.7519 62.0775 19.1225C62.8859 19.4931 63.61 19.8469 64.25 20.1838L62.6533 25.3954C61.8908 27.8842 59.5929 29.5835 56.99 29.5835H53.3372C53.3709 29.2466 53.4046 28.8086 53.4383 28.2695C53.5056 27.7305 53.5561 27.1914 53.5898 26.6524C53.6235 26.0796 53.6572 25.5237 53.6909 24.9847C53.7246 24.4456 53.7414 23.9908 53.7414 23.6202C53.7414 23.3507 53.7246 23.0475 53.6909 22.7106C53.6572 22.34 53.573 21.9862 53.4383 21.6493C53.3035 21.3124 53.0846 21.0429 52.7815 20.8407C52.512 20.6049 52.1415 20.487 51.67 20.487C50.7943 20.487 49.9859 20.8576 49.2449 21.5988C48.5376 22.3063 47.8977 23.2665 47.3251 24.4793C46.7525 25.6585 46.2473 27.0061 45.8094 28.5222C45.3716 30.0383 45.0011 31.5881 44.698 33.1715C44.4285 34.7213 44.2096 36.2542 44.0412 37.7703C43.9064 39.2864 43.8391 40.6172 43.8391 41.7626C43.8391 42.0995 43.8559 42.5207 43.8896 43.026C43.9233 43.5314 44.0243 44.0199 44.1927 44.4916C44.3611 44.9632 44.6137 45.3675 44.9506 45.7044C45.3211 46.0413 45.8094 46.2098 46.4157 46.2098C47.4598 46.2098 48.4703 45.5697 49.447 44.2894C50.4238 42.9755 51.2827 40.6508 52.0236 37.3155H61.3702L59.3493 46.8668Z" fill="url(#paint1_linear_114_96)"/>
<path d="M59.3493 46.8668C58.5073 47.2711 57.6316 47.6753 56.7222 48.0796C55.8465 48.4502 54.9034 48.7871 53.893 49.0904C52.8825 49.3599 51.771 49.5789 50.5585 49.7473C49.3797 49.9158 48.0829 50 46.6683 50C42.155 50 38.669 48.9893 36.2103 46.9678C33.7852 44.9464 32.7692 42.0322 32.7692 37.3155C32.7692 34.5865 32.9937 31.5712 33.8357 29.1792C34.6778 26.7534 35.924 24.6478 37.5743 22.8622C39.2247 21.0429 41.2625 19.611 43.6875 18.5666C46.1126 17.5222 48.8913 17 52.0236 17C53.5056 17 54.8529 17.1011 56.0654 17.3032C57.3116 17.5054 58.4231 17.7749 59.3999 18.1118C60.4103 18.415 61.3029 18.7519 62.0775 19.1225C62.8859 19.4931 63.61 19.8469 64.25 20.1838L62.6533 25.3954C61.8908 27.8842 59.5929 29.5835 56.99 29.5835H53.3372C53.3709 29.2466 53.4046 28.8086 53.4383 28.2695C53.5056 27.7305 53.5561 27.1914 53.5898 26.6524C53.6235 26.0796 53.6572 25.5237 53.6909 24.9847C53.7246 24.4456 53.7414 23.9908 53.7414 23.6202C53.7414 23.3507 53.7246 23.0475 53.6909 22.7106C53.6572 22.34 53.573 21.9862 53.4383 21.6493C53.3035 21.3124 53.0846 21.0429 52.7815 20.8407C52.512 20.6049 52.1415 20.487 51.67 20.487C50.7943 20.487 49.9859 20.8576 49.2449 21.5988C48.5376 22.3063 47.8977 23.2665 47.3251 24.4793C46.7525 25.6585 46.2473 27.0061 45.8094 28.5222C45.3716 30.0383 45.0011 31.5881 44.698 33.1715C44.4285 34.7213 44.2096 36.2542 44.0412 37.7703C43.9064 39.2864 43.8391 40.6172 43.8391 41.7626C43.8391 42.0995 43.8559 42.5207 43.8896 43.026C43.9233 43.5314 44.0243 44.0199 44.1927 44.4916C44.3611 44.9632 44.6137 45.3675 44.9506 45.7044C45.3211 46.0413 45.8094 46.2098 46.4157 46.2098C47.4598 46.2098 48.4703 45.5697 49.447 44.2894C50.4238 42.9755 51.2827 40.6508 52.0236 37.3155H61.3702L59.3493 46.8668Z" fill="url(#paint2_linear_114_96)"/>
<path d="M59.3493 46.8668C58.5073 47.2711 57.6316 47.6753 56.7222 48.0796C55.8465 48.4502 54.9034 48.7871 53.893 49.0904C52.8825 49.3599 51.771 49.5789 50.5585 49.7473C49.3797 49.9158 48.0829 50 46.6683 50C42.155 50 38.669 48.9893 36.2103 46.9678C33.7852 44.9464 32.7692 42.0322 32.7692 37.3155C32.7692 34.5865 32.9937 31.5712 33.8357 29.1792C34.6778 26.7534 35.924 24.6478 37.5743 22.8622C39.2247 21.0429 41.2625 19.611 43.6875 18.5666C46.1126 17.5222 48.8913 17 52.0236 17C53.5056 17 54.8529 17.1011 56.0654 17.3032C57.3116 17.5054 58.4231 17.7749 59.3999 18.1118C60.4103 18.415 61.3029 18.7519 62.0775 19.1225C62.8859 19.4931 63.61 19.8469 64.25 20.1838L62.6533 25.3954C61.8908 27.8842 59.5929 29.5835 56.99 29.5835H53.3372C53.3709 29.2466 53.4046 28.8086 53.4383 28.2695C53.5056 27.7305 53.5561 27.1914 53.5898 26.6524C53.6235 26.0796 53.6572 25.5237 53.6909 24.9847C53.7246 24.4456 53.7414 23.9908 53.7414 23.6202C53.7414 23.3507 53.7246 23.0475 53.6909 22.7106C53.6572 22.34 53.573 21.9862 53.4383 21.6493C53.3035 21.3124 53.0846 21.0429 52.7815 20.8407C52.512 20.6049 52.1415 20.487 51.67 20.487C50.7943 20.487 49.9859 20.8576 49.2449 21.5988C48.5376 22.3063 47.8977 23.2665 47.3251 24.4793C46.7525 25.6585 46.2473 27.0061 45.8094 28.5222C45.3716 30.0383 45.0011 31.5881 44.698 33.1715C44.4285 34.7213 44.2096 36.2542 44.0412 37.7703C43.9064 39.2864 43.8391 40.6172 43.8391 41.7626C43.8391 42.0995 43.8559 42.5207 43.8896 43.026C43.9233 43.5314 44.0243 44.0199 44.1927 44.4916C44.3611 44.9632 44.6137 45.3675 44.9506 45.7044C45.3211 46.0413 45.8094 46.2098 46.4157 46.2098C47.4598 46.2098 48.4703 45.5697 49.447 44.2894C50.4238 42.9755 51.2827 40.6508 52.0236 37.3155H61.3702L59.3493 46.8668Z" stroke="white" stroke-width="4"/>
<path d="M59.3493 46.8668C58.5073 47.2711 57.6316 47.6753 56.7222 48.0796C55.8465 48.4502 54.9034 48.7871 53.893 49.0904C52.8825 49.3599 51.771 49.5789 50.5585 49.7473C49.3797 49.9158 48.0829 50 46.6683 50C42.155 50 38.669 48.9893 36.2103 46.9678C33.7852 44.9464 32.7692 42.0322 32.7692 37.3155C32.7692 34.5865 32.9937 31.5712 33.8357 29.1792C34.6778 26.7534 35.924 24.6478 37.5743 22.8622C39.2247 21.0429 41.2625 19.611 43.6875 18.5666C46.1126 17.5222 48.8913 17 52.0236 17C53.5056 17 54.8529 17.1011 56.0654 17.3032C57.3116 17.5054 58.4231 17.7749 59.3999 18.1118C60.4103 18.415 61.3029 18.7519 62.0775 19.1225C62.8859 19.4931 63.61 19.8469 64.25 20.1838L62.6533 25.3954C61.8908 27.8842 59.5929 29.5835 56.99 29.5835H53.3372C53.3709 29.2466 53.4046 28.8086 53.4383 28.2695C53.5056 27.7305 53.5561 27.1914 53.5898 26.6524C53.6235 26.0796 53.6572 25.5237 53.6909 24.9847C53.7246 24.4456 53.7414 23.9908 53.7414 23.6202C53.7414 23.3507 53.7246 23.0475 53.6909 22.7106C53.6572 22.34 53.573 21.9862 53.4383 21.6493C53.3035 21.3124 53.0846 21.0429 52.7815 20.8407C52.512 20.6049 52.1415 20.487 51.67 20.487C50.7943 20.487 49.9859 20.8576 49.2449 21.5988C48.5376 22.3063 47.8977 23.2665 47.3251 24.4793C46.7525 25.6585 46.2473 27.0061 45.8094 28.5222C45.3716 30.0383 45.0011 31.5881 44.698 33.1715C44.4285 34.7213 44.2096 36.2542 44.0412 37.7703C43.9064 39.2864 43.8391 40.6172 43.8391 41.7626C43.8391 42.0995 43.8559 42.5207 43.8896 43.026C43.9233 43.5314 44.0243 44.0199 44.1927 44.4916C44.3611 44.9632 44.6137 45.3675 44.9506 45.7044C45.3211 46.0413 45.8094 46.2098 46.4157 46.2098C47.4598 46.2098 48.4703 45.5697 49.447 44.2894C50.4238 42.9755 51.2827 40.6508 52.0236 37.3155H61.3702L59.3493 46.8668Z" stroke="white" stroke-width="4"/>
<path d="M4 49.5957L10.8205 17.5054H24.4109C26.4991 17.5054 28.3179 17.7244 29.8673 18.1623C31.4503 18.5666 32.747 19.2573 33.7575 20.2343C34.8016 21.2113 35.5763 22.4916 36.0815 24.0751C36.6204 25.6585 36.8898 27.5957 36.8898 29.8867C36.8898 32.3461 36.5699 34.755 35.9299 37.1133C35.3237 39.4717 34.2964 41.5773 32.8481 43.4303C31.3998 45.2833 29.4968 46.7826 27.1391 47.928C24.8151 49.0398 21.9353 49.5957 18.4998 49.5957H4ZM17.843 46.0582C18.9545 46.0582 19.9313 45.6034 20.7733 44.6937C21.649 43.7504 22.39 42.5712 22.9963 41.1562C23.6362 39.7075 24.1583 38.1241 24.5625 36.4058C25.0003 34.6539 25.3371 32.9694 25.5729 31.3522C25.8424 29.7351 26.0276 28.2864 26.1286 27.0061C26.2634 25.7259 26.3307 24.8162 26.3307 24.2772C26.3307 23.2328 26.1118 22.4242 25.6739 21.8515C25.2698 21.245 24.5456 20.9418 23.5015 20.9418H21.0764L15.6706 46.0582H17.843Z" fill="url(#paint3_linear_114_96)"/>
<path d="M59.3493 46.8668C58.5073 47.2711 57.6316 47.6753 56.7222 48.0796C55.8465 48.4502 54.9034 48.7871 53.893 49.0904C52.8825 49.3599 51.771 49.5789 50.5585 49.7473C49.3797 49.9158 48.0829 50 46.6683 50C42.155 50 38.669 48.9893 36.2103 46.9678C33.7852 44.9464 32.7692 42.0322 32.7692 37.3155C32.7692 34.5865 32.9937 31.5712 33.8357 29.1792C34.6778 26.7534 35.924 24.6478 37.5743 22.8622C39.2247 21.0429 41.2625 19.611 43.6875 18.5666C46.1126 17.5222 48.8913 17 52.0236 17C53.5056 17 54.8529 17.1011 56.0654 17.3032C57.3116 17.5054 58.4231 17.7749 59.3999 18.1118C60.4103 18.415 61.3029 18.7519 62.0775 19.1225C62.8859 19.4931 63.61 19.8469 64.25 20.1838L62.6533 25.3954C61.8908 27.8842 59.5929 29.5835 56.99 29.5835H53.3372C53.3709 29.2466 53.4046 28.8086 53.4383 28.2695C53.5056 27.7305 53.5561 27.1914 53.5898 26.6524C53.6235 26.0796 53.6572 25.5237 53.6909 24.9847C53.7246 24.4456 53.7414 23.9908 53.7414 23.6202C53.7414 23.3507 53.7246 23.0475 53.6909 22.7106C53.6572 22.34 53.573 21.9862 53.4383 21.6493C53.3035 21.3124 53.0846 21.0429 52.7815 20.8407C52.512 20.6049 52.1415 20.487 51.67 20.487C50.7943 20.487 49.9859 20.8576 49.2449 21.5988C48.5376 22.3063 47.8977 23.2665 47.3251 24.4793C46.7525 25.6585 46.2473 27.0061 45.8094 28.5222C45.3716 30.0383 45.0011 31.5881 44.698 33.1715C44.4285 34.7213 44.2096 36.2542 44.0412 37.7703C43.9064 39.2864 43.8391 40.6172 43.8391 41.7626C43.8391 42.0995 43.8559 42.5207 43.8896 43.026C43.9233 43.5314 44.0243 44.0199 44.1927 44.4916C44.3611 44.9632 44.6137 45.3675 44.9506 45.7044C45.3211 46.0413 45.8094 46.2098 46.4157 46.2098C47.4598 46.2098 48.4703 45.5697 49.447 44.2894C50.4238 42.9755 51.2827 40.6508 52.0236 37.3155H61.3702L59.3493 46.8668Z" fill="url(#paint4_linear_114_96)"/>
<path d="M59.3493 46.8668C58.5073 47.2711 57.6316 47.6753 56.7222 48.0796C55.8465 48.4502 54.9034 48.7871 53.893 49.0904C52.8825 49.3599 51.771 49.5789 50.5585 49.7473C49.3797 49.9158 48.0829 50 46.6683 50C42.155 50 38.669 48.9893 36.2103 46.9678C33.7852 44.9464 32.7692 42.0322 32.7692 37.3155C32.7692 34.5865 32.9937 31.5712 33.8357 29.1792C34.6778 26.7534 35.924 24.6478 37.5743 22.8622C39.2247 21.0429 41.2625 19.611 43.6875 18.5666C46.1126 17.5222 48.8913 17 52.0236 17C53.5056 17 54.8529 17.1011 56.0654 17.3032C57.3116 17.5054 58.4231 17.7749 59.3999 18.1118C60.4103 18.415 61.3029 18.7519 62.0775 19.1225C62.8859 19.4931 63.61 19.8469 64.25 20.1838L62.6533 25.3954C61.8908 27.8842 59.5929 29.5835 56.99 29.5835H53.3372C53.3709 29.2466 53.4046 28.8086 53.4383 28.2695C53.5056 27.7305 53.5561 27.1914 53.5898 26.6524C53.6235 26.0796 53.6572 25.5237 53.6909 24.9847C53.7246 24.4456 53.7414 23.9908 53.7414 23.6202C53.7414 23.3507 53.7246 23.0475 53.6909 22.7106C53.6572 22.34 53.573 21.9862 53.4383 21.6493C53.3035 21.3124 53.0846 21.0429 52.7815 20.8407C52.512 20.6049 52.1415 20.487 51.67 20.487C50.7943 20.487 49.9859 20.8576 49.2449 21.5988C48.5376 22.3063 47.8977 23.2665 47.3251 24.4793C46.7525 25.6585 46.2473 27.0061 45.8094 28.5222C45.3716 30.0383 45.0011 31.5881 44.698 33.1715C44.4285 34.7213 44.2096 36.2542 44.0412 37.7703C43.9064 39.2864 43.8391 40.6172 43.8391 41.7626C43.8391 42.0995 43.8559 42.5207 43.8896 43.026C43.9233 43.5314 44.0243 44.0199 44.1927 44.4916C44.3611 44.9632 44.6137 45.3675 44.9506 45.7044C45.3211 46.0413 45.8094 46.2098 46.4157 46.2098C47.4598 46.2098 48.4703 45.5697 49.447 44.2894C50.4238 42.9755 51.2827 40.6508 52.0236 37.3155H61.3702L59.3493 46.8668Z" fill="url(#paint5_linear_114_96)"/>
<defs>
<linearGradient id="paint0_linear_114_96" x1="10.0048" y1="59.8811" x2="46.3216" y2="40.4558" gradientUnits="userSpaceOnUse">
<stop stop-color="#252A3D"/>
<stop offset="1" stop-color="#000518"/>
</linearGradient>
<linearGradient id="paint1_linear_114_96" x1="38.5168" y1="60.5769" x2="74.3429" y2="42.7407" gradientUnits="userSpaceOnUse">
<stop stop-color="#252A3D"/>
<stop offset="1" stop-color="#000518"/>
</linearGradient>
<linearGradient id="paint2_linear_114_96" x1="38.5168" y1="60.5769" x2="74.3429" y2="42.7407" gradientUnits="userSpaceOnUse">
<stop stop-color="#252A3D"/>
<stop offset="1" stop-color="#000518"/>
</linearGradient>
<linearGradient id="paint3_linear_114_96" x1="10.0048" y1="59.8811" x2="46.3216" y2="40.4558" gradientUnits="userSpaceOnUse">
<stop stop-color="#252A3D"/>
<stop offset="1" stop-color="#000518"/>
</linearGradient>
<linearGradient id="paint4_linear_114_96" x1="38.5168" y1="60.5769" x2="74.3429" y2="42.7407" gradientUnits="userSpaceOnUse">
<stop stop-color="#252A3D"/>
<stop offset="1" stop-color="#000518"/>
</linearGradient>
<linearGradient id="paint5_linear_114_96" x1="38.5168" y1="60.5769" x2="74.3429" y2="42.7407" gradientUnits="userSpaceOnUse">
<stop stop-color="#252A3D"/>
<stop offset="1" stop-color="#000518"/>
</linearGradient>
</defs>
</svg>
