<?xml version="1.0" encoding="UTF-8"?>
<!DOCTYPE svg PUBLIC "-//W3C//DTD SVG 1.1//EN" "http://www.w3.org/Graphics/SVG/1.1/DTD/svg11.dtd">
<!-- Creator: CorelDRAW -->
<svg xmlns="http://www.w3.org/2000/svg" xml:space="preserve" width="128.341mm" height="143.34mm" version="1.1" style="shape-rendering:geometricPrecision; text-rendering:geometricPrecision; image-rendering:optimizeQuality; fill-rule:evenodd; clip-rule:evenodd"
viewBox="0 0 2587.1 2889.45"
 xmlns:xlink="http://www.w3.org/1999/xlink"
 xmlns:xodm="http://www.corel.com/coreldraw/odm/2003">
 <defs>
  <style type="text/css">
   <![CDATA[
    .fil0 {fill:#2B2A29;fill-rule:nonzero}
   ]]>
  </style>
 </defs>
 <g id="Слой_x0020_1">
  <metadata id="CorelCorpID_0Corel-Layer"/>
  <g id="_3153101548928">
   <polygon class="fil0" points="619.09,1862.99 621.94,1862.99 621.94,998.42 619.09,998.42 "/>
   <polygon class="fil0" points="27.64,1837.46 1213.39,1837.46 1213.39,1834.61 27.64,1834.61 "/>
   <path class="fil0" d="M593.56 1045.54c-142.08,0 -249.85,4.94 -268.16,12.29 -19.45,7.8 -122.12,134.43 -159.67,240.43l-0.6 1.06c-17.56,21.5 -33.01,36.89 -45.43,49.27 -22.32,22.24 -34.61,34.49 -34.61,56.29l0 134.74c0,48.12 37.48,158.14 50.34,158.14l969.69 0c13.04,0 51.06,-110.03 51.06,-158.14l0 -134.74c0,-21.8 -12.29,-34.05 -34.62,-56.29 -12.41,-12.37 -27.86,-27.76 -45.43,-49.26l-0.6 -1.06c-37.54,-106 -140.21,-232.63 -159.66,-240.43 -18.31,-7.35 -126.08,-12.29 -268.17,-12.29l-54.14 0zm511.56 659.32l-969.69 0c-23.25,0 -57.45,-125.72 -57.45,-165.25l0 -134.74c0,-24.75 13.81,-38.51 36.7,-61.32 12.21,-12.17 27.38,-27.29 44.55,-48.26 39.12,-109.86 142.83,-235.76 163.52,-244.06 23.54,-9.44 160.6,-12.8 270.81,-12.8l54.14 0c110.22,0 247.27,3.36 270.81,12.8 20.69,8.3 124.39,134.2 163.51,244.06 17.18,20.97 32.35,36.08 44.55,48.25 22.89,22.81 36.71,36.58 36.71,61.33l0 134.74c0,38.55 -35.34,165.25 -58.17,165.25z"/>
   <path class="fil0" d="M620.52 1543.16c-346.58,0 -537.59,-26.71 -539.48,-26.98l1.01 -7.04c1.89,0.27 192.47,26.91 538.47,26.91 346.01,0 536.83,-26.64 538.72,-26.91l1.01 7.04c-1.89,0.27 -193.15,26.98 -539.73,26.98z"/>
   <path class="fil0" d="M163.18 1300.73l-3.15 -6.38c2.26,-1.13 60.02,-27.8 460.49,-27.8 400.46,0 458.46,26.66 460.73,27.8l-3.18 6.37c-2.29,-1.09 -61.38,-27.05 -457.55,-27.05 -396.15,0 -455.02,25.96 -457.33,27.07z"/>
   <path class="fil0" d="M313.33 1096.69l-3.59 -6.14c1.54,-0.92 40.75,-22.41 310.81,-22.41 270.06,0 309.43,21.49 310.98,22.4l-3.62 6.12c-1.54,-0.85 -41.92,-21.41 -307.36,-21.41 -265.4,0 -305.64,20.56 -307.22,21.43z"/>
   <path class="fil0" d="M509.88 1540.87l-80.34 -106.26c-8.73,-4.37 -14.76,-7.9 -235.98,-137.33l-8.59 -5.03 1.02 -2.79c47.38,-129.89 161.42,-241.25 162.56,-242.37l4.94 5.11c-1.13,1.09 -112.39,109.78 -159.8,236.9l3.46 2.02c227.22,132.95 227.22,132.95 236.3,137.48l0.75 0.38 0.5 0.66 80.84 106.92 -5.67 4.29z"/>
   <path class="fil0" d="M187.94 1405.17c-14.73,-66.43 -0.1,-112.56 0.05,-113.02l2.7 0.89c-0.15,0.45 -14.52,45.9 0.03,111.51l-2.78 0.62z"/>
   <path class="fil0" d="M493 1514.08c-255.98,0 -371.13,-32.35 -371.13,-55.32 0,-36.19 23.33,-55.33 67.45,-55.33l195.26 0 0 2.85 -195.26 0c-42.87,0 -64.61,17.65 -64.61,52.47 0,16.43 92.73,52.48 368.28,52.48l0 2.84z"/>
   <path class="fil0" d="M191.44 1489.07l-2.85 0c0,-23.31 -0.68,-83.59 -0.68,-84.19l2.85 -0.03c0.01,0.61 0.68,60.9 0.68,84.23z"/>
   <path class="fil0" d="M352.13 1509.74l-2.2 -1.81c0.27,-0.33 26.62,-33.42 26.62,-103.07l2.85 0c0,70.76 -27,104.54 -27.27,104.88z"/>
   <polygon class="fil0" points="376.6,1433.23 431.88,1433.23 431.88,1430.38 376.6,1430.38 "/>
   <polygon class="fil0" points="372.13,1460.04 452.83,1460.04 452.83,1457.2 372.13,1457.2 "/>
   <polygon class="fil0" points="363.93,1486.83 472.63,1486.83 472.63,1483.98 363.93,1483.98 "/>
   <path class="fil0" d="M620.52 1648.82l-244.19 0 0.24 -1.63c0.08,-0.55 8.6,-55.11 55.31,-55.11l188.64 0 0 2.84 -188.64 0c-39.78,0 -50.4,42.16 -52.2,51.05l240.84 0 0 2.84z"/>
   <path class="fil0" d="M163.84 1645.98l158.79 0c-0.25,-8.4 -2.65,-51.05 -25.5,-51.05l-80.85 0c-26.47,0 -51.43,28.35 -52.45,51.05zm161.67 2.84l-164.54 0 0 -1.42c0,-24.15 26.83,-55.32 55.32,-55.32l80.85 0c28.05,0 28.37,53.06 28.37,55.32l0 1.42z"/>
   <path class="fil0" d="M270.18 1594.93c-14.08,0 -25.53,11.45 -25.53,25.52 0,14.08 11.45,25.53 25.53,25.53 14.08,0 25.52,-11.45 25.52,-25.53 0,-14.07 -11.45,-25.52 -25.52,-25.52zm0 53.9c-15.64,0 -28.37,-12.73 -28.37,-28.37 0,-15.64 12.73,-28.37 28.37,-28.37 15.64,0 28.37,12.73 28.37,28.37 0,15.64 -12.73,28.37 -28.37,28.37z"/>
   <path class="fil0" d="M199.1 1839.59l-72.57 0c-26.29,0 -47.68,-21.38 -47.68,-47.68l0 -238.47 7.11 0 0 238.47c0,22.37 18.2,40.57 40.57,40.57l72.57 0c22.37,0 40.57,-18.2 40.57,-40.57l0 -90.61 7.11 0 0 90.61c0,26.3 -21.39,47.68 -47.68,47.68z"/>
   <path class="fil0" d="M161.89 1297.24c-35.1,0 -81.77,-5.61 -81.77,-54.07 0,-27.05 29.72,-28.37 82.27,-28.37 7.3,0 12.25,6.03 14.71,17.92 1.93,9.32 1.92,20.12 1.92,26.56l0 0.8 -2.85 0 0 -0.8c0.01,-6.34 0.01,-16.95 -1.86,-25.99 -2.14,-10.38 -6.15,-15.65 -11.92,-15.65 -55.22,0 -79.42,2.42 -79.42,25.53 0,34.94 25.08,51.22 78.93,51.22l0 2.85z"/>
   <path class="fil0" d="M731.15 1540.87l-5.68 -4.29 81.35 -107.58 0.74 -0.38c9.1,-4.54 9.1,-4.54 236.32,-137.49l3.44 -2.01c-47.43,-127.17 -158.68,-235.81 -159.8,-236.9l4.94 -5.11c1.14,1.12 115.18,112.48 162.56,242.37l1.02 2.79 -8.57 5.01c-221.23,129.44 -227.27,132.97 -236,137.34l-80.34 106.26z"/>
   <path class="fil0" d="M1053.09 1405.17l-2.78 -0.62c14.55,-65.62 0.18,-111.06 0.03,-111.51l2.7 -0.89c0.15,0.46 14.77,46.59 0.05,113.02z"/>
   <path class="fil0" d="M748.03 1514.08l0 -2.84c275.54,0 368.28,-36.04 368.28,-52.48 0,-34.82 -21.74,-52.47 -64.61,-52.47l-195.25 0 0 -2.85 195.25 0c44.13,0 67.46,19.14 67.46,55.33 0,22.97 -115.15,55.32 -371.12,55.32z"/>
   <path class="fil0" d="M1052.44 1489.07l-2.84 0c0,-23.33 0.68,-83.62 0.68,-84.23l2.84 0.03c0,0.6 -0.68,60.88 -0.68,84.19z"/>
   <path class="fil0" d="M888.9 1509.74c-0.27,-0.33 -27.27,-34.12 -27.27,-104.88l2.84 0c0,69.75 26.36,102.74 26.62,103.07l-2.2 1.81z"/>
   <polygon class="fil0" points="809.16,1433.23 864.43,1433.23 864.43,1430.38 809.16,1430.38 "/>
   <polygon class="fil0" points="788.2,1460.04 868.9,1460.04 868.9,1457.2 788.2,1457.2 "/>
   <polygon class="fil0" points="768.4,1486.83 877.11,1486.83 877.11,1483.98 768.4,1483.98 "/>
   <path class="fil0" d="M864.7 1648.82l-244.18 0 0 -2.84 240.83 0c-1.79,-8.89 -12.42,-51.05 -52.19,-51.05l-188.64 0 0 -2.84 188.64 0c46.71,0 55.22,54.57 55.31,55.11l0.23 1.63z"/>
   <path class="fil0" d="M918.4 1645.98l158.79 0c-1.01,-22.7 -25.97,-51.05 -52.44,-51.05l-80.85 0c-22.87,0 -25.25,42.65 -25.5,51.05zm161.67 2.84l-164.54 0 0 -1.42c0,-2.26 0.32,-55.32 28.37,-55.32l80.85 0c28.5,0 55.32,31.17 55.32,55.32l0 1.42z"/>
   <path class="fil0" d="M970.85 1594.93c-14.08,0 -25.53,11.45 -25.53,25.52 0,14.08 11.45,25.53 25.53,25.53 14.07,0 25.52,-11.45 25.52,-25.53 0,-14.07 -11.45,-25.52 -25.52,-25.52zm0 53.9c-15.64,0 -28.37,-12.73 -28.37,-28.37 0,-15.64 12.73,-28.37 28.37,-28.37 15.64,0 28.37,12.73 28.37,28.37 0,15.64 -12.73,28.37 -28.37,28.37z"/>
   <path class="fil0" d="M1079.14 1297.24l0 -2.85c53.85,0 78.92,-16.28 78.92,-51.22 0,-23.11 -24.2,-25.53 -79.42,-25.53 -5.77,0 -9.77,5.27 -11.92,15.66 -1.87,9.04 -1.86,19.65 -1.85,25.98l0 0.79 -2.85 0 0 -0.79c0,-6.44 -0.01,-17.24 1.92,-26.56 2.46,-11.9 7.41,-17.93 14.71,-17.93 52.55,0 82.27,1.32 82.27,28.37 0,48.46 -46.67,54.07 -81.77,54.07z"/>
   <polygon class="fil0" points="107.06,1831.63 109.91,1831.63 109.91,1656.33 107.06,1656.33 "/>
   <polygon class="fil0" points="93.51,1822.69 96.36,1822.69 96.36,1613.7 93.51,1613.7 "/>
   <polygon class="fil0" points="134.01,1836.04 136.86,1836.04 136.86,1701.3 134.01,1701.3 "/>
   <polygon class="fil0" points="160.49,1836.04 163.33,1836.04 163.33,1701.3 160.49,1701.3 "/>
   <polygon class="fil0" points="147.2,1836.04 150.05,1836.04 150.05,1701.3 147.2,1701.3 "/>
   <polygon class="fil0" points="121.04,1836.04 123.88,1836.04 123.88,1687.79 121.04,1687.79 "/>
   <polygon class="fil0" points="213.44,1836.04 216.29,1836.04 216.29,1701.3 213.44,1701.3 "/>
   <polygon class="fil0" points="227.46,1824.46 230.31,1824.46 230.31,1701.3 227.46,1701.3 "/>
   <polygon class="fil0" points="200.15,1836.04 203,1836.04 203,1701.3 200.15,1701.3 "/>
   <polygon class="fil0" points="173.36,1836.04 176.21,1836.04 176.21,1701.3 173.36,1701.3 "/>
   <polygon class="fil0" points="186.49,1836.04 189.34,1836.04 189.34,1701.3 186.49,1701.3 "/>
   <path class="fil0" d="M1114.5 1839.59l-72.58 0c-26.29,0 -47.68,-21.38 -47.68,-47.68l0 -90.61 7.11 0 0 90.61c0,22.37 18.2,40.57 40.57,40.57l72.58 0c22.37,0 40.57,-18.2 40.57,-40.57l0 -238.47 7.11 0 0 238.47c0,26.3 -21.39,47.68 -47.68,47.68z"/>
   <polygon class="fil0" points="1131.12,1831.63 1133.97,1831.63 1133.97,1656.33 1131.12,1656.33 "/>
   <polygon class="fil0" points="1144.67,1822.69 1147.52,1822.69 1147.52,1613.7 1144.67,1613.7 "/>
   <polygon class="fil0" points="1104.17,1836.04 1107.02,1836.04 1107.02,1701.3 1104.17,1701.3 "/>
   <polygon class="fil0" points="1077.69,1836.04 1080.54,1836.04 1080.54,1701.3 1077.69,1701.3 "/>
   <polygon class="fil0" points="1090.99,1836.04 1093.84,1836.04 1093.84,1701.3 1090.99,1701.3 "/>
   <polygon class="fil0" points="1117.15,1836.04 1119.99,1836.04 1119.99,1687.79 1117.15,1687.79 "/>
   <polygon class="fil0" points="1024.74,1836.04 1027.59,1836.04 1027.59,1701.3 1024.74,1701.3 "/>
   <polygon class="fil0" points="1010.72,1824.46 1013.56,1824.46 1013.56,1701.3 1010.72,1701.3 "/>
   <polygon class="fil0" points="1038.03,1836.04 1040.88,1836.04 1040.88,1701.3 1038.03,1701.3 "/>
   <polygon class="fil0" points="1064.82,1836.04 1067.67,1836.04 1067.67,1701.3 1064.82,1701.3 "/>
   <polygon class="fil0" points="1051.69,1836.04 1054.54,1836.04 1054.54,1701.3 1051.69,1701.3 "/>
   <polygon class="fil0" points="-0,801.41 2587.1,801.41 2587.1,798.57 -0,798.57 "/>
   <polygon class="fil0" points="537.56,845.9 540.4,845.9 540.4,293.27 537.56,293.27 "/>
   <polygon class="fil0" points="1992.8,851.63 1995.64,851.63 1995.64,358.41 1992.8,358.41 "/>
   <polygon class="fil0" points="258.35,612.77 844.61,612.77 844.61,609.93 258.35,609.93 "/>
   <polygon class="fil0" points="1689.32,612.77 2275.58,612.77 2275.58,609.93 1689.32,609.93 "/>
   <path class="fil0" d="M538.98 426.41c-101.98,0 -184.94,82.97 -184.94,184.94 0,101.98 82.96,184.94 184.94,184.94 101.98,0 184.94,-82.97 184.94,-184.94 0,-101.98 -82.97,-184.94 -184.94,-184.94zm0 377c-105.9,0 -192.05,-86.16 -192.05,-192.06 0,-105.89 86.16,-192.06 192.05,-192.06 105.89,0 192.05,86.16 192.05,192.06 0,105.89 -86.16,192.06 -192.05,192.06z"/>
   <path class="fil0" d="M554.2 557.56c4.22,1.19 8.26,2.87 12.06,4.99l37.31 -37.31c-14.48,-10.87 -31.48,-17.92 -49.37,-20.46l0 52.78zm12.53 8.54l-0.95 -0.55c-4.16,-2.44 -8.66,-4.3 -13.36,-5.53l-1.06 -0.28 0 -58.21 1.6 0.21c19.5,2.47 38.05,10.16 53.64,22.23l1.27 0.99 -41.14 41.14zm-92.33 -40.85l37.31 37.3c3.8,-2.12 7.84,-3.8 12.06,-4.99l0 -52.78c-17.88,2.54 -34.88,9.59 -49.37,20.47zm36.84 40.85l-41.15 -41.14 1.27 -0.99c15.59,-12.07 34.14,-19.76 53.64,-22.23l1.6 -0.21 0 58.21 -1.06 0.28c-4.71,1.23 -9.2,3.09 -13.36,5.53l-0.95 0.55zm-78.83 30.02l52.78 0c1.19,-4.21 2.87,-8.26 4.99,-12.05l-37.3 -37.3c-10.88,14.48 -17.93,31.48 -20.47,49.36zm54.96 2.85l-58.2 0 0.21 -1.6c2.47,-19.51 10.16,-38.05 22.23,-53.64l0.99 -1.27 41.14 41.14 -0.55 0.95c-2.44,4.16 -4.3,8.66 -5.53,13.36l-0.28 1.06zm105.4 -2.85l52.78 0c-2.54,-17.88 -9.59,-34.87 -20.47,-49.36l-37.31 37.3c2.13,3.8 3.8,7.85 4.99,12.05zm56.02 2.85l-58.2 0 -0.28 -1.06c-1.23,-4.71 -3.09,-9.2 -5.53,-13.36l-0.56 -0.95 41.15 -41.14 0.99 1.27c12.07,15.59 19.76,34.13 22.23,53.64l0.21 1.6zm-61.01 39.65l37.31 37.3c10.87,-14.48 17.92,-31.48 20.46,-49.37l-52.78 0c-1.19,4.22 -2.87,8.27 -4.99,12.06zm37.59 41.61l-41.15 -41.14 0.56 -0.95c2.43,-4.15 4.3,-8.65 5.53,-13.36l0.28 -1.06 58.2 0 -0.21 1.6c-2.47,19.51 -10.16,38.05 -22.23,53.63l-0.99 1.28zm-192.96 -53.67c2.54,17.88 9.59,34.89 20.47,49.37l37.3 -37.3c-2.12,-3.8 -3.8,-7.85 -4.99,-12.06l-52.78 0zm20.18 53.67l-0.99 -1.27c-12.07,-15.59 -19.76,-34.13 -22.23,-53.65l-0.21 -1.6 58.2 0 0.28 1.07c1.23,4.71 3.09,9.2 5.53,13.36l0.55 0.95 -41.14 41.14zm21.8 17.21c14.49,10.88 31.48,17.93 49.37,20.47l0 -52.78c-4.22,-1.19 -8.26,-2.87 -12.06,-4.99l-37.31 37.3zm52.21 23.71l-1.6 -0.21c-19.5,-2.47 -38.05,-10.16 -53.64,-22.23l-1.27 -0.99 41.14 -41.14 0.95 0.56c4.16,2.43 8.65,4.3 13.36,5.53l1.06 0.28 0 58.21zm27.59 -56.02l0 52.78c17.88,-2.54 34.89,-9.59 49.37,-20.47l-37.31 -37.3c-3.8,2.12 -7.84,3.8 -12.06,4.99zm-2.84 56.02l0 -58.21 1.06 -0.28c4.7,-1.23 9.2,-3.09 13.36,-5.53l0.95 -0.56 41.14 41.14 -1.27 0.99c-15.59,12.07 -34.14,19.76 -53.64,22.23l-1.6 0.21zm-12.37 -243.3c-73.6,0 -133.49,59.88 -133.49,133.49 0,73.61 59.88,133.49 133.49,133.49 73.61,0 133.48,-59.88 133.48,-133.49 0,-73.61 -59.88,-133.49 -133.48,-133.49zm0 269.82c-75.18,0 -136.33,-61.17 -136.33,-136.34 0,-75.17 61.16,-136.34 136.33,-136.34 75.17,0 136.34,61.17 136.34,136.34 0,75.17 -61.16,136.34 -136.34,136.34z"/>
   <path class="fil0" d="M538.98 503.31c-59.58,0 -108.04,48.46 -108.04,108.04 0,59.58 48.46,108.04 108.04,108.04 59.58,0 108.04,-48.46 108.04,-108.04 0,-59.58 -48.46,-108.04 -108.04,-108.04zm0 218.93c-61.14,0 -110.9,-49.74 -110.9,-110.89 0,-61.14 49.75,-110.89 110.9,-110.89 61.14,0 110.89,49.75 110.89,110.89 0,61.14 -49.75,110.89 -110.89,110.89z"/>
   <path class="fil0" d="M538.98 571.69c-21.87,0 -39.66,17.79 -39.66,39.66 0,21.87 17.79,39.66 39.66,39.66 21.87,0 39.66,-17.79 39.66,-39.66 0,-21.87 -17.79,-39.66 -39.66,-39.66zm0 82.16c-23.44,0 -42.51,-19.07 -42.51,-42.51 0,-23.44 19.07,-42.5 42.51,-42.5 23.44,0 42.5,19.06 42.5,42.5 0,23.44 -19.07,42.51 -42.5,42.51z"/>
   <path class="fil0" d="M538.98 440.16c-94.4,0 -171.19,76.79 -171.19,171.19 0,94.4 76.8,171.19 171.19,171.19 94.39,0 171.19,-76.79 171.19,-171.19 0,-94.4 -76.8,-171.19 -171.19,-171.19zm0 349.49c-98.31,0 -178.3,-79.99 -178.3,-178.3 0,-98.31 79.99,-178.3 178.3,-178.3 98.31,0 178.3,79.99 178.3,178.3 0,98.31 -79.99,178.3 -178.3,178.3z"/>
   <path class="fil0" d="M1994.33 426.41c-101.97,0 -184.94,82.97 -184.94,184.94 0,101.98 82.97,184.94 184.94,184.94 101.98,0 184.94,-82.97 184.94,-184.94 0,-101.98 -82.96,-184.94 -184.94,-184.94zm0 377c-105.89,0 -192.05,-86.16 -192.05,-192.06 0,-105.89 86.15,-192.06 192.05,-192.06 105.89,0 192.05,86.16 192.05,192.06 0,105.89 -86.16,192.06 -192.05,192.06z"/>
   <path class="fil0" d="M1929.75 525.24l37.31 37.31c3.8,-2.12 7.84,-3.8 12.05,-4.99l0 -52.78c-17.88,2.54 -34.88,9.59 -49.37,20.46zm36.84 40.86l-41.14 -41.14 1.28 -0.99c15.57,-12.07 34.11,-19.76 53.63,-22.23l1.6 -0.21 0 58.21 -1.06 0.28c-4.7,1.23 -9.19,3.09 -13.35,5.53l-0.95 0.55zm42.96 -8.54c4.22,1.19 8.26,2.87 12.06,4.99l37.31 -37.3c-14.49,-10.88 -31.49,-17.93 -49.37,-20.47l0 52.78zm12.53 8.54l-0.95 -0.55c-4.16,-2.44 -8.65,-4.3 -13.36,-5.53l-1.06 -0.28 0 -58.21 1.6 0.21c19.51,2.47 38.05,10.16 53.63,22.23l1.28 0.99 -41.14 41.14zm-134.32 30.02l52.78 0c1.19,-4.2 2.86,-8.26 4.99,-12.05l-37.3 -37.3c-10.87,14.47 -17.92,31.48 -20.47,49.36zm54.97 2.85l-58.21 0 0.2 -1.6c2.47,-19.51 10.15,-38.06 22.23,-53.64l0.99 -1.27 41.15 41.14 -0.56 0.95c-2.45,4.16 -4.29,8.66 -5.53,13.36l-0.28 1.07zm105.4 -2.85l52.78 0c-2.55,-17.88 -9.59,-34.88 -20.47,-49.36l-37.31 37.3c2.13,3.79 3.81,7.85 4.99,12.05zm56.02 2.85l-58.21 0 -0.28 -1.07c-1.23,-4.71 -3.09,-9.2 -5.53,-13.36l-0.55 -0.95 41.15 -41.14 0.99 1.27c12.07,15.58 19.76,34.13 22.23,53.64l0.2 1.6zm-61.01 39.65l37.31 37.3c10.87,-14.47 17.92,-31.48 20.47,-49.37l-52.78 0c-1.19,4.22 -2.87,8.26 -4.99,12.06zm37.59 41.61l-41.15 -41.14 0.55 -0.95c2.45,-4.16 4.3,-8.66 5.53,-13.35l0.28 -1.07 58.21 0 -0.2 1.6c-2.48,19.51 -10.16,38.06 -22.23,53.63l-0.99 1.28zm-192.96 -53.67c2.54,17.88 9.59,34.88 20.47,49.37l37.3 -37.3c-2.13,-3.81 -3.8,-7.85 -4.99,-12.06l-52.78 0zm20.18 53.67l-0.99 -1.27c-12.08,-15.59 -19.77,-34.14 -22.23,-53.65l-0.2 -1.6 58.21 0 0.28 1.07c1.23,4.7 3.08,9.2 5.53,13.36l0.56 0.95 -41.15 41.14zm101.61 -15.1l0 52.78c17.88,-2.54 34.88,-9.59 49.37,-20.47l-37.31 -37.3c-3.8,2.12 -7.84,3.8 -12.06,4.99zm-2.84 56.02l0 -58.21 1.06 -0.28c4.71,-1.23 9.2,-3.09 13.36,-5.53l0.95 -0.56 41.14 41.14 -1.28 0.99c-15.58,12.07 -34.13,19.76 -53.63,22.23l-1.6 0.21zm-76.97 -23.71c14.49,10.88 31.49,17.93 49.37,20.47l0 -52.78c-4.21,-1.19 -8.26,-2.87 -12.05,-4.99l-37.32 37.3zm52.22 23.71l-1.6 -0.21c-19.5,-2.47 -38.05,-10.16 -53.63,-22.23l-1.28 -0.99 41.14 -41.14 0.95 0.56c4.16,2.43 8.66,4.3 13.35,5.53l1.06 0.28 0 58.21zm12.37 -243.3c-73.6,0 -133.49,59.88 -133.49,133.49 0,73.61 59.89,133.49 133.49,133.49 73.61,0 133.49,-59.88 133.49,-133.49 0,-73.61 -59.88,-133.49 -133.49,-133.49zm0 269.82c-75.17,0 -136.33,-61.17 -136.33,-136.34 0,-75.17 61.16,-136.34 136.33,-136.34 75.17,0 136.33,61.17 136.33,136.34 0,75.17 -61.16,136.34 -136.33,136.34z"/>
   <path class="fil0" d="M1994.33 503.31c-59.57,0 -108.04,48.46 -108.04,108.04 0,59.58 48.47,108.04 108.04,108.04 59.57,0 108.04,-48.46 108.04,-108.04 0,-59.58 -48.47,-108.04 -108.04,-108.04zm0 218.93c-61.14,0 -110.89,-49.74 -110.89,-110.89 0,-61.14 49.74,-110.89 110.89,-110.89 61.14,0 110.89,49.75 110.89,110.89 0,61.14 -49.74,110.89 -110.89,110.89z"/>
   <path class="fil0" d="M1994.33 571.69c-21.87,0 -39.66,17.79 -39.66,39.66 0,21.87 17.79,39.66 39.66,39.66 21.88,0 39.67,-17.79 39.67,-39.66 0,-21.87 -17.79,-39.66 -39.67,-39.66zm0 82.16c-23.43,0 -42.5,-19.07 -42.5,-42.51 0,-23.44 19.07,-42.5 42.5,-42.5 23.44,0 42.51,19.06 42.51,42.5 0,23.44 -19.07,42.51 -42.51,42.51z"/>
   <path class="fil0" d="M1994.33 440.16c-94.39,0 -171.19,76.79 -171.19,171.19 0,94.4 76.8,171.19 171.19,171.19 94.4,0 171.2,-76.79 171.2,-171.19 0,-94.4 -76.79,-171.19 -171.2,-171.19zm0 349.49c-98.31,0 -178.3,-79.99 -178.3,-178.3 0,-98.31 79.99,-178.3 178.3,-178.3 98.32,0 178.31,79.99 178.31,178.3 0,98.31 -79.99,178.3 -178.31,178.3z"/>
   <path class="fil0" d="M2214.29 661.69l208.58 0c42.24,0 88.61,-6.03 104.32,-78.05 12.2,-55.88 13.6,-85.8 4.57,-97.02 -3.65,-4.53 -9.27,-6.46 -18.78,-6.46l-2.85 0 -0.62 -2.79c-4.99,-22.47 -26.91,-90.03 -61.14,-105.32 -51.67,-23.08 -200.8,-71.25 -618.91,-134.47 -22.07,-3.33 -61.31,-24.53 -115.63,-53.87 -94.33,-50.95 -223.5,-120.72 -367.21,-154.96 -53.49,-12.74 -176.27,-21.64 -298.59,-21.64 -94.75,0 -169.98,5.27 -211.82,14.83 -102.69,23.47 -255.91,88.06 -347.45,126.65 -43.46,18.32 -74.86,31.55 -84.51,33.64 -5.58,1.2 -20.18,3.01 -40.39,5.5 -74.54,9.19 -272.54,33.62 -281.91,72.17 -12.46,51.29 -27.02,181.22 -27.02,189.76 0,4.82 -5.33,6.09 -11.5,7.56 -8.45,2.01 -15.45,4.12 -15.45,9.46 0,4.23 -0.04,8.74 -0.08,13.51 -0.4,43.01 -1,108 28.94,152.02 7.81,11.49 140.62,22.9 262.96,27.93l2.7 -48.97c-0.01,-119.19 97.11,-216.31 216.49,-216.31 119.38,0 216.49,97.12 216.49,216.5l0 50.34 1019.56 0 -0.44 -50.3c0,-121.2 98.58,-219.77 219.74,-219.77 121.17,0 219.75,98.58 219.75,219.74l0.21 50.34zm208.58 7.11l-215.66 0 -0.24 -57.44c0,-117.26 -95.38,-212.64 -212.63,-212.64 -117.24,0 -212.63,95.39 -212.63,212.63l0.5 57.45 -1033.85 0 0 -57.45c0,-115.46 -93.92,-209.39 -209.38,-209.39 -115.46,0 -209.39,93.93 -209.39,209.39l-3.08 56.16 -3.5 -0.14c-43.07,-1.73 -258.58,-11.37 -272.05,-31.17 -31.19,-45.87 -30.58,-112.2 -30.17,-156.09 0.04,-4.74 0.09,-9.24 0.09,-13.44 0,-11.39 12.58,-14.38 20.92,-16.38 2.08,-0.5 4.82,-1.14 6.06,-1.71 0.71,-16.61 15.07,-140.45 27.2,-190.37 9.25,-38.07 143.86,-59.77 287.95,-77.54 20.02,-2.47 34.48,-4.26 39.75,-5.39 9,-1.95 41.77,-15.76 83.24,-33.24 91.76,-38.68 245.33,-103.41 348.63,-127.02 42.35,-9.69 118.14,-15.01 213.41,-15.01 122.8,0 246.27,8.98 300.24,21.84 144.62,34.45 274.28,104.49 368.95,155.62 51.66,27.9 92.47,49.94 113.31,53.1 418.93,63.35 568.74,111.77 620.74,135.01 39.6,17.69 60.58,92.26 64.5,107.54 7.35,0.28 15.77,1.91 21.53,9.07 10.79,13.41 9.88,43.24 -3.16,102.99 -16.04,73.51 -62.96,83.64 -111.27,83.64z"/>
   <path class="fil0" d="M784.86 611.35l-2.84 0c0,-134.01 -109.02,-243.03 -243.03,-243.03 -79.85,0 -155.09,39.62 -201.26,105.97l-2.33 -1.63c46.7,-67.12 122.8,-107.2 203.59,-107.2 135.58,0 245.88,110.31 245.88,245.89z"/>
   <path class="fil0" d="M1748.06 611.35l-2.85 0c0,-137.37 111.76,-249.13 249.12,-249.13 82.98,0 163.42,43.53 209.94,113.6l-2.37 1.58c-45.99,-69.29 -125.51,-112.33 -207.56,-112.33 -135.79,0 -246.27,110.49 -246.27,246.28z"/>
   <path class="fil0" d="M807.21 608.53c-0.9,-87.24 -41.04,-166.92 -107.37,-213.14 -34.61,-24.12 -54.46,-102.71 -54.46,-215.63l2.84 0c0,111.97 19.41,189.72 53.25,213.3 67.09,46.73 107.69,127.28 108.6,215.44l-2.85 0.03z"/>
   <path class="fil0" d="M2508.82 462.9c-47.07,0 -192.13,-18.13 -192.13,-40.29 0,-41.49 43.21,-55.33 54.81,-55.33l78.45 0 0 2.85 -78.45 0c-10.58,0 -51.97,13.69 -51.97,52.47 0,17.46 134.36,37.44 189.29,37.44l0 2.85z"/>
   <path class="fil0" d="M1748.06 611.35l-2.85 0c0,-333.51 -46.65,-349.61 -47.12,-349.73l-10.66 -2.8 10.98 -0.01c108.78,0 624.36,94.96 673.47,108.54 41.06,13.47 54.37,85.36 54.92,88.42l-2.81 0.5c-0.12,-0.73 -13.55,-73.27 -52.94,-86.19 -48.31,-13.37 -549.76,-105.8 -667.86,-108.36 12.24,11.51 44.87,68.56 44.87,349.65z"/>
   <path class="fil0" d="M2523.53 611.98l-117 0 0 -1.42c0,-24.15 26.83,-55.32 55.33,-55.32l74.21 0 0 2.84 -74.21 0c-26.48,0 -51.43,28.36 -52.45,51.05l114.11 0 0 2.84z"/>
   <path class="fil0" d="M1639.39 181.49c-28.27,0 -47.98,17.62 -47.98,33.44 0,21.2 27.83,43.71 79.42,43.71l24.7 0.15 -26.13 -34.39 0 -0.48c0,-29.15 -15.55,-42.43 -30.02,-42.43zm61.91 80.17l-30.47 -0.18c-53.42,0 -82.26,-23.99 -82.26,-46.56 0,-17.16 20.87,-36.29 50.82,-36.29 15.75,0 32.68,14.03 32.87,44.8l29.04 38.22z"/>
   <polygon class="fil0" points="373.98,478.02 51.26,451.08 51.49,448.24 374.22,475.19 "/>
   <path class="fil0" d="M374.44 482.76c-156.14,0 -348.32,-12.42 -350.24,-12.54l0.46 -7.1c1.92,0.12 193.87,12.53 349.78,12.53l0 7.11z"/>
   <polygon class="fil0" points="751.92,614.91 1778.15,614.91 1778.15,607.79 751.92,607.79 "/>
   <polygon class="fil0" points="2163.35,480.16 2512.98,480.16 2512.98,473.05 2163.35,473.05 "/>
   <path class="fil0" d="M1637.93 258c-6.67,-0.23 -669.34,-22.39 -802.89,-22.39 -140.17,0 -189.69,-44.49 -189.69,-55.85 0,-38.91 186.84,-131.69 270.73,-142.55 99.64,-12.91 271.4,-8.71 350.67,-0.01 160.24,17.59 335.59,152.07 337.34,153.43l-1.74 2.25c-1.75,-1.35 -176.48,-135.35 -335.91,-152.84 -79.11,-8.68 -250.55,-12.88 -350,-0.01 -90.25,11.69 -268.24,104.41 -268.24,139.73 0,9.36 48.67,53 186.83,53 133.61,0 796.32,22.17 802.99,22.39l-0.1 2.84z"/>
   <path class="fil0" d="M159.44 383.1c-23.29,0 -99.46,-0.28 -99.46,-0.28l0.01 -2.84c0,0 76.16,0.28 99.45,0.28 1.37,0 2.46,-1.7 3.12,-3.13 7.29,-15.7 3.09,-83.01 -22.05,-113.49l-62.47 0 0 -2.84 63.8 0 0.43 0.51c24.81,29.38 31.35,98.79 22.88,117.02 -1.47,3.17 -3.39,4.77 -5.7,4.77z"/>
   <polygon class="fil0" points="68.09,316.34 161.7,316.34 161.7,313.49 68.09,313.49 "/>
   <polygon class="fil0" points="64.08,343.28 166.79,343.28 166.79,340.43 64.08,340.43 "/>
   <path class="fil0" d="M2371.31 370.22c-782.37,-105.57 -2203.24,-106.58 -2229.87,-106.58 -0.11,0 -0.21,0 -0.27,0l-5.71 0 5.05 -2.67c1.55,-0.82 159.59,-82.63 506.29,-82.63l0 2.84c-310.04,0 -468.73,65.46 -499.41,79.63 103.95,0.15 1464.82,4.12 2224.31,106.59l-0.38 2.82z"/>
   <path class="fil0" d="M1106.22 238.63l78.7 1.32 -42.4 -207.49 -51.19 0.73 14.89 205.45zm82.19 4.22l-84.84 -1.42 -0.09 -1.29 -15.21 -209.75 56.56 -0.81 43.58 213.27z"/>
   <path class="fil0" d="M1167.01 611.35l-2.85 0c0,-153.38 -48.36,-575.52 -48.84,-579.76l2.82 -0.33c0.49,4.25 48.87,426.55 48.87,580.09z"/>
   <polygon class="fil0" points="825.33,232.4 817.43,67.35 820.27,67.21 828.17,232.26 "/>
   <path class="fil0" d="M687.01 289.39c-6.16,0 -11.19,5.02 -11.19,11.19l0 1.73c0,6.17 5.02,11.19 11.19,11.19l84.06 0c6.16,0 11.18,-5.02 11.18,-11.19l0 -1.73c0,-6.16 -5.01,-11.19 -11.18,-11.19l-84.06 0zm84.06 26.95l-84.06 0c-7.74,0 -14.03,-6.3 -14.03,-14.04l0 -1.73c0,-7.74 6.29,-14.03 14.03,-14.03l84.06 0c7.73,0 14.03,6.29 14.03,14.03l0 1.73c0,7.74 -6.3,14.04 -14.03,14.04z"/>
   <path class="fil0" d="M758.45 327.6l-47.8 0c-7.74,0 -14.03,-6.29 -14.03,-14.03l0 -25.61 2.85 0 0 25.61c0,6.16 5.01,11.19 11.18,11.19l47.8 0c6.17,0 11.19,-5.02 11.19,-11.19l0 -25.61 2.85 0 0 25.61c0,7.74 -6.3,14.03 -14.04,14.03z"/>
   <path class="fil0" d="M1173.2 289.39c-6.16,0 -11.19,5.02 -11.19,11.19l0 1.73c0,6.17 5.02,11.19 11.19,11.19l84.05 0c6.17,0 11.19,-5.02 11.19,-11.19l0 -1.73c0,-6.16 -5.02,-11.19 -11.19,-11.19l-84.05 0zm84.05 26.95l-84.05 0c-7.74,0 -14.03,-6.3 -14.03,-14.04l0 -1.73c0,-7.74 6.29,-14.03 14.03,-14.03l84.05 0c7.74,0 14.03,6.29 14.03,14.03l0 1.73c0,7.74 -6.29,14.04 -14.03,14.04z"/>
   <path class="fil0" d="M1244.64 327.6l-47.8 0c-7.74,0 -14.03,-6.29 -14.03,-14.03l0 -25.61 2.84 0 0 25.61c0,6.16 5.02,11.19 11.19,11.19l47.8 0c6.17,0 11.19,-5.02 11.19,-11.19l0 -25.61 2.84 0 0 25.61c0,7.74 -6.29,14.03 -14.03,14.03z"/>
   <path class="fil0" d="M1704.07 262.78c-2.32,0 -4.64,-0.06 -7,-0.19l0.15 -2.84c57.82,3.06 107,-34.11 107.48,-34.5l1.74 2.26c-0.48,0.36 -46.49,35.26 -102.37,35.26z"/>
   <path class="fil0" d="M1758.91 251.81c-2.51,-1.9 -253.28,-191 -502.96,-238.11l0.53 -2.79c250.35,47.24 501.65,236.74 504.16,238.65l-1.72 2.26z"/>
   <polygon class="fil0" points="-0,2839.23 2587.1,2839.23 2587.1,2836.38 -0,2836.38 "/>
   <polygon class="fil0" points="2046.69,2883.72 2049.53,2883.72 2049.53,2331.09 2046.69,2331.09 "/>
   <polygon class="fil0" points="591.45,2889.45 594.3,2889.45 594.3,2396.23 591.45,2396.23 "/>
   <polygon class="fil0" points="1742.49,2650.59 1742.49,2647.75 2328.74,2647.74 2328.74,2650.58 "/>
   <polygon class="fil0" points="311.52,2650.59 311.52,2647.75 897.77,2647.74 897.77,2650.58 "/>
   <path class="fil0" d="M2048.12 2464.23c-101.98,0 -184.94,82.96 -184.94,184.94 0,101.98 82.97,184.94 184.94,184.94 101.98,0 184.94,-82.97 184.94,-184.94 0,-101.97 -82.97,-184.94 -184.94,-184.94zm0 376.99c-105.9,0 -192.06,-86.15 -192.06,-192.06 0,-105.89 86.15,-192.05 192.06,-192.05 105.9,0 192.06,86.16 192.06,192.05 0,105.9 -86.15,192.06 -192.06,192.06z"/>
   <path class="fil0" d="M1983.52 2563.06l37.31 37.31c3.8,-2.13 7.85,-3.81 12.05,-4.99l0 -52.78c-17.87,2.54 -34.88,9.59 -49.37,20.47zm36.85 40.87l-41.15 -41.15 1.28 -0.99c15.59,-12.08 34.13,-19.76 53.63,-22.23l1.61 -0.2 0 58.2 -1.07 0.27c-4.7,1.23 -9.19,3.09 -13.35,5.54l-0.95 0.55zm42.96 -8.56c4.21,1.2 8.26,2.86 12.06,4.99l37.31 -37.31c-14.48,-10.88 -31.49,-17.93 -49.37,-20.47l0 52.78zm12.52 8.56l-0.95 -0.55c-4.15,-2.45 -8.66,-4.31 -13.36,-5.54l-1.07 -0.27 0 -58.2 1.61 0.2c19.51,2.47 38.05,10.16 53.63,22.23l1.27 0.99 -41.14 41.15zm26.05 30.02l52.78 0c-2.54,-17.88 -9.59,-34.89 -20.47,-49.37l-37.3 37.3c2.12,3.8 3.8,7.85 4.99,12.06zm56.02 2.84l-58.2 0 -0.28 -1.06c-1.23,-4.72 -3.09,-9.2 -5.54,-13.35l-0.55 -0.95 41.15 -41.14 0.99 1.27c12.07,15.58 19.76,34.13 22.23,53.63l0.2 1.61zm-216.37 -2.84l52.78 0c1.19,-4.22 2.86,-8.27 4.99,-12.07l-37.3 -37.3c-10.89,14.49 -17.93,31.5 -20.47,49.37zm54.96 2.85l-58.2 0 0.2 -1.61c2.46,-19.49 10.15,-38.04 22.23,-53.63l0.99 -1.27 41.15 41.14 -0.55 0.95c-2.45,4.16 -4.3,8.65 -5.53,13.35l-0.28 1.07zm100.41 39.65l37.3 37.31c10.88,-14.48 17.93,-31.49 20.47,-49.37l-52.78 0c-1.19,4.21 -2.87,8.26 -4.99,12.06zm37.59 41.61l-41.15 -41.14 0.55 -0.95c2.45,-4.17 4.32,-8.66 5.54,-13.36l0.28 -1.07 58.2 0 -0.2 1.61c-2.48,19.51 -10.16,38.06 -22.23,53.63l-0.99 1.28zm-192.96 -53.67c2.53,17.88 9.58,34.88 20.47,49.37l37.3 -37.31c-2.13,-3.79 -3.8,-7.84 -4.99,-12.06l-52.78 0zm20.18 53.67l-0.99 -1.28c-12.08,-15.59 -19.77,-34.14 -22.23,-53.63l-0.2 -1.61 58.2 0 0.28 1.07c1.23,4.71 3.09,9.2 5.53,13.35l0.55 0.95 -41.15 41.15zm101.61 -15.1l0 52.77c17.87,-2.53 34.88,-9.58 49.37,-20.46l-37.31 -37.31c-3.8,2.12 -7.85,3.8 -12.06,4.99zm-2.85 56.02l0 -58.21 1.07 -0.27c4.7,-1.23 9.2,-3.09 13.36,-5.53l0.95 -0.56 41.14 41.15 -1.27 0.98c-15.6,12.08 -34.14,19.78 -53.63,22.23l-1.61 0.21zm-76.95 -23.7c14.48,10.88 31.48,17.92 49.36,20.46l0 -52.77c-4.2,-1.19 -8.26,-2.87 -12.05,-4.99l-37.3 37.31zm52.21 23.7l-1.61 -0.21c-19.5,-2.45 -38.04,-10.15 -53.63,-22.23l-1.27 -0.99 41.14 -41.15 0.95 0.56c4.16,2.43 8.66,4.3 13.35,5.53l1.07 0.28 0 58.2zm12.37 -243.29c-73.61,0 -133.49,59.88 -133.49,133.48 0,73.61 59.89,133.5 133.49,133.5 73.61,0 133.49,-59.89 133.49,-133.5 0,-73.6 -59.88,-133.48 -133.49,-133.48zm0 269.82c-75.17,0 -136.34,-61.16 -136.34,-136.34 0,-75.17 61.17,-136.33 136.34,-136.33 75.17,0 136.33,61.16 136.33,136.33 0,75.18 -61.16,136.34 -136.33,136.34z"/>
   <path class="fil0" d="M2048.12 2541.13c-59.58,0 -108.04,48.46 -108.04,108.03 0,59.58 48.46,108.04 108.04,108.04 59.58,0 108.04,-48.47 108.04,-108.04 0,-59.57 -48.46,-108.03 -108.04,-108.03zm0 218.93c-61.15,0 -110.89,-49.74 -110.89,-110.9 0,-61.14 49.74,-110.89 110.89,-110.89 61.15,0 110.89,49.75 110.89,110.89 0,61.15 -49.74,110.9 -110.89,110.9z"/>
   <path class="fil0" d="M2048.12 2609.5c-21.87,0 -39.66,17.79 -39.66,39.66 0,21.87 17.79,39.66 39.66,39.66 21.87,0 39.66,-17.8 39.66,-39.66 0,-21.87 -17.79,-39.66 -39.66,-39.66zm0 82.17c-23.44,0 -42.51,-19.07 -42.51,-42.51 0,-23.44 19.07,-42.5 42.51,-42.5 23.44,0 42.51,19.07 42.51,42.5 0,23.44 -19.07,42.51 -42.51,42.51z"/>
   <path class="fil0" d="M2048.12 2477.97c-94.4,0 -171.19,76.79 -171.19,171.19 0,94.4 76.79,171.19 171.19,171.19 94.4,0 171.19,-76.79 171.19,-171.19 0,-94.39 -76.79,-171.19 -171.19,-171.19zm0 349.49c-98.31,0 -178.3,-79.99 -178.3,-178.3 0,-98.31 79.99,-178.3 178.3,-178.3 98.31,0 178.3,79.99 178.3,178.3 0,98.31 -79.99,178.3 -178.3,178.3z"/>
   <path class="fil0" d="M592.76 2464.23c-101.98,0 -184.94,82.96 -184.94,184.94 0,101.98 82.96,184.94 184.94,184.94 101.98,0 184.94,-82.97 184.94,-184.94 0,-101.97 -82.96,-184.94 -184.94,-184.94zm0 376.99c-105.9,0 -192.06,-86.15 -192.06,-192.06 0,-105.89 86.15,-192.05 192.06,-192.05 105.89,0 192.05,86.16 192.05,192.05 0,105.9 -86.15,192.06 -192.05,192.06z"/>
   <path class="fil0" d="M528.18 2563.06l37.3 37.31c3.8,-2.13 7.84,-3.8 12.07,-4.99l0 -52.78c-17.88,2.54 -34.88,9.59 -49.37,20.47zm36.84 40.87l-41.14 -41.15 1.27 -0.99c15.59,-12.08 34.14,-19.76 53.64,-22.23l1.6 -0.2 0 58.2 -1.07 0.27c-4.71,1.23 -9.2,3.09 -13.36,5.54l-0.95 0.55zm42.97 -8.56c4.22,1.19 8.26,2.86 12.06,4.99l37.3 -37.31c-14.47,-10.88 -31.48,-17.93 -49.36,-20.47l0 52.78zm12.52 8.56l-0.95 -0.55c-4.15,-2.45 -8.65,-4.31 -13.35,-5.54l-1.06 -0.27 0 -58.2 1.6 0.2c19.51,2.47 38.05,10.16 53.63,22.23l1.27 0.99 -41.14 41.15zm26.05 30.02l52.78 0c-2.54,-17.88 -9.59,-34.89 -20.47,-49.37l-37.3 37.3c2.13,3.8 3.8,7.85 4.99,12.06zm56.02 2.84l-58.2 0 -0.28 -1.06c-1.24,-4.71 -3.09,-9.19 -5.53,-13.35l-0.55 -0.95 41.14 -41.14 0.99 1.27c12.08,15.58 19.77,34.12 22.23,53.63l0.21 1.61zm-216.38 -2.84l52.78 0c1.2,-4.22 2.87,-8.27 4.99,-12.07l-37.31 -37.3c-10.88,14.49 -17.93,31.49 -20.47,49.37zm54.96 2.85l-58.2 0 0.21 -1.61c2.46,-19.5 10.15,-38.05 22.23,-53.63l0.99 -1.27 41.14 41.14 -0.55 0.95c-2.44,4.16 -4.3,8.65 -5.53,13.35l-0.28 1.07zm100.41 39.65l37.3 37.31c10.88,-14.49 17.93,-31.49 20.47,-49.37l-52.78 0c-1.19,4.21 -2.86,8.26 -4.99,12.06zm37.58 41.61l-41.14 -41.14 0.55 -0.95c2.45,-4.17 4.3,-8.67 5.53,-13.36l0.27 -1.07 58.21 0 -0.21 1.61c-2.47,19.5 -10.16,38.05 -22.24,53.63l-0.99 1.28zm-192.96 -53.67c2.54,17.88 9.59,34.88 20.47,49.37l37.31 -37.31c-2.13,-3.79 -3.8,-7.84 -4.99,-12.06l-52.78 0zm20.19 53.67l-0.99 -1.28c-12.08,-15.58 -19.77,-34.13 -22.23,-53.63l-0.21 -1.61 58.2 0 0.28 1.07c1.24,4.71 3.09,9.2 5.53,13.35l0.55 0.95 -41.14 41.15zm21.8 17.22c14.49,10.88 31.49,17.92 49.37,20.46l0 -52.77c-4.23,-1.19 -8.27,-2.87 -12.07,-4.99l-37.3 37.31zm52.21 23.7l-1.6 -0.21c-19.5,-2.45 -38.05,-10.15 -53.64,-22.23l-1.27 -0.98 41.14 -41.15 0.95 0.56c4.16,2.43 8.65,4.3 13.37,5.53l1.06 0.28 0 58.2zm27.59 -56.02l0 52.77c17.87,-2.53 34.88,-9.58 49.36,-20.46l-37.3 -37.31c-3.81,2.12 -7.85,3.8 -12.06,4.99zm-2.85 56.02l0 -58.21 1.06 -0.27c4.7,-1.23 9.19,-3.09 13.36,-5.53l0.95 -0.56 41.15 41.15 -1.28 0.98c-15.59,12.08 -34.14,19.78 -53.63,22.23l-1.6 0.21zm-12.37 -243.29c-73.61,0 -133.49,59.88 -133.49,133.48 0,73.61 59.88,133.5 133.49,133.5 73.6,0 133.49,-59.89 133.49,-133.5 0,-73.6 -59.88,-133.48 -133.49,-133.48zm0 269.82c-75.18,0 -136.34,-61.16 -136.34,-136.34 0,-75.17 61.16,-136.33 136.34,-136.33 75.17,0 136.33,61.16 136.33,136.33 0,75.18 -61.16,136.34 -136.33,136.34z"/>
   <path class="fil0" d="M592.76 2541.13c-59.58,0 -108.05,48.46 -108.05,108.03 0,59.58 48.47,108.04 108.05,108.04 59.57,0 108.04,-48.47 108.04,-108.04 0,-59.57 -48.47,-108.03 -108.04,-108.03zm0 218.93c-61.14,0 -110.89,-49.74 -110.89,-110.9 0,-61.14 49.75,-110.89 110.89,-110.89 61.14,0 110.89,49.75 110.89,110.89 0,61.15 -49.74,110.9 -110.89,110.9z"/>
   <path class="fil0" d="M592.76 2609.5c-21.87,0 -39.66,17.79 -39.66,39.66 0,21.87 17.79,39.66 39.66,39.66 21.87,0 39.65,-17.8 39.65,-39.66 0,-21.87 -17.79,-39.66 -39.65,-39.66zm0 82.17c-23.44,0 -42.51,-19.07 -42.51,-42.51 0,-23.44 19.07,-42.5 42.51,-42.5 23.43,0 42.51,19.07 42.51,42.5 0,23.44 -19.07,42.51 -42.51,42.51z"/>
   <path class="fil0" d="M592.76 2477.97c-94.4,0 -171.2,76.79 -171.2,171.19 0,94.4 76.8,171.19 171.2,171.19 94.4,0 171.19,-76.79 171.19,-171.19 0,-94.39 -76.79,-171.19 -171.19,-171.19zm0 349.49c-98.31,0 -178.31,-79.99 -178.31,-178.3 0,-98.31 80,-178.3 178.31,-178.3 98.31,0 178.3,79.99 178.3,178.3 0,98.31 -79.99,178.3 -178.3,178.3z"/>
   <path class="fil0" d="M812.05 2699.51l1019.57 0 0 -50.34c0,-119.37 97.12,-216.49 216.5,-216.49 119.38,0 216.5,97.12 216.5,216.49l2.68 48.79c122.33,-5.03 255.15,-16.45 262.97,-27.93 29.93,-44.04 29.33,-109.02 28.93,-152.03 -0.04,-4.76 -0.08,-9.28 -0.08,-13.51 0,-5.33 -7,-7.44 -15.45,-9.46 -6.17,-1.47 -11.5,-2.74 -11.5,-7.55 0,-8.53 -14.56,-138.47 -27.02,-189.77 -9.37,-38.54 -207.37,-62.97 -281.91,-72.17 -20.2,-2.5 -34.8,-4.3 -40.38,-5.51 -9.65,-2.08 -41.05,-15.31 -84.51,-33.64 -91.55,-38.59 -244.75,-103.17 -347.45,-126.64 -41.84,-9.56 -117.07,-14.83 -211.8,-14.83 -122.33,0 -245.12,8.9 -298.61,21.65 -143.72,34.25 -272.9,104.02 -367.23,154.95 -54.32,29.34 -93.56,50.54 -115.62,53.88 -418.07,63.21 -567.21,111.39 -618.9,134.47 -34.18,15.26 -56.15,82.85 -61.15,105.32l-0.62 2.79 -2.85 0c-9.51,0 -15.13,1.93 -18.78,6.46 -9.03,11.22 -7.63,41.14 4.56,97.02 15.72,72.01 62.09,78.04 104.33,78.04l208.58 0 0.22 -50.36c0,-121.15 98.57,-219.72 219.74,-219.72 121.16,0 219.74,98.57 219.74,219.74l-0.45 50.34zm1026.68 7.11l-1033.85 0 0.51 -57.49c0,-117.21 -95.39,-212.59 -212.63,-212.59 -117.25,0 -212.63,95.38 -212.63,212.62l-0.24 57.45 -215.67 0c-48.31,0 -95.23,-10.13 -111.27,-83.64 -13.04,-59.76 -13.95,-89.6 -3.15,-103 5.76,-7.15 14.18,-8.77 21.53,-9.06 3.92,-15.28 24.95,-89.87 64.5,-107.54 52.02,-23.24 201.84,-71.67 620.74,-135.01 20.85,-3.15 61.65,-25.2 113.31,-53.09 94.67,-51.13 224.33,-121.16 368.96,-155.62 53.97,-12.86 177.43,-21.85 300.26,-21.85 95.26,0 171.04,5.33 213.39,15.01 103.29,23.61 256.86,88.34 348.61,127.02 41.49,17.49 74.26,31.3 83.26,33.24 5.27,1.14 19.74,2.92 39.75,5.4 144.1,17.78 278.71,39.48 287.96,77.55 12.12,49.91 26.48,173.76 27.2,190.37 1.24,0.56 3.98,1.21 6.06,1.71 8.33,1.98 20.91,4.99 20.91,16.37 0,4.2 0.04,8.7 0.08,13.44 0.41,43.9 1.02,110.23 -30.17,156.09 -13.47,19.8 -228.98,29.44 -272.05,31.18l-3.51 0.14 -3.07 -55.97c-0.01,-115.65 -93.94,-209.58 -209.39,-209.58 -115.45,0 -209.39,93.93 -209.39,209.38l0 57.45z"/>
   <path class="fil0" d="M1805.08 2649.16l-2.85 0c0,-135.57 110.3,-245.88 245.88,-245.88 80.78,0 156.89,40.07 203.59,107.19l-2.33 1.63c-46.17,-66.36 -121.41,-105.97 -201.26,-105.97 -134.01,0 -243.03,109.02 -243.03,243.03z"/>
   <path class="fil0" d="M841.88 2649.16l-2.84 0c0,-135.79 -110.48,-246.27 -246.28,-246.27 -82.05,0 -161.58,43.04 -207.57,112.32l-2.37 -1.56c46.5,-70.08 126.95,-113.6 209.93,-113.6 137.37,0 249.12,111.76 249.12,249.12z"/>
   <path class="fil0" d="M1779.88 2646.35l-2.84 -0.03c0.92,-88.18 41.52,-168.72 108.6,-215.45 33.84,-23.57 53.25,-101.31 53.25,-213.3l2.84 0c0,112.93 -19.86,191.51 -54.46,215.63 -66.34,46.22 -106.48,125.89 -107.38,213.15z"/>
   <path class="fil0" d="M78.27 2500.71l0 -2.84c54.92,0 189.29,-19.99 189.29,-37.45 0,-38.78 -41.39,-52.48 -51.97,-52.48l-78.46 0 0 -2.84 78.46 0c11.61,0 54.82,13.83 54.82,55.32 0,22.16 -145.07,40.29 -192.13,40.29z"/>
   <path class="fil0" d="M841.88 2649.16l-2.84 0c0,-281.08 32.63,-338.13 44.87,-349.64 -118.1,2.57 -619.55,94.99 -667.93,108.37 -39.32,12.9 -52.75,85.45 -52.88,86.18l-2.8 -0.5c0.54,-3.05 13.86,-74.95 54.85,-88.39 49.18,-13.6 564.75,-108.55 673.54,-108.55l0.28 2.82c-0.44,0.11 -47.09,16.22 -47.09,349.72z"/>
   <path class="fil0" d="M180.56 2649.8l-117 0 0 -2.85 114.12 0c-1.02,-22.7 -25.97,-51.05 -52.44,-51.05l-74.22 0 0 -2.84 74.22 0c28.49,0 55.32,31.16 55.32,55.32l0 1.42z"/>
   <path class="fil0" d="M947.7 2219.31c-14.45,0 -30.01,13.28 -30.01,42.43l0 0.48 -26.13 34.39 24.69 -0.14c51.6,0 79.43,-22.52 79.43,-43.71 0,-15.82 -19.7,-33.45 -47.99,-33.45zm-61.9 80.17l29.04 -38.22c0.17,-30.77 17.12,-44.8 32.86,-44.8 29.96,0 50.83,19.12 50.83,36.29 0,22.57 -28.83,46.56 -82.27,46.56l-30.46 0.17z"/>
   <polygon class="fil0" points="2213.11,2515.84 2212.88,2513.01 2535.6,2486.06 2535.84,2488.89 "/>
   <path class="fil0" d="M2212.66 2520.58l0 -7.11c155.91,0 347.85,-12.4 349.78,-12.53l0.46 7.1c-1.93,0.12 -194.1,12.54 -350.24,12.54z"/>
   <polygon class="fil0" points="808.94,2652.72 1835.17,2652.72 1835.17,2645.61 808.94,2645.61 "/>
   <polygon class="fil0" points="74.1,2517.98 423.75,2517.98 423.75,2510.87 74.1,2510.87 "/>
   <path class="fil0" d="M949.16 2295.82l-0.09 -2.85c6.68,-0.22 669.39,-22.39 802.99,-22.39 138.17,0 186.84,-43.66 186.84,-53.01 0,-35.32 -178,-128.03 -268.25,-139.73 -99.48,-12.87 -270.89,-8.68 -350,0.01 -159.43,17.5 -334.16,151.49 -335.91,152.85l-1.74 -2.25c1.76,-1.35 177.11,-135.84 337.35,-153.43 79.24,-8.69 251,-12.91 350.67,0.01 83.89,10.87 270.73,103.63 270.73,142.55 0,11.36 -49.51,55.85 -189.69,55.85 -133.56,0 -796.22,22.17 -802.9,22.39z"/>
   <path class="fil0" d="M2427.65 2420.93c-2.3,0 -4.23,-1.61 -5.7,-4.77 -8.47,-18.24 -1.93,-87.64 22.89,-117.03l0.43 -0.51 63.79 0 0 2.85 -62.47 0c-25.15,30.48 -29.35,97.79 -22.05,113.49 0.66,1.42 1.74,3.12 3.11,3.12 23.29,0 99.44,-0.27 99.44,-0.27l0.01 2.84c0,0 -76.17,0.28 -99.46,0.28z"/>
   <polygon class="fil0" points="2425.4,2354.15 2519,2354.15 2519,2351.3 2425.4,2351.3 "/>
   <polygon class="fil0" points="2420.31,2381.1 2523.01,2381.1 2523.01,2378.26 2420.31,2378.26 "/>
   <path class="fil0" d="M215.78 2408.03l-0.38 -2.82c759.49,-102.48 2120.37,-106.45 2224.31,-106.6 -30.68,-14.16 -189.37,-79.63 -499.41,-79.63l0 -2.84c346.71,0 504.73,81.8 506.29,82.63l5.05 2.68 -5.72 0c-14.12,0.06 -1444.22,0.54 -2230.14,106.57z"/>
   <path class="fil0" d="M1444.57 2070.27l-42.4 207.5 78.69 -1.31 14.9 -205.45 -51.19 -0.73zm-45.9 210.4l43.59 -213.28 56.56 0.8 -0.11 1.51 -15.19 209.56 -84.85 1.41z"/>
   <path class="fil0" d="M1422.94 2649.16l-2.84 0c0,-153.54 48.37,-575.83 48.87,-580.07l2.82 0.32c-0.48,4.25 -48.84,426.38 -48.84,579.75z"/>
   <polygon class="fil0" points="1761.77,2270.22 1758.92,2270.08 1766.82,2105.03 1769.67,2105.16 "/>
   <path class="fil0" d="M1816.02 2327.21c-6.17,0 -11.18,5.02 -11.18,11.18l0 1.74c0,6.17 5.01,11.18 11.18,11.18l84.05 0c6.17,0 11.19,-5.01 11.19,-11.18l0 -1.74c0,-6.16 -5.02,-11.18 -11.19,-11.18l-84.05 0zm84.05 26.95l-84.05 0c-7.74,0 -14.02,-6.29 -14.02,-14.03l0 -1.74c0,-7.73 6.29,-14.03 14.02,-14.03l84.05 0c7.74,0 14.03,6.3 14.03,14.03l0 1.74c0,7.74 -6.29,14.03 -14.03,14.03z"/>
   <path class="fil0" d="M1876.43 2365.42l-47.79 0c-7.74,0 -14.04,-6.29 -14.04,-14.03l0 -25.61 2.85 0 0 25.61c0,6.16 5.02,11.18 11.19,11.18l47.79 0c6.17,0 11.19,-5.01 11.19,-11.18l0 -25.61 2.84 0 0 25.61c0,7.74 -6.3,14.03 -14.04,14.03z"/>
   <path class="fil0" d="M1329.85 2327.21c-6.16,0 -11.19,5.02 -11.19,11.18l0 1.74c0,6.17 5.02,11.18 11.19,11.18l84.05 0c6.17,0 11.19,-5.01 11.19,-11.18l0 -1.74c0,-6.16 -5.01,-11.18 -11.19,-11.18l-84.05 0zm84.05 26.95l-84.05 0c-7.74,0 -14.04,-6.29 -14.04,-14.03l0 -1.74c0,-7.73 6.3,-14.03 14.04,-14.03l84.05 0c7.74,0 14.03,6.3 14.03,14.03l0 1.74c0,7.74 -6.29,14.03 -14.03,14.03z"/>
   <path class="fil0" d="M1390.26 2365.42l-47.8 0c-7.74,0 -14.03,-6.29 -14.03,-14.03l0 -25.61 2.84 0 0 25.61c0,6.16 5.01,11.18 11.19,11.18l47.8 0c6.16,0 11.19,-5.01 11.19,-11.18l0 -25.61 2.84 0 0 25.61c0,7.74 -6.29,14.03 -14.03,14.03z"/>
   <path class="fil0" d="M883.02 2300.6c-55.88,0 -101.9,-34.9 -102.37,-35.27l1.73 -2.25c0.49,0.38 49.57,37.58 107.48,34.49l0.16 2.84c-2.35,0.12 -4.69,0.19 -7,0.19z"/>
   <path class="fil0" d="M828.18 2289.64l-1.73 -2.27c2.52,-1.91 253.8,-191.41 504.16,-238.64l0.53 2.79c-249.71,47.12 -500.46,236.22 -502.96,238.12z"/>
   <polygon class="fil0" points="1428.98,1837.46 2506.94,1837.46 2506.94,1834.61 1428.98,1834.61 "/>
   <polygon class="fil0" points="1966.53,1862.99 1969.39,1862.99 1969.39,1000.62 1966.53,1000.62 "/>
   <path class="fil0" d="M1485.04 1295.92c-38.36,-4.15 -57.01,-21.41 -57.01,-52.75 0,-27.05 29.72,-28.37 82.27,-28.37 7.3,0 12.25,4.86 14.69,14.44 1.94,7.64 1.94,16.88 1.94,23l0 0.79 -2.85 0 0 -0.8c0.01,-5.97 0.02,-15.01 -1.84,-22.29 -2.11,-8.27 -6.01,-12.29 -11.93,-12.29 -55.23,0 -79.43,2.42 -79.43,25.53 0,30.04 17.31,45.9 54.47,49.92l-0.31 2.83z"/>
   <path class="fil0" d="M2450.92 1296.02l-0.32 -2.82c37.79,-4.3 55.39,-20.19 55.39,-50.03 0,-23.11 -24.21,-25.53 -79.43,-25.53 -5.92,0 -9.83,4.03 -11.93,12.3 -1.86,7.29 -1.86,16.33 -1.85,22.31l0 0.78 -2.84 0 0 -0.78c0,-6.12 -0.01,-15.37 1.94,-23 2.44,-9.59 7.38,-14.45 14.69,-14.45 52.54,0 82.27,1.32 82.27,28.37 0,31.13 -18.94,48.41 -57.91,52.85z"/>
   <path class="fil0" d="M1509.83 1704.85c-24.48,0 -44.19,-149.37 -44.19,-273.04 0,-55.45 4.37,-119.15 14.14,-136.49 6.63,-11.76 27.82,-31.25 41.84,-44.14 4.77,-4.38 9.69,-8.91 10.45,-9.94 49.05,-81.53 120.91,-182.36 139.98,-190.01 20.94,-8.41 164.71,-12.8 295.91,-12.8l0 7.11c-149.72,0 -275.8,5.28 -293.26,12.29 -14.24,5.72 -80.07,93.21 -136.6,187.18 -0.88,1.46 -3.68,4.07 -11.66,11.41 -12.87,11.83 -34.4,31.62 -40.47,42.4 -7.79,13.82 -13.22,68.5 -13.22,133 0,145.53 24.55,265.93 37.08,265.93 33.69,0 52.37,-8.53 68.86,-16.07 12.25,-5.6 23.82,-10.88 38.93,-10.88l352.12 0 0 7.11 -352.12 0c-13.56,0 -23.95,4.74 -35.98,10.25 -16.29,7.44 -36.57,16.7 -71.81,16.7z"/>
   <path class="fil0" d="M1590.67 1236.01c-1.1,0 -2.15,-0.51 -2.83,-1.4 -0.73,-0.97 -0.93,-2.24 -0.51,-3.38 27.34,-74.34 68.54,-136.2 83.51,-151.36 13.23,-13.37 100.32,-14.1 242.33,-13.7 18.21,0.04 36.59,0.1 54.78,0.1l0 7.11c-18.2,0 -36.58,-0.06 -54.8,-0.1 -105.56,-0.33 -225.17,-0.63 -237.25,11.58 -15.14,15.31 -54.15,75.74 -79.94,143.58 32.74,-2.65 203.36,-15.79 371.99,-15.79l0 7.11c-186.34,0 -375.1,16.06 -376.98,16.22 -0.11,0.01 -0.2,0.01 -0.31,0.01z"/>
   <path class="fil0" d="M1573.33 1838.81l-46.71 0c-26.29,0 -47.68,-21.39 -47.68,-47.68l0 -174.86 7.11 0 0 174.86c0,22.37 18.2,40.57 40.57,40.57l46.71 0c22.37,0 40.57,-18.2 40.57,-40.57l0 -114.99 7.11 0 0 114.99c0,26.29 -21.38,47.68 -47.68,47.68z"/>
   <path class="fil0" d="M1589.29 1235.42c-9.66,7.97 -47.65,39.77 -66.89,62.56 -25.52,30.23 -29.8,98.21 -22.47,113.99 0.67,1.43 1.74,3.12 3.12,3.12 22.14,0 205.3,-0.24 223.26,-0.26 -5.48,-19.32 -10.72,-43.38 -16.09,-69.28 -4.63,-22.31 -9.42,-45.4 -12.03,-47.14l-84.55 0.07c-21.43,0 -24.03,-50.06 -24.34,-63.06zm378.67 224.76l-215.59 0c-9.61,0 -17.68,-16.66 -25.24,-42.51 -12.05,0.01 -201.53,0.27 -224.08,0.27 -2.31,0 -4.23,-1.6 -5.7,-4.77 -8.48,-18.23 -1.93,-87.64 22.88,-117.03 22.22,-26.31 69.07,-64.42 69.55,-64.8l2.32 -1.88 0 2.99c0,0.63 0.25,63.19 21.53,63.19l84.84 0c3.88,0 6.37,9.98 14.54,49.34 9.29,44.74 23.32,112.35 39.36,112.35l215.59 0 0 2.85z"/>
   <polygon class="fil0" points="1519.87,1298.49 1619.32,1298.49 1619.32,1295.64 1519.87,1295.64 "/>
   <polygon class="fil0" points="1496.88,1380.01 1718.56,1380.01 1718.56,1377.16 1496.88,1377.16 "/>
   <polygon class="fil0" points="1498.91,1352.13 1713.21,1352.13 1713.21,1349.29 1498.91,1349.29 "/>
   <polygon class="fil0" points="1698.47,1300.62 1967.96,1300.62 1967.96,1293.51 1698.47,1293.51 "/>
   <path class="fil0" d="M1473.15 1512.66l-2.85 0c0,-10.6 5.14,-28.37 39.53,-28.37l458.12 0 0 2.84 -458.12 0c-23.65,0 -36.69,9.06 -36.69,25.53z"/>
   <path class="fil0" d="M2426.09 1704.85c-35.24,0 -55.53,-9.26 -71.82,-16.71 -12.02,-5.5 -22.41,-10.24 -35.97,-10.24l-352.12 0 0 -7.11 352.12 0c15.1,0 26.67,5.29 38.93,10.88 16.48,7.54 35.17,16.07 68.87,16.07 12.53,0 37.08,-120.4 37.08,-265.93 0,-64.49 -5.43,-119.17 -13.23,-133 -6.07,-10.79 -27.6,-30.58 -40.47,-42.4 -7.97,-7.34 -10.77,-9.95 -11.66,-11.41 -56.53,-93.97 -122.36,-181.46 -136.6,-187.18 -17.45,-7 -143.52,-12.29 -293.25,-12.29l0 -7.11c131.2,0 274.97,4.39 295.91,12.8 19.07,7.65 90.93,108.48 140.04,190.11 0.69,0.93 5.62,5.46 10.38,9.84 14.02,12.89 35.22,32.38 41.84,44.14 9.77,17.35 14.14,81.05 14.14,136.49 0,123.67 -19.7,273.04 -44.19,273.04z"/>
   <path class="fil0" d="M2345.24 1236.01c-0.1,0 -0.2,-0.01 -0.31,-0.01 -1.88,-0.16 -190.65,-16.22 -376.98,-16.22l0 -7.11c168.63,0 339.26,13.13 371.99,15.79 -25.79,-67.85 -64.8,-128.27 -79.94,-143.58 -12.07,-12.21 -131.69,-11.89 -237.25,-11.58 -18.22,0.04 -36.6,0.1 -54.81,0.1l0 -7.11c18.2,0 36.57,-0.06 54.79,-0.1 141.91,-0.4 229.1,0.33 242.32,13.7 14.98,15.15 56.17,77.01 83.52,151.36 0.42,1.14 0.22,2.41 -0.51,3.38 -0.68,0.89 -1.73,1.4 -2.83,1.4z"/>
   <path class="fil0" d="M2209.61 1414.83c17.98,0.02 201.11,0.26 223.25,0.26 1.38,0 2.45,-1.69 3.12,-3.12 7.33,-15.79 3.05,-83.76 -22.47,-113.99 -19.24,-22.79 -57.23,-54.59 -66.89,-62.56 -0.31,13.01 -2.91,63.06 -24.33,63.06l-84.85 0c-2.32,1.67 -7.12,24.75 -11.75,47.06 -5.38,25.9 -10.61,49.96 -16.09,69.29zm-26.06 45.35l-215.59 0 0 -2.85 215.59 0c16.04,0 30.07,-67.61 39.36,-112.36 8.16,-39.35 10.66,-49.33 14.53,-49.33l84.85 0c17.66,0 21.53,-45.61 21.53,-63.19l0 -2.99 2.32 1.88c0.48,0.38 47.33,38.49 69.54,64.8 24.83,29.38 31.36,98.79 22.89,117.03 -1.47,3.16 -3.39,4.77 -5.7,4.77 -22.54,0 -211.98,-0.26 -224.07,-0.27 -7.56,25.85 -15.63,42.51 -25.25,42.51z"/>
   <polygon class="fil0" points="2316.6,1298.49 2416.05,1298.49 2416.05,1295.64 2316.6,1295.64 "/>
   <polygon class="fil0" points="2217.35,1380.01 2439.04,1380.01 2439.04,1377.16 2217.35,1377.16 "/>
   <polygon class="fil0" points="2222.7,1352.13 2437.01,1352.13 2437.01,1349.29 2222.7,1349.29 "/>
   <polygon class="fil0" points="1967.96,1300.62 2237.45,1300.62 2237.45,1293.51 1967.96,1293.51 "/>
   <path class="fil0" d="M2465.61 1512.66l-2.84 0c0,-16.47 -13.02,-25.53 -36.68,-25.53l-458.13 0 0 -2.84 458.13 0c34.38,0 39.52,17.78 39.52,28.37z"/>
   <polygon class="fil0" points="1589.25,1831.71 1592.1,1831.71 1592.1,1680.28 1589.25,1680.28 "/>
   <polygon class="fil0" points="1575.43,1835.12 1578.29,1835.12 1578.29,1686.41 1575.43,1686.41 "/>
   <polygon class="fil0" points="1562.29,1835.12 1565.14,1835.12 1565.14,1691.95 1562.29,1691.95 "/>
   <polygon class="fil0" points="1548.46,1835.12 1551.31,1835.12 1551.31,1696.43 1548.46,1696.43 "/>
   <polygon class="fil0" points="1535.63,1835.12 1538.47,1835.12 1538.47,1699.18 1535.63,1699.18 "/>
   <polygon class="fil0" points="1521.47,1835.12 1524.32,1835.12 1524.32,1699.18 1521.47,1699.18 "/>
   <polygon class="fil0" points="1493.24,1822.28 1496.09,1822.28 1496.09,1674.35 1493.24,1674.35 "/>
   <polygon class="fil0" points="1508.01,1831.78 1510.86,1831.78 1510.86,1699.18 1508.01,1699.18 "/>
   <polygon class="fil0" points="1602.4,1822.72 1605.25,1822.72 1605.25,1675.97 1602.4,1675.97 "/>
   <path class="fil0" d="M2409.3 1838.81l-46.72 0c-26.3,0 -47.68,-21.39 -47.68,-47.68l0 -114.99 7.11 0 0 114.99c0,22.37 18.2,40.57 40.57,40.57l46.72 0c22.37,0 40.57,-18.2 40.57,-40.57l0 -174.86 7.11 0 0 174.86c0,26.29 -21.39,47.68 -47.68,47.68z"/>
   <polygon class="fil0" points="2343.82,1831.71 2346.66,1831.71 2346.66,1680.28 2343.82,1680.28 "/>
   <polygon class="fil0" points="2357.63,1835.12 2360.49,1835.12 2360.49,1686.41 2357.63,1686.41 "/>
   <polygon class="fil0" points="2370.78,1835.12 2373.63,1835.12 2373.63,1691.95 2370.78,1691.95 "/>
   <polygon class="fil0" points="2384.6,1835.12 2387.45,1835.12 2387.45,1696.43 2384.6,1696.43 "/>
   <polygon class="fil0" points="2397.44,1835.12 2400.29,1835.12 2400.29,1699.18 2397.44,1699.18 "/>
   <polygon class="fil0" points="2411.59,1835.12 2414.45,1835.12 2414.45,1699.18 2411.59,1699.18 "/>
   <polygon class="fil0" points="2439.83,1822.28 2442.67,1822.28 2442.67,1674.35 2439.83,1674.35 "/>
   <polygon class="fil0" points="2425.06,1831.78 2427.9,1831.78 2427.9,1699.18 2425.06,1699.18 "/>
   <polygon class="fil0" points="2330.66,1822.72 2333.51,1822.72 2333.51,1675.97 2330.66,1675.97 "/>
  </g>
 </g>
</svg>
