<?xml version="1.0" encoding="UTF-8"?>
<!DOCTYPE svg PUBLIC "-//W3C//DTD SVG 1.1//EN" "http://www.w3.org/Graphics/SVG/1.1/DTD/svg11.dtd">
<!-- Creator: CorelDRAW -->
<svg xmlns="http://www.w3.org/2000/svg" xml:space="preserve" width="113.359mm" height="62.668mm" version="1.1" style="shape-rendering:geometricPrecision; text-rendering:geometricPrecision; image-rendering:optimizeQuality; fill-rule:evenodd; clip-rule:evenodd"
viewBox="0 0 1326.46 733.3"
 xmlns:xlink="http://www.w3.org/1999/xlink"
 xmlns:xodm="http://www.corel.com/coreldraw/odm/2003">
 <defs>
  <style type="text/css">
   <![CDATA[
    .fil0 {fill:black}
   ]]>
  </style>
 </defs>
 <g id="Слой_x0020_1">
  <metadata id="CorelCorpID_0Corel-Layer"/>
  <path class="fil0" d="M949.04 568.9c150.93,-65.95 229.94,-169.3 252.27,-202.25 -22.33,-32.95 -101.33,-136.31 -252.27,-202.25 14.98,21.16 27.68,44.09 37.77,68.43 17.12,41.32 26.57,86.53 26.57,133.82 0,47.29 -9.45,92.5 -26.57,133.82 -10.08,24.34 -22.79,47.27 -37.77,68.43zm-571.62 -404.5c-150.93,65.94 -229.94,169.3 -252.27,202.25 22.33,32.95 101.32,136.28 252.22,202.23 -40.48,-57.12 -64.28,-126.9 -64.28,-202.23 0,-47.29 9.45,-92.5 26.57,-133.82 10.08,-24.34 22.79,-47.27 37.77,-68.43zm434.16 53.9c-19.43,-19.43 -42.51,-35.03 -68.04,-45.6 -24.64,-10.2 -51.76,-15.84 -80.3,-15.84 -28.55,0 -55.67,5.63 -80.3,15.84 -25.54,10.58 -48.62,26.18 -68.04,45.6 -19.43,19.43 -35.03,42.51 -45.6,68.04 -10.2,24.64 -15.84,51.76 -15.84,80.3 0,28.55 5.63,55.67 15.84,80.3 10.58,25.54 26.18,48.62 45.6,68.04 19.43,19.43 42.51,35.03 68.04,45.6 24.64,10.2 51.76,15.84 80.3,15.84 28.55,0 55.67,-5.63 80.3,-15.84 25.54,-10.58 48.62,-26.18 68.04,-45.6 19.43,-19.43 35.03,-42.51 45.6,-68.04 10.2,-24.64 15.84,-51.76 15.84,-80.3 0,-28.55 -5.63,-55.67 -15.84,-80.3 -10.58,-25.54 -26.18,-48.62 -45.6,-68.04zm488.37 192.71l-0.02 0.03 -0.01 -0.01c-4.39,7.42 -192.43,322.27 -636.69,322.27 -444.25,0 -632.3,-314.85 -636.69,-322.27l-0.01 0.01c-8.87,-14.78 -17.69,-29.59 -26.53,-44.39 8.84,-14.8 17.66,-29.61 26.53,-44.39l0.01 0.01c4.39,-7.42 192.44,-322.27 636.69,-322.27 444.25,0 632.3,314.85 636.69,322.27l0.01 -0.01c8.87,14.78 17.69,29.59 26.53,44.39l-26.51 44.36z"/>
 </g>
</svg>
