<svg width="41" height="40" viewBox="0 0 41 40" fill="none" xmlns="http://www.w3.org/2000/svg">
<path d="M16.2434 0.00498058L17.4537 0H23.3706L24.5826 0.00498058L26.1 0.0215825L26.8189 0.0332039L27.5128 0.051466L28.1819 0.0747087L28.826 0.101272L29.447 0.136136L30.0446 0.177641L30.6174 0.227446L31.1702 0.282233C34.059 0.607631 36.0396 1.30491 37.5338 2.79909C39.0279 4.29326 39.7252 6.27221 40.0506 9.16261L40.1071 9.71545L40.1552 10.2899L40.1967 10.8875L40.2299 11.5068L40.2714 12.483L40.2913 13.1637L40.3129 14.2328L40.3279 15.7519L40.3345 17.3789L40.3328 22.8791L40.3279 24.0911L40.3113 25.6085L40.2996 26.3273L40.2814 27.0213L40.2581 27.6904L40.2316 28.3345L40.1967 28.9554L40.1552 29.5531L40.1054 30.1259L40.0506 30.6787C39.7252 33.5674 39.0279 35.5481 37.5338 37.0422C36.0396 38.5364 34.0606 39.2337 31.1702 39.5591L30.6174 39.6155L30.043 39.6637L29.4453 39.7052L28.826 39.7384L27.8498 39.7799L27.1692 39.7998L26.1 39.8214L24.5809 39.8363L22.9539 39.843L17.4537 39.8413L16.2418 39.8363L14.7244 39.8197L14.0055 39.8081L13.3115 39.7898L12.6425 39.7666L11.9983 39.74L11.3774 39.7052L10.7797 39.6637L10.207 39.6139L9.65413 39.5591C6.7654 39.2337 4.78479 38.5364 3.29061 37.0422C1.79644 35.5481 1.09916 33.5691 0.773761 30.6787L0.717315 30.1259L0.669169 29.5514L0.627664 28.9538L0.59446 28.3345L0.552955 27.3583L0.533033 26.6776L0.511451 25.6085L0.496509 24.0894L0.489868 22.4624L0.491528 16.9622L0.496509 15.7503L0.513111 14.2328L0.524732 13.514L0.542994 12.82L0.566237 12.151L0.5928 11.5068L0.627664 10.8859L0.669169 10.2882L0.718975 9.71545L0.773761 9.16261C1.09916 6.27387 1.79644 4.29326 3.29061 2.79909C4.78479 1.30491 6.76374 0.607631 9.65413 0.282233L10.207 0.225786L10.7814 0.177641L11.3791 0.136136L11.9983 0.102932L12.9745 0.0614271L13.6552 0.0415048L14.7244 0.0199223L16.2434 0.00498058ZM11.7626 12.1177H7.21365C7.42948 22.4774 12.6093 28.7031 21.6905 28.7031H22.2052V22.7762C25.5422 23.1082 28.0657 25.5487 29.0784 28.7031H33.7933C32.4984 23.9881 29.095 21.3816 26.9699 20.3855C29.095 19.157 32.0833 16.1686 32.7972 12.1177H28.5139C27.5842 15.4049 24.8283 18.3933 22.2052 18.6755V12.1177H17.9219V23.6063C15.2656 22.9422 11.912 19.7214 11.7626 12.1177Z" fill="white"/>
</svg>
