<?xml version="1.0" encoding="UTF-8"?>
<!DOCTYPE svg PUBLIC "-//W3C//DTD SVG 1.1//EN" "http://www.w3.org/Graphics/SVG/1.1/DTD/svg11.dtd">
<!-- Creator: CorelDRAW -->
<svg xmlns="http://www.w3.org/2000/svg" xml:space="preserve" width="56.5426mm" height="56.5426mm" version="1.1" style="shape-rendering:geometricPrecision; text-rendering:geometricPrecision; image-rendering:optimizeQuality; fill-rule:evenodd; clip-rule:evenodd"
viewBox="0 0 1249.62 1249.62"
 xmlns:xlink="http://www.w3.org/1999/xlink"
 xmlns:xodm="http://www.corel.com/coreldraw/odm/2003">
 <defs>
  <style type="text/css">
   <![CDATA[
    .str0 {stroke:#2B2A29;stroke-width:155.93;stroke-linecap:round;stroke-miterlimit:22.9256}
    .fil1 {fill:none}
    .fil0 {fill:#2B2A29}
   ]]>
  </style>
 </defs>
 <g id="Слой_x0020_1">
  <metadata id="CorelCorpID_0Corel-Layer"/>
  <path class="fil0" d="M624.81 0c172.53,0 328.73,69.94 441.8,183.01 2.76,2.76 5.5,5.55 8.21,8.37l-66.19 66.19c-96.71,-101.05 -232.91,-164.01 -383.83,-164.01 -293.4,0 -531.25,237.85 -531.25,531.25 0,293.4 237.85,531.25 531.25,531.25 293.4,0 531.25,-237.85 531.25,-531.25 0,-9.66 -0.26,-19.27 -0.77,-28.81l84.14 -84.14c6.69,36.63 10.19,74.38 10.19,112.94 0,172.53 -69.94,328.73 -183.01,441.8 -113.07,113.07 -269.27,183.01 -441.8,183.01 -172.53,0 -328.73,-69.94 -441.8,-183.01 -113.07,-113.07 -183.01,-269.28 -183.01,-441.8 0,-172.53 69.94,-328.73 183.01,-441.8 113.07,-113.07 269.28,-183.01 441.8,-183.01z"/>
  <polyline class="fil1 str0" points="325,584.13 624.81,883.94 1159.42,349.33 "/>
 </g>
</svg>
