<svg width="56" height="56" viewBox="0 0 56 56" fill="none" xmlns="http://www.w3.org/2000/svg">
<path fill-rule="evenodd" clip-rule="evenodd" d="M47.2996 34.0252L47.2996 10.2801C47.2995 9.52576 46.6881 8.91431 45.9337 8.91421L22.1887 8.91425L15.8281 2.55368C14.9677 1.69324 15.5771 0.22202 16.7939 0.222022L54.6259 0.221969C55.3803 0.222066 55.9918 0.833515 55.9919 1.58791L55.9918 39.4199C55.9918 40.6368 54.5206 41.2461 53.6601 40.3857L47.2996 34.0252Z" fill="#01071A"/>
<path fill-rule="evenodd" clip-rule="evenodd" d="M9.19353 22.1882L9.19354 45.9332C9.19364 46.6876 9.80509 47.2991 10.5595 47.2992L34.3045 47.2991L40.6651 53.6597C41.5255 54.5201 40.9161 55.9914 39.6993 55.9914L1.86724 55.9914C1.11285 55.9913 0.501397 55.3799 0.5013 54.6255L0.501385 16.7935C0.501347 15.5766 1.9726 14.9672 2.83303 15.8277L9.19353 22.1882Z" fill="#01071A"/>
</svg>
