<svg width="41" height="40" viewBox="0 0 41 40" fill="none" xmlns="http://www.w3.org/2000/svg">
<path d="M11.8895 0H28.6243C34.9994 0 40.1792 5.1798 40.1792 11.5549V28.2897C40.1792 31.3543 38.9618 34.2933 36.7949 36.4603C34.6279 38.6272 31.6888 39.8446 28.6243 39.8446H11.8895C5.5144 39.8446 0.334595 34.6648 0.334595 28.2897V11.5549C0.334595 8.49038 1.55199 5.55134 3.71896 3.38436C5.88593 1.21739 8.82498 0 11.8895 0ZM11.4911 3.98446C9.58895 3.98446 7.76472 4.74009 6.4197 6.0851C5.07468 7.43012 4.31906 9.25436 4.31906 11.1565V28.6881C4.31906 32.6527 7.52655 35.8602 11.4911 35.8602H29.0227C30.9249 35.8602 32.7491 35.1045 34.0941 33.7595C35.4391 32.4145 36.1948 30.5903 36.1948 28.6881V11.1565C36.1948 7.19196 32.9873 3.98446 29.0227 3.98446H11.4911ZM30.7161 6.97281C31.3766 6.97281 32.01 7.23518 32.477 7.7022C32.944 8.16922 33.2064 8.80263 33.2064 9.4631C33.2064 10.1236 32.944 10.757 32.477 11.224C32.01 11.691 31.3766 11.9534 30.7161 11.9534C30.0557 11.9534 29.4222 11.691 28.9552 11.224C28.4882 10.757 28.2258 10.1236 28.2258 9.4631C28.2258 8.80263 28.4882 8.16922 28.9552 7.7022C29.4222 7.23518 30.0557 6.97281 30.7161 6.97281ZM20.2569 9.96116C22.8988 9.96116 25.4324 11.0106 27.3005 12.8787C29.1686 14.7468 30.2181 17.2805 30.2181 19.9223C30.2181 22.5642 29.1686 25.0978 27.3005 26.9659C25.4324 28.834 22.8988 29.8835 20.2569 29.8835C17.615 29.8835 15.0814 28.834 13.2133 26.9659C11.3452 25.0978 10.2958 22.5642 10.2958 19.9223C10.2958 17.2805 11.3452 14.7468 13.2133 12.8787C15.0814 11.0106 17.615 9.96116 20.2569 9.96116ZM20.2569 13.9456C18.6718 13.9456 17.1516 14.5753 16.0307 15.6962C14.9099 16.817 14.2802 18.3372 14.2802 19.9223C14.2802 21.5074 14.9099 23.0276 16.0307 24.1485C17.1516 25.2693 18.6718 25.899 20.2569 25.899C21.842 25.899 23.3622 25.2693 24.4831 24.1485C25.6039 23.0276 26.2336 21.5074 26.2336 19.9223C26.2336 18.3372 25.6039 16.817 24.4831 15.6962C23.3622 14.5753 21.842 13.9456 20.2569 13.9456Z" fill="white"/>
</svg>
