<svg width="40" height="40" viewBox="0 0 40 40" fill="none" xmlns="http://www.w3.org/2000/svg">
<path d="M33.8678 5.7975C32.0414 3.95255 29.8658 2.48974 27.4681 1.49439C25.0704 0.49904 22.4984 -0.0089254 19.9023 0.000118676C9.02478 0.000118676 0.159378 8.86552 0.159378 19.7431C0.159378 23.2295 1.0758 26.6163 2.78912 29.6046L0 39.8446L10.4592 37.0954C13.3479 38.6692 16.5952 39.506 19.9023 39.506C30.7799 39.506 39.6453 30.6405 39.6453 19.763C39.6453 14.4836 37.5933 9.52296 33.8678 5.7975ZM19.9023 36.159C16.9538 36.159 14.0651 35.3621 11.535 33.868L10.9373 33.5094L4.72158 35.143L6.37512 29.0866L5.97668 28.469C4.33856 25.8532 3.46874 22.8295 3.46647 19.7431C3.46647 10.6984 10.8377 3.32714 19.8824 3.32714C24.2653 3.32714 28.3892 5.04045 31.4772 8.14832C33.0062 9.67031 34.2179 11.4806 35.042 13.4744C35.8662 15.4681 36.2865 17.6056 36.2784 19.763C36.3183 28.8077 28.947 36.159 19.9023 36.159ZM28.9072 23.8869C28.4091 23.6478 25.9786 22.4525 25.5403 22.2732C25.0821 22.1138 24.7634 22.0341 24.4247 22.5123C24.086 23.0103 23.1497 24.126 22.8707 24.4447C22.5918 24.7834 22.293 24.8232 21.7949 24.5643C21.2969 24.3252 19.7031 23.7873 17.8304 22.1138C16.3562 20.799 15.38 19.1853 15.0811 18.6872C14.8022 18.1891 15.0413 17.9301 15.3003 17.6712C15.5194 17.452 15.7983 17.0934 16.0374 16.8145C16.2765 16.5356 16.3761 16.3164 16.5355 15.9977C16.6949 15.659 16.6152 15.3801 16.4956 15.141C16.3761 14.902 15.38 12.4715 14.9815 11.4753C14.5831 10.5191 14.1647 10.6386 13.8659 10.6187H12.9096C12.5709 10.6187 12.053 10.7382 11.5948 11.2363C11.1565 11.7343 9.88144 12.9297 9.88144 15.3602C9.88144 17.7907 11.6545 20.1415 11.8936 20.4603C12.1327 20.799 15.38 25.7795 20.3207 27.9112C21.4961 28.4292 22.4125 28.728 23.1297 28.9472C24.3052 29.3257 25.381 29.2659 26.2376 29.1464C27.1939 29.0069 29.1662 27.951 29.5646 26.7956C29.983 25.6401 29.983 24.6639 29.8435 24.4447C29.7041 24.2256 29.4052 24.126 28.9072 23.8869Z" fill="white"/>
</svg>
