<svg width="41" height="40" viewBox="0 0 41 40" fill="none" xmlns="http://www.w3.org/2000/svg">
<path d="M20.5676 0C9.57046 0 0.645264 8.9252 0.645264 19.9223C0.645264 30.9194 9.57046 39.8446 20.5676 39.8446C31.5647 39.8446 40.4899 30.9194 40.4899 19.9223C40.4899 8.9252 31.5647 0 20.5676 0ZM29.8115 13.5472C29.5127 16.6949 28.2177 24.3451 27.5603 27.8713C27.2814 29.3655 26.7236 29.8636 26.2056 29.9233C25.0501 30.0229 24.1735 29.1663 23.0579 28.4291C21.3047 27.2737 20.3086 26.5564 18.6152 25.4408C16.6429 24.1458 17.9179 23.4286 19.0535 22.2731C19.3523 21.9743 24.4524 17.3324 24.552 16.914C24.5659 16.8507 24.564 16.7849 24.5467 16.7224C24.5293 16.6599 24.497 16.6026 24.4524 16.5554C24.3329 16.4558 24.1735 16.4957 24.0341 16.5156C23.8548 16.5554 21.0656 18.4082 15.6268 22.0739C14.83 22.6118 14.1127 22.8907 13.4752 22.8708C12.758 22.8509 11.4033 22.4724 10.3873 22.1337C9.13217 21.7352 8.15598 21.5161 8.23567 20.8188C8.27551 20.4602 8.77357 20.1016 9.70992 19.7231C15.5272 17.193 19.3922 15.5195 21.3246 14.7226C26.863 12.4116 27.9986 12.0132 28.7557 12.0132C28.915 12.0132 29.2936 12.053 29.5326 12.2522C29.7318 12.4116 29.7916 12.6307 29.8115 12.7901C29.7916 12.9097 29.8315 13.2683 29.8115 13.5472Z" fill="white"/>
</svg>
