<?xml version="1.0" encoding="UTF-8"?>
<!DOCTYPE svg PUBLIC "-//W3C//DTD SVG 1.1//EN" "http://www.w3.org/Graphics/SVG/1.1/DTD/svg11.dtd">
<!-- Creator: CorelDRAW -->
<svg xmlns="http://www.w3.org/2000/svg" xml:space="preserve" width="373.047mm" height="142mm" version="1.1" style="shape-rendering:geometricPrecision; text-rendering:geometricPrecision; image-rendering:optimizeQuality; fill-rule:evenodd; clip-rule:evenodd"
viewBox="0 0 70511.37 26840.05"
 xmlns:xlink="http://www.w3.org/1999/xlink"
 xmlns:xodm="http://www.corel.com/coreldraw/odm/2003">
 <defs>
  <style type="text/css">
   <![CDATA[
    .str0 {stroke:black;stroke-width:50.01;stroke-miterlimit:10}
    .str1 {stroke:black;stroke-width:133.37;stroke-miterlimit:10}
    .fil0 {fill:#2B2A29;fill-rule:nonzero}
    .fil1 {fill:black;fill-rule:nonzero}
   ]]>
  </style>
 </defs>
 <g id="Слой_x0020_1">
  <metadata id="CorelCorpID_0Corel-Layer"/>
  <path class="fil0" d="M3662.95 23490.41c-162.7,-115.88 -355.35,-148.49 -542.77,-195.76 -167.85,-93.01 -330.53,-199.32 -532.04,-204.65 -38.67,-0.47 -77.29,-0.93 -115.9,-1.4 -544.89,-263.26 -1100.76,-508.03 -1554.97,-923.85 -266.98,-225.06 -513.1,-470.63 -731.75,-743.28 -335.92,-790.18 -224.57,-1297.74 407.18,-1901.32 281.73,-269.14 621.54,-457.3 929.99,-688.88 502.29,-319.47 1041.91,-556.84 1609.29,-733.49l-4.46 2.14c381.47,-204.97 811.76,-277.19 1207.44,-443.67 470.42,-137.64 934.53,-297.6 1414.68,-401.09 660.53,-122.77 1307.4,-306.92 1966.26,-437.29 119.23,-23.55 242.73,-11.74 357.62,-55.95l-7.73 -1.27c330.4,-124.43 686.27,-119.82 1025.06,-201.91 15.67,11.93 29.54,10.13 41.55,-5.54 45.87,13.34 104.36,7.6 162.76,1.93 147.7,-14.46 295.39,-28.94 239.99,264.13 -14.48,7.47 -18.88,18.86 -13.14,34.08 -444.62,261.79 -952.07,299.19 -1441.37,393.81 -1158.17,224.04 -2297,522.3 -3426.21,858.9 -166.18,24.61 -327.68,66.82 -481.04,137.17 -858.3,298.11 -1717.75,593.45 -2502.48,1065.53 -324.35,195.12 -632.93,409.56 -892.28,687.96 -378.45,406.21 -413.68,789.61 -118.38,1263.58 21.49,21.13 42.64,42.87 63.13,65.02 79.42,106.21 167.33,204.44 277.1,281.39 23.4,18.94 45.16,39.33 65.29,61.73 178.32,196.78 406.55,321.67 636.79,443.9 716.08,418.74 1479.7,726.01 2269.2,972.93 60.48,21.87 121.1,43.66 180.57,68.27 133.5,55.61 265.74,115.7 414.62,117.83 478.09,150.89 958.87,291.99 1450.37,394.13 34.8,3.4 68.4,10.74 101.56,21.81 266.04,111.76 559.5,119.02 829.02,219.05 1488.3,334.67 2986.36,610.46 4495.05,836.96 982.86,147.51 1964.2,314.27 2949.67,436.09 689.73,85.15 1383,160.7 2076.02,228.58 978.93,95.96 1957.98,191.51 2937.25,284.6 463.24,44.08 928.67,57.48 1391.36,107.95 893.45,97.49 1792.16,119.02 2688.28,175.37 464.43,29.22 927.33,75.97 1392.68,98.97 1364.14,67.61 2729.75,97.95 4093.49,177.9 426.76,25.01 854.78,18.47 1282.67,12 418.35,-6.41 836.64,-12.82 1253.58,10.34 1856.84,103.01 3714.29,63.6 5570.85,51.34 1400.43,-9.26 2801.44,-39.07 4201.59,-71.75 1131.76,-26.41 2264.6,-77.82 3395.82,-134.29 1429.16,-71.35 2858.45,-157.3 4285.08,-265.32 1626.79,-123.09 3255.46,-237.7 4874.05,-452.35 569.65,-17.81 1132.71,-95.49 1693.29,-193.91 1106.42,-95.36 2202.25,-271.65 3299.59,-436.89 1752.64,-263.92 3496.45,-579.59 5220.13,-990.4 665.46,-158.7 1331.61,-332.48 1978.4,-563.66 151.36,-35.46 302.06,-74.28 442.77,-143.56 461.42,-149.89 923.51,-299.19 1350.26,-537.77 605.45,-212.24 1148.23,-538.05 1640.33,-943.13 648.81,-534.51 674.14,-1081.09 81.35,-1675.41 -551.43,-553.19 -1241.58,-881.92 -1953.73,-1174.58 -1911.05,-785.36 -3916.12,-1224.38 -5932.45,-1622.26 -380.96,-75.15 -764.62,-137.77 -1140.84,-237.06 -109.82,-83.07 -294.07,-130.89 -155.16,-330.4l0.19 4.35c31.94,-108.97 71.69,-207.65 218.39,-164.05 692.87,0.74 1354.88,198.5 2024.88,333.06 1171.57,235.19 2333.8,511.85 3477.36,861.93 408.08,130.89 814.18,268.44 1218.26,411.07 666.13,275.66 1339.6,536.12 1937.06,951.46 168.7,110.16 318.74,245.72 486.77,357.2 156.69,163.91 338.05,306 449.42,509.51 22,46.14 44,92.22 66,138.3 421.43,543.7 312.74,1076.87 -31.34,1605.32 -880.85,1007.2 -2056.4,1508.43 -3279.99,1942.07 -1463.64,518.56 -2967.27,877.97 -4483.58,1194.63 -1576.12,338.2 -3168.83,581.79 -4761.36,819.83 -861.85,128.83 -1731.62,211.58 -2596.74,324.01 -590.84,92.14 -1191.91,84.28 -1782.22,181.91 -38.14,6.12 -76.48,10.58 -115.02,13.27 -668.47,80.35 -1346.35,78.88 -2007.01,229.97 -40.68,0.4 -81.09,0.6 -121.69,0.66 -922.47,8.94 -1836.45,141.89 -2757.42,177.24 -1152.52,44.34 -2301.01,161.23 -3454.98,193.31 -1465.3,40.81 -2928.92,137.75 -4395.69,130.97 -78.42,-0.34 -155.24,9.05 -230.79,30.66 -1247.25,45.87 -2494.69,40.81 -3742.15,35.74 -671.66,-2.72 -1343.35,-5.46 -2014.93,-0.26 -344.14,0 -688.28,0 -1032.55,0 -382.07,-6.12 -764.28,-2.87 -1146.43,0.34 -670,5.67 -1339.87,11.34 -2009.34,-33.42 -55.15,-3.67 -111.08,1.74 -153.37,-44.06 -562.92,-85.76 -1131.29,-72.43 -1697.67,-91.22 -3493.11,-115.9 -6980.22,-329.28 -10461.13,-642.4 -896.57,-80.61 -1791.76,-177.45 -2687.54,-266.85 -342.59,128.15 -676.26,-27.88 -1013.33,-45.02 -171.38,-8.6 -348.81,-38.67 -524.18,-53.21 -1196.39,-146.09 -2381.42,-368.86 -3575.4,-531.91 -383.21,-52.34 -752.94,-179.22 -1137.57,-228.18 -938.91,-175.03 -1871.17,-383 -2803.9,-587.46 -628.93,-172.1 -1262.52,-328.05 -1885.97,-519.9 -31.07,-9 -62.28,-18.94 -92.96,-29.6 -184.36,-83.22 -395.87,-100.42 -562.19,-228.65 -5.39,-14.67 -10.79,-29.34 -16.2,-43.95z"/>
  <g id="_2852002601536">
   <path class="fil1 str0" d="M33980.31 8492.45c-65.08,3.59 -213.98,8 -420.16,14.12 -1121.69,33.15 -4101.35,121.23 -5619.54,449.97 -1233.72,250.31 -3046.48,1826.64 -3440.82,2635.47 -80.43,164.97 -100.22,290.65 -58.75,373.61 86.34,172.1 487.49,467.09 1387.14,352.47 40.62,-4.14 4049.43,-422.3 5961.62,-1717.75 17.39,-11.08 1717.54,-1093.03 2568.71,-2005.54 0.21,-6.07 -1.13,-21.42 -16.12,-38.48 -26.35,-29.86 -108.02,-77.69 -362.08,-63.87zm-8581.95 3876.45c-778.23,-10 -969.99,-374.55 -978.93,-392.55 -45,-90.03 -25.21,-222.85 58.67,-394.89 396.21,-812.9 2217.92,-2397.08 3457.7,-2648.53 1520.04,-329.21 4501.25,-417.34 5623.6,-450.5 205.99,-6.07 354.82,-10.45 419.56,-14.12l0.08 0c252.5,-14.14 347.26,32.13 382.47,73.28 26.48,30.87 20.68,59.8 20.41,61l-0.74 3.21 -2.27 2.46c-852.38,915.53 -2558.79,2001.42 -2575.85,2012.29 -1916.93,1298.66 -5931.87,1717.41 -5972.22,1721.47 -161.1,20.6 -304.73,28.48 -432.48,26.88z"/>
   <path class="fil1 str0" d="M27160.13 9325.29c-1018.09,677.47 -1753.62,1276.25 -2186.05,1779.69 -347.73,404.68 -415.95,657.87 -363.87,759.88 276.59,539.13 1525.97,372.28 1538.45,370.49 3148.7,-478.43 4107.63,-945.53 4116.89,-950.2 2205.25,-924.19 3331.88,-2032.21 3702.08,-2396.29 54.81,-53.94 91.03,-89.56 111.03,-104.68 117.89,-89.42 93.43,-173.04 83.54,-195.65 -101.01,-1.87 -201.3,-3.46 -299.72,-4.67 -5230.32,-67.01 -6675.75,726.35 -6702.35,741.43zm-1498.77 2960.33c-58.29,-0.74 -119.15,-2.93 -180.91,-7.41 -465.37,-33.21 -773.77,-172.36 -891.79,-402.34 -26.93,-52.96 -80.27,-265.92 367.09,-786.64 433.96,-505.16 1171.23,-1105.41 2191.3,-1784.22l0.6 -0.34c14.2,-8.34 1453.56,-812.35 6715.48,-744.94 101.16,1.27 202.91,2.87 306.94,4.88l6.73 0.13 3.4 5.8c0.66,1.13 66.08,116.89 -87.08,232.85 -18.67,14.2 -54.42,49.41 -108.63,102.67 -370.94,364.95 -1500.17,1475.37 -3708.88,2401.04 -8.6,4.25 -969.53,472.82 -4123.51,952.12 -2.74,0.4 -219.31,29.86 -490.76,26.41z"/>
   <path class="fil1 str0" d="M34193.01 8582.46c-210.11,-2.67 -4718.62,331.13 -5898.71,528.05 -673.21,112.09 -1092.56,367.12 -1570.92,689 -479.38,321.8 -1586.46,1301.8 -1884.67,1873.17 -2.06,8.94 -69.27,278 321.87,390.43 528.05,154.35 1725.74,23.46 3661.82,-400.16 143.08,-38.6 273.71,-73.47 393.34,-105.36 1075.55,-287.11 1269.33,-338.87 2114.7,-793.14 930.65,-499.38 2261.66,-1425.89 2275.06,-1435.17 4.59,-4.46 588.06,-548.97 644.12,-653.54 0.42,-14.33 -0.13,-88.14 -51.6,-93.07l-5.01 -0.21zm-8510.05 3566.73c-219.39,-2.8 -395.36,-23.87 -528.98,-62.94 -414.68,-119.1 -338.41,-419.37 -337.6,-422.35 300.85,-577.12 1412.41,-1561.39 1893.64,-1884.46 480.63,-323.46 902.38,-579.84 1580.26,-692.66 651,-108.7 2202.85,-246.72 3390.02,-343.53 1244.93,-101.43 2445.7,-185.57 2517.51,-184.71l2.34 0.13 0.06 0c64.09,6.07 76.02,81.81 73.41,121.03l-1.19 4.52c-50.81,102.82 -627.32,640.93 -651.87,663.8 -14.67,10.34 -1346.81,937.61 -2278.72,1437.63 -847.77,455.7 -1042.02,507.58 -2119.84,795.24 -119.68,32 -250.31,66.8 -393.87,105.49 -1452.77,318 -2491.57,471.16 -3145.17,462.82z"/>
   <path class="fil1 str0" d="M31767.65 8801.98c-442.14,-5.61 -807.55,435.02 -814.62,982.25 -5.22,406.15 195.44,779.5 499.83,931.33l1071.81 -657.47c19.28,-80.96 29.62,-166.16 30.75,-253.39 6.99,-547.24 -346.41,-997.07 -787.78,-1002.72zm-313.65 1936.46l-5.01 -2.48c-313.99,-153.5 -521.36,-536.05 -516.03,-951.99 7.13,-558.39 381.68,-1007.86 834.97,-1002.06 452.35,5.8 814.75,464.75 807.55,1023.06 -1.12,90.22 -12,178.32 -32.26,261.92l-0.93 4.08 -3.61 2.14 -1084.68 665.33z"/>
   <path class="fil1 str0" d="M31622.03 8979.33c-350.07,-4.46 -639.61,372.21 -645.6,839.64 -5.54,431.62 231.45,795.77 551.85,849.17l617.66 -385.74c64.61,-136.62 99.74,-291.25 101.75,-447.15 5.94,-467.43 -274.66,-851.38 -625.66,-855.92zm-89.48 1709.83l-3.69 -0.6c-332.12,-52.75 -578.23,-426.68 -572.58,-869.85 6.14,-478.49 304.86,-864.1 665.94,-859.43 362.15,4.65 651.67,397.74 645.54,876.18 -2,159.89 -38.28,318.32 -104.88,458.21l-1.21 2.68 -2.53 1.59 -626.58 391.22z"/>
   <path class="fil1 str0" d="M31599.42 9121.3c-301.99,-3.87 -552.19,336.6 -557.57,758.95 -5.01,389.54 198.96,717.95 474.96,766.1l533.25 -348.81c55.87,-119.5 86.29,-258.86 88.14,-403.28 5.41,-422.28 -236.25,-769.08 -538.77,-772.96zm-78.16 1546.18l-3.86 -0.66c-287.66,-47.35 -500.83,-385.61 -495.71,-786.83 5.61,-433.41 264.87,-782.75 577.99,-778.76 313.59,4.01 564.19,359.88 558.65,793.29 -1.95,148.36 -33.47,291.54 -91.29,414.15l-1.19 2.61 -2.4 1.53 -542.19 354.67z"/>
   <path class="fil1 str0" d="M28089.31 9152.45c-151.97,27.12 -619.59,134.43 -1216.57,496.9 -721.36,438.42 -1737.08,1381.81 -2017.88,1765.34l-0.32 0.42c-2.87,3.53 -286.92,357.46 -104.96,540.37l1.93 2.06 0.66 2.8c0.95,3.21 99.76,325.28 1453.9,234.38 -276.72,-41.47 -1064.08,-179.83 -1130.89,-422.28 -14.88,-14.61 -91.09,-97.89 -23.27,-215.31 65.87,-114.16 364.74,-500.96 1713.21,-1623.94l180.43 -107.49 571.85 -56.4c25.61,-45.87 236.65,-411.62 571.92,-616.85zm-2400.88 3078.41c-844.84,-10.79 -945.19,-232.7 -955,-262.98 -190.17,-195.38 91.03,-547.65 105.36,-565.32 281.99,-384.93 1300.4,-1331 2023.48,-1770.35 732.21,-444.69 1271.92,-507.37 1277.32,-507.98l50.2 -5.39 -44.27 24.27c-378.67,207.24 -610.73,636.13 -612.99,640.46l-2.53 4.67 -580.26 57.27 -173.02 104.09c-1382.49,1151.44 -1656.41,1529.24 -1707.41,1617.53 -66.02,114.35 17.86,189.3 21.53,192.38l2.32 2.06 0.81 3.14c69.61,276.93 1197.03,421.75 1208.45,423.22l97.95 12.27 -98.42 7.66c-238.99,18.75 -441.61,25.21 -613.52,23z"/>
   <path class="fil1 str0" d="M26954.54 9845.98c-30,53.28 -331.46,604.45 -237.65,1110.22 98.29,532.51 735.89,938.33 955.94,928.93 176.77,-5.8 622.31,-95.36 804.22,-133.24 -121.22,-18.07 -355.54,-81.48 -555.84,-304.05 -319.4,-355.01 -429.5,-955.07 -327.2,-1783.83l-639.47 181.96zm709.15 2063.42c-239.97,-3.14 -869.56,-402.22 -970.51,-948.85 -99.84,-538.31 239.58,-1125.09 242.98,-1130.97l2.46 -4.14 683.87 -194.63 -2.27 18.13c-105.15,830.44 2,1430.1 318.53,1782.3 275.6,306.73 616.66,303.33 619.8,303.6l2.74 23.82c-6.54,1.53 -661.95,143.22 -887.73,150.63l-9.87 0.13z"/>
   <path class="fil1 str0" d="M28470.72 9091.44c-569.44,-7.33 -1040.34,584.72 -1049.75,1319.53 -9.39,734.21 446.17,1337.52 1015.61,1344.8 569.1,7.33 1039.6,-584.19 1049.01,-1318.34 9.39,-734.87 -445.83,-1338.73 -1014.88,-1345.99zm-34.48 2688.41c-582.71,-7.41 -1049.01,-621.67 -1039.47,-1369.22 9.6,-748.16 491.49,-1350.74 1074.21,-1343.33 582.39,7.47 1048.41,622.26 1038.81,1370.47 -9.6,747.55 -491.15,1349.6 -1073.55,1342.08z"/>
   <path class="fil1 str0" d="M28264.54 9449.37c-426.55,-5.48 -779.55,462.56 -786.96,1043.21 -7.39,579.84 333.48,1056.14 759.95,1061.62 426.49,5.46 779.36,-461.9 786.83,-1041.81 7.41,-580.65 -333.4,-1057.56 -759.82,-1063.02zm-27.27 2128.89c-439.82,-5.59 -791.48,-492.84 -783.88,-1086.02 7.6,-593.98 371.68,-1072.62 811.42,-1067.01 439.69,5.67 791.29,493.42 783.77,1087.48 -7.67,593.18 -371.62,1071.15 -811.31,1065.55z"/>
   <path class="fil1 str0" d="M28220.01 9574.79c-378.62,-4.86 -692.02,410.96 -698.62,926.93 -6.6,515.58 296,938.93 674.67,943.73 378.88,4.86 692.34,-410.56 698.94,-926.13 6.62,-515.97 -296.19,-939.65 -674.99,-944.53zm-24.21 1894.8c-391.94,-5.01 -705.4,-439.36 -698.62,-968.13 6.8,-529.32 331.21,-955.73 723.15,-950.73 392.15,5.01 705.69,439.69 698.88,968.87 -6.73,528.83 -331.34,954.98 -723.42,949.99z"/>
   <path class="fil1 str0" d="M31909.48 8786.44c70.82,20.6 169.64,52.94 185.37,58.14l998.6 -70.56c-71.07,-27.99 -185.03,-35.4 -186.37,-35.46l-997.6 47.88zm182.91 78.48l-1.87 -0.68c-2.14,-0.59 -206.23,-67.61 -248.99,-74.81l-92.01 -15.46 1157.7 -55.48c7.67,0.45 163.1,10.47 228.71,54.68l24.29 16.26 -1067.82 75.49z"/>
   <path class="fil1 str0" d="M32190.94 8892.25l134.62 84.09 882.85 -44.29 -22.66 -103.35 -994.8 63.55zm129.29 104.56l-2.67 -1.68 -190.38 -118.95 1074.49 -68.69 31.47 143.44 -912.92 45.87z"/>
   <path class="fil1 str0" d="M32380.98 9046.23l109.02 183.7 698.6 -19.07 47.82 -244.45 -855.44 79.82zm97.76 204.1l-131.31 -221.17 913.92 -85.28 -56.01 286.72 -726.61 19.73z"/>
   <path class="fil1 str0" d="M32569.56 9541.12l0 0zm-0.42 -2c33.29,20.6 389.96,-0.53 717.35,-31.55 -13.19,-39.54 -54.4,-164.5 -65.61,-219.58 -15.06,-33 -374.29,-8.73 -703.21,32.95 10.07,40.41 44.27,177.98 51.47,218.18zm82.69 28.01c-98.63,-1.27 -100.63,-13.4 -102.16,-22.61 -7.2,-42.07 -53.74,-227.78 -54.27,-229.71l-2.74 -10.94 11.27 -1.47c216.78,-27.8 722.89,-85.42 736.68,-18.39 12.74,63.34 68.42,227.52 69.01,229.18l4.08 12.06 -12.68 1.21c-1.87,0.19 -185.57,17.67 -367.8,29.6 -137.17,9 -225.04,11.81 -281.39,11.08z"/>
   <path class="fil1 str0" d="M32618.36 9661.01c2.46,47.14 10.26,241.11 -21.21,343.01l530.43 -369.49 -509.22 26.48zm-72.49 403.21l20.47 -37.46c48.67,-89.16 31.55,-371.75 31.34,-374.61l-0.6 -10.21 10.15 -0.47 589.65 -30.6 -651 453.35z"/>
   <path class="fil1 str0" d="M33382.72 8738.36c-154.37,-1.93 -282.12,164.5 -284.73,371.15 -2.46,190.7 100.69,350.87 240.39,374.66l273.18 -170.43c28.81,-58.8 44.48,-126.89 45.34,-197.03 2.61,-206.65 -120.29,-376.35 -274.18,-378.35zm-40.07 766.81l-3.67 -0.53c-151.44,-23.06 -263.73,-193.1 -261.12,-395.4 2.8,-217.65 139.68,-393.09 305.13,-390.96 164.9,2.14 296.79,180.98 294.05,398.61 -0.93,74.23 -17.86,146.3 -48.73,208.31l-1.21 2.61 -2.46 1.46 -281.99 175.9z"/>
   <path class="fil1 str0" d="M33372.31 8802.17c-133.22,-1.66 -243.51,148.57 -245.98,334.93 -2.12,170.7 86.57,314.86 207.12,337.67l235.64 -154.29c24.35,-52.28 37.61,-113.5 38.46,-177.24 2.34,-186.31 -103.15,-339.34 -235.25,-341.08zm-34.53 693.74l-3.8 -0.66c-132.16,-22 -230.05,-176.11 -227.71,-358.41 2.53,-197.5 122.01,-356.61 266.32,-354.74 143.16,1.8 257.57,163.91 255.04,361.42 -0.87,67.67 -15.2,132.69 -41.6,188.16l-1.21 2.48 -2.4 1.59 -244.64 160.17z"/>
   <path class="fil1 str0" d="M26245.34 10122.17c-187.03,149.96 -423.36,340.34 -552.11,447.55 34.61,-8.39 86.89,-21.32 141.76,-35.8 59.22,-15.46 149.7,-62.34 229.52,-103.69 50.33,-26.01 93.81,-48.54 121.29,-58.88 51.87,-18.81 100.74,-52.74 133.22,-75.15l3.48 -2.4 -1.95 0.08c-62.73,2.93 -111.42,3.19 -118.55,-21.53 -4.2,-14.95 3.53,-35.16 88.02,-82.09l0.06 0c87.63,-48.54 184.71,-102.82 270.73,-151.17 -163.76,76.68 -351.47,162.7 -382.47,168.24l-34.87 6.33 101.88 -91.48zm-629.99 486.83l32.06 -27.07c205.38,-173.36 853.51,-689.81 860.05,-695.01l13 15.27 -299 268.51c118.63,-48.88 417.76,-190.09 584.79,-270.31l9.34 17.86c-2.87,1.61 -290.33,164.84 -515.84,289.46 -79.03,44.08 -78.42,58.56 -78.37,59.14 3.74,7.28 36.95,9.81 98.29,6.94 34.15,-1.61 41.09,-1.93 43.95,7.81 0.53,1.93 1.66,8.73 -6.6,13.33 -6.46,3.87 -15.61,10.15 -26.61,17.81 -33.19,23 -83.47,57.88 -137.68,77.55 -26.22,9.81 -69.16,32.08 -118.97,57.88 -80.75,41.75 -172.31,89.08 -233.72,105.22 -95.36,25.08 -182.97,45.74 -183.84,45.87l-40.86 9.73z"/>
   <path class="fil1 str0" d="M24841.92 11468.85c50.94,0.66 134.82,107.62 208.58,213.25 -44.15,-166.37 25.72,-279.27 96.47,-346.67 166.18,-157.03 800.44,-705.27 1014.48,-889.84 -86.55,46.27 -212.04,111.01 -241.71,114.09 -39.41,4.54 -241.79,54.34 -266.4,60.47 -30.39,27.35 -419.08,377.56 -575.17,539.84l-4.67 4.88c-110.5,114.62 -239.31,248.31 -310.93,379.94 23.53,-41.41 50.2,-74.02 76.42,-75.87l2.93 -0.08zm-155.5 323.8l0.87 -67.21c2.46,-191.38 207.24,-403.89 371.74,-574.59l4.67 -4.8c162.17,-168.64 573.98,-538.84 578.12,-542.59l4.33 -2.25c9.28,-2.27 228.25,-56.55 271.46,-61.56 30.07,-3.06 205.7,-95.21 316.52,-156.35l85.23 -47.08 -73.81 63.49c-8.81,7.6 -885.33,761.75 -1084.76,950.31 -73.83,70.29 -146.43,193.32 -73.41,379.75 4.06,10.41 6.79,17.33 -1,22 -3.35,2.21 -8.94,3.14 -15.01,-4.25 -2.93,-3.95 -7.33,-10.41 -13.4,-19.2 -136.83,-200.51 -194.12,-241.13 -217.57,-239.33 -42.34,2.87 -104.3,148.57 -133.5,239.65l-20.47 64.02z"/>
   <path class="fil1 str0" d="M26797.24 11147.26c1.47,78.61 147.11,282.58 211.24,365.14l220.66 -50.01c-8.81,-76.76 -190.85,-256.8 -267.85,-326.6l-164.05 11.47zm201.64 392l-4.73 -5.99c-24.21,-30.81 -236.04,-303.67 -220.05,-399.29l1.61 -9.39 194.1 -13.61 3.8 3.48c29.41,26.46 287.47,261.58 279.8,358.47l-0.66 8.86 -253.87 57.48z"/>
   <path class="fil1 str0" d="M27107.64 11634.14c91.88,169.98 478.96,272.65 562.58,251.39 72.94,-18.28 474.43,-83.36 664.88,-113.82 -20.07,-0.79 -43.89,-1.46 -71.62,-1.8 -91.16,-1.13 -317.41,-134.69 -449.16,-217.71 60.14,61.54 125.68,134.16 125.41,158.7l0.08 9.6c1.19,31.6 -10.74,32 -68.48,34.34 -12.08,0.45 -26.88,1.06 -44.74,1.98l-342.34 18.28 -3.72 -3.46c-120.76,-111.5 -311.48,-133.37 -372.89,-137.51zm532.91 277.93c-136.17,-1.74 -491.89,-110.35 -563.59,-286.45l-6.86 -16.8 18.2 0.19c10.4,0.13 252.92,4.8 404.81,141.5l332.21 -17.86c17.99,-0.79 32.93,-1.4 45.06,-1.93 23.55,-0.87 42.15,-1.68 46.55,-3.61l-0.08 0 -1.13 -5.67 -0.26 -10.87c-1.59,-21.13 -103.96,-130.42 -201.96,-223.72l15.06 -18.73c4.14,2.74 413.02,276.06 535.23,277.72 130.23,1.61 173.18,9.81 174.97,10.21l66.61 13.08 -67.06 10.66c-6.67,1 -668.94,105.83 -762.16,129.1 -8.94,2.32 -20.94,3.4 -35.61,3.19z"/>
   <path class="fil1 str0" d="M24813.64 11580.61c-40.68,59.28 -154.37,241.64 -77.42,326.6l8.73 9.6c100.42,110.35 335.88,368.73 1364.82,270.91 63.15,-6.01 114.69,-10.74 155.69,-14.54 -629.12,-26.27 -1357.86,-153.44 -1451.82,-592.58zm832.18 648.53c-651.34,-8.34 -830.78,-205.44 -915.72,-298.79l-8.73 -9.6c-103.35,-114.09 82.01,-360.94 89.88,-371.41l14.2 -18.73 3.74 23.27c40.34,254.72 334.54,565.91 1507.37,601.73 70.96,2.19 70.96,2.19 71.28,13.19 0.26,11.47 0.26,11.47 -135.75,23.95 -41.89,3.86 -94.83,8.73 -160.38,14.99 -177.43,16.88 -331.72,23.14 -465.88,21.42z"/>
   <path class="fil1 str0" d="M26290.08 10356.15c-14.06,48.01 -182.57,660 208.11,1170.1 -79.75,-143.08 -167.3,-378.8 -15.2,-555.65l225.85 -263.18c-3.08,-43.27 -21.6,-403.07 166.48,-800.63l-585.25 449.36zm291.93 1297.45c-541.05,-554.36 -312.54,-1299.06 -310.14,-1306.53l0.87 -3.01 2.53 -1.93 656.66 -504.29 -19.79 39.33c-217.92,431.56 -183.38,828.77 -183.04,832.76l0.4 4.22 -2.72 3.25 -228.52 266.27c-221.66,257.65 95.41,652.59 98.68,656.6l-14.93 13.33z"/>
   <path class="fil1 str0" d="M25758.09 10843.38c-4.93,54.76 -50.81,696.27 452.77,1034.95 -92.22,-102.14 -233.91,-317.2 -89.82,-565.72l1.47 -1.85 136.49 -144.45c-18.6,-44.06 -119.89,-312.33 -35.93,-746.14l-464.98 423.2zm519.71 1099.29c-618.85,-341 -540.11,-1097.68 -539.24,-1105.28l0.32 -3.74 2.87 -2.59 513.44 -467.3 -6.41 30.34c-101.61,484.71 29.81,767.15 31.21,769.89l2.95 6.28 -145.11 153.42c-190.38,330.13 147.51,599.52 150.91,602.18l-10.94 16.8z"/>
   <path class="fil1 str0" d="M25281.74 11277.6c14.61,58.35 145.77,548.84 467.57,745.42 -44.68,-78.4 -145.03,-279.33 -104.83,-447.08 17.81,-74.15 61.28,-132.57 129.3,-173.91 -17.28,-48.01 -100.82,-294.39 -84.49,-496.69l-407.55 372.26zm525.57 799.97l-34.21 -17.94c-195.71,-102.88 -324.52,-310.53 -398.27,-466.62 -79.61,-168.64 -113.77,-315.07 -114.03,-316.54l-1.32 -5.73 4.27 -4.01 451.75 -412.49 -3.46 27.14c-28.2,219.31 82.35,518.51 83.41,521.51l3.01 8 -7.41 4.27c-67.21,38.62 -109.82,94.22 -126.96,165.37 -48.14,200.45 120.42,462.03 122.1,464.69l21.13 32.34z"/>
   <path class="fil1 str0" d="M25215.53 11341.75c-45.68,44.55 -209.84,221.85 -127.43,395.02 87.68,179.96 341.68,249.71 512.38,276.45 -74.89,-56.69 -240.12,-224.85 -384.95,-671.47zm494.56 706.27l-66.34 -8.39c-171.36,-21.6 -473.69,-88.55 -573.72,-294.13 -101.35,-212.91 141.18,-427.36 143.58,-429.55l11.53 -10 4.67 14.54c188.03,589.84 416.95,698.94 419.29,700l61 27.54z"/>
   <path class="fil1 str0" d="M27367.84 11512.26l-0.21 0.06 0.21 -0.06zm-286.21 48.54c45.02,1.4 168.24,7.94 221.58,38.94 39.88,-107.68 53.81,-110.08 59.88,-111.16 5.33,-1.06 41.41,-4.86 109.95,-11.87 80.69,-8.26 202.51,-20.79 213.72,-24 3.93,-1.27 9.53,-2.67 15.59,-4.06 6.94,-1.66 19.94,-4.73 26.35,-7.73l-7.67 -7.54c-37.8,-36.06 -152.69,-145.9 -239.24,-463.69l0 -0.06c-96.57,-354.69 -160.64,-590.26 24.8,-1177.11l-527.5 49.81c-0.13,83.22 -2.27,614.86 -30.89,830.97 16.88,31.47 130.36,251.05 117.62,426.23l-0.66 9.6 -10.13 1.59 7.26 1.66 2.67 3.21c8.75,10.6 213.25,260.44 233.98,354.33l0.95 4.61 -16.35 27.86 -195.89 32.15 -6.01 26.27zm232.45 79.95l-13.4 -13.21c-33.95,-33.21 -180.64,-42.21 -234.25,-42.94l-14.93 -0.19 16.33 -71.16 200.64 -32.79 5.8 -9.81c-23.53,-86.34 -201.51,-307.32 -225.38,-336.52l-122.03 -27.14 115.49 -18.67c7.81,-176.9 -115.88,-404.62 -117.21,-406.95l-1.87 -3.53 0.6 -3.93c31.13,-229.05 31.13,-836.37 31.13,-842.57l0.08 -10.94 10.93 -1.06 574.72 -54.21 -5.59 17.33c-190.17,592.84 -126.43,826.77 -30.02,1180.83 84.75,311.4 195.97,417.76 232.53,452.69 8.52,8.2 12.8,12.29 15.06,16.8l0.6 16.88c-6.07,13.19 -26.08,17.94 -45.42,22.47l-13.67 3.53c-9.39,3.19 -75.08,10.34 -218.71,25.06 -46.88,4.8 -95.36,9.73 -106.15,11.27 -9.15,9.94 -32.15,64.36 -48.88,111.03l-6.41 17.75z"/>
   <path class="fil1 str0" d="M27569.01 9368.76c14.2,0.19 25.54,2.4 33.61,6.94 10,5.65 15.8,14.67 16.67,25.99l0.06 0.13c4.61,66.5 -22.19,172.97 -48.94,259.8 83.36,-145.9 245.91,-374.82 499.17,-505.31 -169.64,32.08 -615.87,138.17 -1103.17,430.95 188.71,-88.74 487.56,-219.98 602.6,-218.5zm-47.48 435.28l-18.81 -7.33c1.13,-2.74 104.88,-273.13 96.55,-393.49l-6.6 -10c-77.69,-44.13 -585.38,193.25 -774.49,288.13l-10.13 -17.33c678.68,-455.83 1324.94,-538.98 1331.4,-539.79l72.35 -8.79 -67.29 28.07c-429.69,179.43 -621.12,655.65 -622.99,660.53z"/>
   <path class="fil1 str0" d="M28735.17 10198.99c-84.75,-1.06 -155.37,123.29 -157.3,277.4 -2,153.48 65.42,279.38 150.17,280.52 84.02,1 156.69,-125.62 158.56,-276.59 2,-151.44 -67.42,-280.27 -151.44,-281.33zm-7.47 581.98c-99.74,-1.32 -176.24,-135.22 -174.03,-304.92 2.19,-170.17 82.07,-302.46 181.83,-301.19 98.74,1.27 177.43,138.43 175.29,305.73 -2.14,166.9 -84.28,301.65 -183.1,300.38z"/>
   <path class="fil1 str0" d="M31954.75 9559.32c-86.42,-1.06 -158.36,124.43 -160.36,279.8 -2,154.35 66.74,280.86 153.16,281.99 86.02,1.06 157.58,-123.63 159.57,-278 2,-155.35 -66.34,-282.65 -152.36,-283.79zm-7.47 581.84c-97.47,-1.19 -175.1,-136.83 -172.97,-302.33 2.14,-166.43 83.22,-300.85 180.64,-299.59 98.76,1.27 174.44,134.82 172.23,304.12 -2.14,168.3 -81.14,299.06 -179.9,297.79z"/>
   <path class="fil1 str0" d="M33321.37 8866.11c-86.68,-1.06 -158.7,124.22 -160.7,279.33 -2,154.56 66.89,281.2 153.5,282.26 86.15,1.13 157.9,-123.69 159.91,-278.25 2,-155.11 -66.55,-282.2 -152.7,-283.33zm-7.47 581.65c-99.35,-1.27 -175.5,-134.16 -173.36,-302.59 2.19,-169.04 81.67,-300.46 181.09,-299.19 97.23,1.32 174.71,137.49 172.51,303.73 -2.08,165.63 -83.02,299.32 -180.24,298.06z"/>
   <path class="fil1 str0" d="M28148.79 9909c134.09,1.66 281.99,84.81 389.01,160.28 -192.78,-164.03 -346.46,-174.03 -509.64,-166.62 -139.63,6.26 -158.09,-7.2 -182.63,-36.01 -6.07,-7.01 -12.29,-14.35 -22.47,-22.28 -7.88,-6.52 -12.55,-14.67 -14.21,-24.46 -18.47,41.34 -18.86,75.81 -19.39,118.42 -0.21,12.74 1.85,20.53 6.26,24.06 11.13,8.75 46.48,0.42 95.23,-11.13 51.54,-12.32 122.08,-29.13 217.44,-40.26 13.27,-1.55 26.75,-2.21 40.41,-2zm525.23 295.45c-3.06,-2.85 -292.52,-272.39 -526.03,-275.38 -12.61,-0.15 -25.08,0.4 -37.22,1.93 -94.22,10.93 -164.16,27.67 -215.25,39.81 -60.28,14.4 -93.54,22.34 -112.41,7.33 -12.68,-10.21 -13.95,-27.75 -13.82,-40.07 1,-76.95 1.68,-132.5 106.43,-245.25l14.86 13.59c-40.6,44.42 -63.81,84.57 -62.28,107.36 0.47,6.41 2.82,11.13 7.33,14.93 11.55,9 18.75,17.41 25.14,24.95 18.67,21.87 29.35,35.14 166.5,28.86 196.44,-8.6 395.42,8.41 661.14,307.92l-14.4 14.01z"/>
   <polygon class="fil1 str0" points="27889.73,9707.23 27875.87,9692.75 27889.67,9678.74 27895.66,9673.28 27908.8,9688.48 27903.54,9693.28 27898.93,9698.16 "/>
   <path class="fil1 str0" d="M27994.16 11090.84c-52.55,-0.66 -106.49,0.47 -110.21,15.01 -22.95,92.48 16.26,143.35 50.54,168.96 -8.34,-20.26 -13.14,-47.67 -5.41,-81.88 14.2,-61.35 83.41,-69.01 208.97,-82.88 50.33,-5.46 113.09,-12.47 185.31,-24.35 145.88,-23.93 250.05,-149.23 307.85,-240.31l-8.47 10.41c-58.41,71.41 -180.57,165.56 -348.34,215.57 -78.4,23.27 -174.9,21.4 -252.84,19.94 -8.94,-0.21 -18.15,-0.4 -27.41,-0.47zm37.75 249.39l-62.81 -19.94c-1.61,-0.47 -150.91,-49.81 -108.63,-220.37 9.26,-35.61 69.27,-34.34 161.57,-32.74 75.87,1.53 170.62,3.27 245.44,-18.88 162.78,-48.6 282.99,-142.21 336.54,-207.63 59.88,-74.28 81.88,-96.02 82.75,-96.96l42.55 -41.66 -23 55c-5.22,12.74 -132.97,312.06 -379.09,352.47 -72.81,12 -135.88,19 -186.56,24.53 -126.43,13.93 -178.11,21.26 -188.11,64.28 -15.01,66.55 27.12,100.69 27.6,100.95l51.75 40.94z"/>
   <path class="fil1 str0" d="M27604.75 10300.81c-32.21,192.51 22,364.08 50.47,436.62l2.61 6.67c4.14,13.85 55.55,76.21 98.55,76.74l7.54 -0.53c21.26,-3.93 47.06,-33.47 74.42,-64.76 34.93,-39.81 74.47,-85.08 126.49,-108.48 99.74,-43.68 326.07,-72.15 466.75,-70.29 66.95,0.81 109.89,17.75 136.96,36.48 -43.95,-154.5 -0.06,-282.65 24.82,-337.33 -22.02,8.41 -47.88,19.07 -58.75,26.01 -26.14,17.6 -46.16,20.47 -317.28,-26.75 -179.83,-31.13 -316.13,10.13 -415.74,40.41 -48.35,14.61 -90.08,27.27 -125.03,28.14 -27.86,0.06 -49.67,-8.6 -63.21,-27.27l-8.6 -15.67zm151.55 544.17c-58.8,-0.79 -118.02,-77.69 -121.82,-94.62l0 0.08 -1.66 -4.14c-34.87,-88.69 -106.76,-320.8 -23.14,-562.85l22.87 7.81 0 0.13c-7.14,21.13 -20.87,81.94 0.26,110.82 8.81,12 22,17.41 43.21,17.41 31.6,-0.81 71.94,-12.95 118.49,-27.09 102.01,-31 241.98,-73.15 426.89,-41.07 263.32,45.82 282.05,42.41 299.85,30.41l0.21 -0.13c22.19,-14.35 89.74,-38.2 92.62,-39.14l31.6 -11.21 -17.2 28.75c-1.13,1.87 -108.15,184.36 -17.48,401.35l-22.19 9.47c-5.01,-11.47 -35.48,-68.56 -157.56,-70.09 -155.71,-1.93 -369.09,29.94 -456.7,68.27 -47.08,21.21 -84.75,64.28 -118.02,102.29 -31.62,36.06 -58.75,67.27 -88.5,72.62l-11.74 0.93z"/>
   <path class="fil1 str0" d="M28589.87 10670.22l5.07 0.06 -5.07 -0.06zm23.68 40.81l-21.81 -34.27 9.87 -6.35 0 0.08 -10.13 5.94 -3.74 -10.47 0.53 -38.54 21.55 32 4.2 11.13 -0.45 40.49z"/>
   <path class="fil1 str0" d="M28677.69 10241.54c-67.95,-0.87 -126.62,102.35 -128.23,225.44 -1.59,123.56 54.42,228.65 122.37,229.44 69.67,0.95 127.68,-100.56 129.29,-226.18 1.61,-125.22 -53.74,-227.78 -123.43,-228.71zm-6.12 479.1c-82.43,-1.13 -148.04,-115.03 -146.3,-254 1.8,-138.42 70.35,-250.24 152.69,-249.18 84.49,1.08 149.17,112.22 147.37,253.05 -1.81,141.36 -69.35,251.12 -153.76,250.12z"/>
   <path class="fil1 str0" d="M29518.2 10197.78c8.47,99.29 47.35,779.89 -407.16,1321.69 159.77,-34.02 837.24,-183.51 1325.54,-377.08 467.96,-184.97 815.16,-358.2 916.06,-409.88 -95.43,-27.41 -356.14,-156.98 -411.16,-757.89 -129.89,21.68 -1197.84,199.37 -1423.28,223.17zm-472.16 1359.75l23.61 -27.01c507.56,-578.31 424.28,-1334.46 423.47,-1342.14l-1.53 -12.27 12.34 -1.21c206.78,-19.13 1434.09,-224.1 1446.49,-226.18l12.87 -2.19 1.13 13.06c61.28,715.42 421.22,755.83 424.94,756.15l40.54 3.53 -35.93 19.07c-3.93,2.08 -390.75,205.91 -948.53,426.42 -556.31,220.58 -1356.33,383.95 -1364.35,385.55l-35.06 7.2z"/>
   <path class="fil1 str0" d="M29009.43 10156.97c137.02,706.74 -311,1443.9 -400.09,1581.52 280.86,-46.88 444.96,-245.44 446.62,-247.57 511.64,-524.91 423.3,-1184.78 407.21,-1280.4 -279.25,53.08 -402.15,-5.67 -453.75,-53.55zm-450.63 1612.94l15.61 -22.34c1.46,-2.14 148.96,-215.38 271.18,-523.23 112.63,-283.47 226.31,-707.29 128.36,-1117.04l23.14 -6.8c0.68,1.68 63.62,165.44 473.44,84.02l11.72 -2.32 2.48 11.66c1.53,7.41 147.49,740.43 -410.75,1313.14 -1.08,1.32 -181.11,219.9 -488.11,259.38l-27.07 3.53z"/>
   <path class="fil1 str0" d="M32198.07 9448.69c136.09,426.1 26.41,719.88 -18.73,813.9l345.54 -204.7c62.41,-222.51 16.8,-461.82 8.07,-502.7 -13.27,2.08 -39.88,6.75 -93.3,17.54 -103.01,21 -192.3,-63.55 -241.58,-124.03zm-75.21 870.79l22.4 -35.48c2.21,-3.4 213.06,-345.61 11.55,-893.51l18.13 -8.68c1.13,2 120.76,199.45 260.73,171.17 118.15,-23.87 118.49,-22.95 121.48,-11.47l-4.2 11c9.73,46.82 54.61,289.67 -9.87,514.78l-1.06 3.86 -3.4 2.08 -415.76 246.25z"/>
   <path class="fil1 str0" d="M34195.41 8709.16l-13.53 -14.88c27.8,-29.86 43.61,-48.27 43.68,-48.41l27.41 -31.94 -10 40.88c-3.74,15.46 -18.49,32.21 -47.56,54.34z"/>
   <path class="fil1 str0" d="M33661.04 8963.47c40.94,116.41 17.39,236.78 0.13,297.19 113.48,-112.61 342.46,-366.14 470.29,-509.56 -153.1,89.74 -416.42,191.77 -470.42,212.38zm-48.48 371.13l16.94 -42.07c0.66,-1.72 69.08,-175.16 9.26,-331.32l-3.67 -9.47 9.47 -3.53c4.08,-1.53 404.02,-152.36 538.58,-255.06l13.67 14.61c-115.36,130.36 -439.16,491.42 -551.17,595.93l-33.08 30.92z"/>
   <path class="fil1 str0" d="M26322.49 11095.11c49.99,200.56 138.55,400.22 286.85,572.58 -146.49,-177.03 -234.45,-380.62 -286.85,-572.58zm721.34 908.12c-8.86,-2.74 -881.58,-288.74 -792.22,-1580.52l20.13 1.27c-11.47,193.63 -27.67,1179.09 779.36,1560.58l-7.28 18.67z"/>
   <path class="fil1 str0" d="M26271.61 10424.5l-20 -1.8c1.85,-25.95 2.27,-40.49 2.27,-41.15l0 -0.06 20.05 0.59 -0.13 5.54c-0.32,12.53 -0.66,24.35 -2.19,36.88z"/>
   <path class="fil1 str0" d="M25885.19 11509.45c60.75,108.89 135.64,201.05 211.53,277.06 -90.5,-93.22 -159.3,-186.84 -211.53,-277.06zm583.45 572.39c-7.39,-3.4 -746.95,-349.15 -740.07,-1107.36l20.13 -0.21c6.28,241.05 109.36,703.08 729.41,1089.9l-9.47 17.67z"/>
   <path class="fil1 str0" d="M25728.57 10974.74c-1.61,-85.08 9.66,-136.3 10.13,-138.49l19.81 3.87c-7.81,48.6 -9.34,95.28 -9.81,134.56l-20.13 0.06z"/>
   <path class="fil1 str0" d="M25802.17 12080.84c-0.4,-0.13 -11.06,-2.93 -26.27,-9.68l7.67 -18.6c9.13,3.61 16.67,6.54 24.27,8.94l-5.67 19.34z"/>
   <path class="fil1 str0" d="M25709.89 12035.36c-118.97,-75.42 -338.54,-273.32 -473.63,-751.48l19.2 -6.07c1.93,5.59 196.1,560.58 465.35,740.67l-10.93 16.88z"/>
   <path class="fil1 str0" d="M25776.03 12071.29l-0.53 -0.32 -2.72 -1.13 -3.53 -1.4c-24.21,-11.27 -43.21,-21.87 -59.69,-33.29l11.13 -16.73c23.55,15.06 43.15,25.2 56.95,31.47l5.2 2.27 0 0.08 1.08 0.45 -7.88 18.6z"/>
   <path class="fil1 str0" d="M31196.27 8813.83l-1.4 -20.05 0.13 0c86.76,-6.2 138.49,-9.55 138.49,-9.55l1.47 20.07c-31.55,2.48 -64.02,4.59 -97.63,6.8l-40.86 2.72 -0.21 0z"/>
   <path class="fil1 str0" d="M28649.83 9065.56c498.56,162.5 709.94,515.24 799.55,782.03 -60.33,-202.98 -150.36,-410.9 -151.89,-414.36l-0.74 -2.8c-7.13,-58.08 10.94,-113.96 53.55,-165.97 68.95,-84.15 306.47,-264.32 1106.49,-388.41 -770.08,71.88 -1601.92,166.03 -1806.96,189.51zm845.37 1189.24l-0.21 -67.74c-0.06,-8.62 -12.87,-858.18 -896.7,-1116.38l-47.61 -13.85 49.33 -5.8c16.22,-1.87 1632.67,-188.98 2594.87,-257.25l1.53 20.05c-363.21,27.67 -1567.91,142.9 -1830.57,463.29 -38.67,47.22 -55.29,97.49 -49.35,149.44 16.8,38.48 251.65,585.11 198.18,763.3l-19.47 64.95z"/>
   <path class="fil1 str0" d="M30787.11 9149.58l141.84 600.05c4.8,-129.02 41.73,-370.54 219.65,-660.06l-361.49 60.01zm145.31 701.94l-169.72 -718.22 426.63 -70.96 -12 19.01c-274.52,435.02 -225.78,762.96 -225.31,766.23l-19.6 3.93z"/>
   <path class="fil1 str0" d="M30859.34 9988.61l147.3 302.39 -118.83 -307.85 -28.47 5.46zm233.19 524.44l-262.65 -539.18 70.67 -13.67 210.37 544.83 -18.39 8.01z"/>
   <path class="fil1 str0" d="M30725.04 10007.74l324.67 479.57 -287.26 -483.76 -37.41 4.2zm498.17 771.63l-533.51 -787.96 83.43 -9.21 3.33 5.54 463.69 780.82 -16.94 10.81z"/>
   <path class="fil1 str0" d="M31964.64 8789.9l156.88 45.48 377.14 -25.54 -534.02 -19.94zm154.75 65.74l-317.53 -91.94 888.99 33.27 0.32 20 -571.79 38.67z"/>
   <path class="fil1 str0" d="M33144.6 9612.66l-2200.58 183.44c-37.8,8.2 -3801.96,818.91 -5790.24,1868.52 760.16,-323.4 3247.73,-1326.07 5689.02,-1696.88 9.13,-1.68 19.73,-3.27 29.88,-4.88l19.53 -3.06c1408.35,-208.84 2004.61,-303.99 2252.39,-347.14zm-8215.2 2175.84l-11.06 -21.4c1916.91,-1110.69 5981.33,-1986.07 6022.14,-1994.88l2331.95 -194.44c46.67,-4.67 58.08,-4.4 59.67,9.21 1.93,15.67 2.53,20.41 -424.22,89.69 -402.28,65.34 -1079.14,168.64 -2012,306.92l-19.53 3.08c-10.02,1.53 -20.34,3.25 -29.68,4.8 -2910.73,442.22 -5887.52,1783.56 -5917.28,1797.02z"/>
   <path class="fil1 str0" d="M29853.53 11395.96l-5.94 -23.34 135.16 -38.99 7.54 22.93c-0.68,0.21 -59.22,21.55 -136.77,39.41z"/>
   <path class="fil1 str0" d="M29481.66 11111.44l-300.14 450.16 497.51 -141.16c-87.08,2.27 -166.98,-14.35 -206.31,-71.88 -35.74,-52.28 -32.68,-131.69 8.94,-237.12zm-356.54 491.17l484.48 -726.61c5.75,-8.81 11.68,-17.67 17.75,-26.69l20.07 13.55 -0.13 0.06 0 0.08 -18.15 27.2c-143.29,218.1 -189.24,367.61 -136.56,444.75 60.96,89.03 248.91,61.68 355.61,37.48l5.99 23.4 -729.07 206.78z"/>
   <path class="fil1 str0" d="M30965.49 10517.65c-494.16,99.42 -1239.24,277.45 -1271.39,361.34 -9.53,24.21 -33.08,61.01 -60.33,103.56 -62.7,97.89 -157.45,245.91 -112.63,306.13 22.81,30.87 96.89,54.81 319.47,-8.28 588.71,-167.03 1284.18,-472.56 1375.88,-513.23 -16.94,-46.01 -95.15,-234.17 -250.99,-249.52zm-1351.8 826.5c-55.08,-0.66 -92.16,-14.4 -112.03,-41.02 -54.61,-73.6 37.61,-217.76 111.76,-333.59 26.59,-41.47 49.54,-77.34 58.14,-99.29 47.2,-123.29 1163.71,-351.13 1290.93,-376.67l1.72 -0.34 1.74 0.21c194.1,17.46 273.73,266.11 277.06,276.64l3.19 10.21 -9.73 4.48c-7.52,3.25 -759.16,340.06 -1389.28,518.83 -98.29,27.8 -175.84,41.28 -233.51,40.54z"/>
   <path class="fil1 str0" d="M12054.72 7467.31c-50.33,20.13 -164.42,73.07 -334.8,193.02 -216.71,152.65 -571.37,448.17 -1030,989.13 -458.23,539.66 -561.92,1067.56 -568.31,1415.44 -5.88,328.66 71.47,562.9 92.14,619.25 469.97,-291.86 1558.58,-2412.75 1607.46,-2508.24 -21,-216.57 175.5,-600.86 233.51,-708.6zm-1853.1 3251.71l-5.2 -12.61c-4.22,-10.13 -411.75,-1028.07 475.16,-2072.62 461.21,-544.04 818.17,-841.1 1036.41,-994.6 237.52,-166.96 364.08,-204.23 369.33,-205.7l28.28 -8.07 -14.4 25.54c-2.74,4.88 -271.78,486.37 -245.72,725.95l0.47 3.61 -1.61 3.19c-46.93,92.09 -1153.29,2258.46 -1630.86,2528.64l-11.87 6.67z"/>
   <path class="fil1 str0" d="M11776.39 7987.14c-83.07,-1.06 -232.3,25.14 -392.34,187.58 -246.85,249.44 -353.74,575.64 -326.81,997.26 0.08,1.53 1.61,93.09 27.62,216.99l738.75 -1222.72c-3.19,-24.95 -14.4,-125.43 6.14,-174.18 -11.68,-2.14 -29.88,-4.67 -53.36,-4.93zm-701.87 1465.51l-6.67 -28.88c-32.87,-141.23 -34.67,-249.78 -34.74,-250.92 -27.33,-428.21 81.82,-760.43 333.67,-1015.07 252.86,-256.53 475.98,-188.37 485.3,-185.18l17.54 5.59 -12.13 13.82c-21.13,23.93 -16.94,120.16 -9.39,175.16l0.6 4.27 -2.27 3.59 -771.9 1277.61z"/>
   <path class="fil1 str0" d="M11557.02 8194.85c-29.34,-0.4 -60.67,4.61 -92.56,17.88 -132.03,54.61 -293.65,198.64 -351.59,439.21 -42.89,185.37 -17.67,566.44 -8.15,687.07 81.82,-137.83 399.69,-672.8 474.03,-793.43 74.42,-119.5 140.02,-251.39 156.9,-285.98 -22,-16.54 -92.22,-63.62 -178.64,-64.76zm-469.76 1220.92l-3.48 -37.01c-1.93,-20.6 -46.33,-507.71 5.54,-732.28 50.35,-208.79 190.58,-383.42 365.82,-456.04 159.09,-66.21 297.72,51.49 303.52,56.55l6.99 5.99 -3.99 8.34c-0.81,1.61 -75.68,157.56 -162.36,297 -84.96,137.75 -488.98,818.57 -493.04,825.43l-19 32.02z"/>
   <path class="fil1 str0" d="M11112.06 8539.72c-133.22,149.76 -512.7,588.25 -670.79,894.7 -192.72,373.08 -243.85,873.46 -120.1,1151.84 74.23,-90.27 383.62,-466.36 394.76,-477.15 6.99,-10.28 96.42,-188.24 175.29,-345.27 117.02,-233.06 176.45,-350.87 189.17,-371.21 -0.06,-6.35 -4.46,-26.08 -8.92,-46.88 -27.54,-124.77 -97.89,-444.37 40.6,-806.03zm-796.43 2091.15l-8.13 -16.86c-136.83,-280.67 -87.48,-803.69 112.35,-1190.64 193.91,-375.82 716.35,-946.66 721.62,-952.39l50.41 -54.95 -30.54 68.08c-171.1,380.81 -95.02,726.35 -66.34,856.43 9.81,44.68 12.47,56.69 5.8,64.76 -8.6,12.06 -103.88,201.91 -188.03,369.33 -144.29,287.45 -174.65,346.62 -180.11,351.87 -11.61,11.74 -296.32,357.67 -405.02,489.91l-12 14.46z"/>
   <polygon class="fil1 str0" points="11996.31,7581.85 11980.72,7563.46 11981.51,7562.72 11985.04,7559.72 11999.58,7578.79 "/>
   <path class="fil1 str0" d="M10223.01 10623.27c-0.06,-0.66 -6.99,-67.53 -9.26,-177.69l24.14 -0.81c1.53,31.81 3.19,63.75 5.01,96.02 1.46,26.67 2.93,53.49 4.2,80.61l-24.08 1.87z"/>
   <path class="fil1 str0" d="M10436.66 9186.32c-1.59,3.46 -68.74,148.36 -124.88,407.61 49.28,-185.44 121.9,-375.87 227.91,-554.12 310.72,-523.57 947.51,-1083.89 1261.92,-1338.6 -330,217.23 -999.47,726.82 -1364.95,1485.16l0 -0.06zm-222.77 1259.39c-24,-786.3 198.84,-1265 200.98,-1269.73l0.06 -0.08c490.57,-1017.73 1524.25,-1590.18 1567.99,-1614.05l11.93 21c-59.41,35.48 -1027.67,783.96 -1434.41,1469.31 -294.13,494.24 -328.34,1084.89 -322.4,1392.94l-24.14 0.6z"/>
   <path class="fil1 str0" d="M11563.49 8268.73c-37.88,-0.47 -80.75,8.94 -125.28,37.67l-0.08 0.08c-135.62,86.34 -277.45,222.04 -300.72,573.11 -16.8,245.91 -3.01,363.21 5.99,409.22l68.08 -101.22c-7.67,-52.09 -62.54,-471.84 116.57,-683.14 174.9,-205.25 271.39,-224.45 358.39,-182.12l5.27 -13.4c-17.81,-11.79 -66,-39.41 -128.23,-40.2zm-427.89 1074.95l-8.47 -21.21c-1.53,-3.86 -37.54,-98.29 -13.72,-444.49 24.06,-363.87 179.17,-507.43 311.67,-591.84 149.42,-96.62 287.45,7.86 288.85,8.92l7.13 5.54 -22.19 55.82 -12 -6.67c-67.02,-37.27 -148.7,-54.55 -340.47,170.3 -179.85,212.24 -111.03,663.93 -110.42,668.47l0.87 4.74 -101.24 150.42z"/>
   <path class="fil1 str0" d="M11757.26 7959.67l61.68 2.14c7.14,-9.68 23.27,-30.15 41.02,-44.82l28.07 -80.69c-35.87,25.61 -95.75,72.54 -130.76,123.37zm73.89 26.73l-115.36 -4.12 9.66 -17.22c49.09,-87.68 174.18,-166.09 179.51,-169.36l28.94 -18.01 -53.47 153.9 -2.8 2.21c-21.68,16.86 -42.55,46.88 -42.81,47.22l-3.67 5.39z"/>
   <path class="fil1 str0" d="M10710.31 9051.69c-126.49,178.69 -407.95,616.53 -435.15,1010.26 -26.14,359.28 20,432.43 49.88,444.03 25.4,9.73 65.68,-17.2 112.75,-76.63 87.1,-111.56 409.56,-646.52 562.26,-901.71 -148.43,173.84 -411.43,455.9 -505.37,400.22 -53.28,-31.81 -86.63,-158.9 215.63,-876.18zm-374.8 1480.57c-6.67,-0.13 -13.08,-1.4 -19.2,-3.74 -64.95,-25.27 -86.36,-178.51 -65.15,-468.28 35.4,-514.44 496.64,-1100.29 501.3,-1106.17l56.48 -71.07 -36.01 83.34c-328,760.77 -307.39,915.93 -265.92,940.8 81.96,49.28 396.16,-291.12 574.98,-516.9l19.87 13.59c-21.53,36.4 -529.37,892.19 -645.05,1040.36 -46.69,59.01 -87.29,88.4 -121.29,88.08z"/>
   <path class="fil1 str0" d="M11111.46 8297.46c-459.82,598.46 -673.27,1490.65 -759.69,1974.6 184.91,-783.09 405.02,-1313.46 566.06,-1632.6 72.07,-142.9 138.36,-255.85 193.63,-342zm-829.7 2329.74l-3.67 -7.73 0.21 -7.52 -1.08 -0.21 1.68 -8.34c15.46,-177.03 219.71,-1759.69 994.6,-2527.11l17.2 16.8c-6.07,6.52 -613.52,670.53 -989.79,2523.44l-2.08 8.73 -17.07 1.93z"/>
  </g>
  <g id="_2852084293120">
   <polygon class="fil1 str1" points="55959.3,17550.41 55959.56,17550.41 "/>
   <path class="fil1 str1" d="M37943.51 10241.14c-1078.37,-13.82 -1931.52,279.86 -2618.35,888.5 -965.05,855.05 -1543.97,2269.73 -2116.49,4130.77 -506.96,1650.74 -681.61,3378.83 -491.89,4865.86 172.17,1348.28 622.52,2278.53 1204.84,2488.44 1164.77,418.63 3455.43,786.57 3478.44,790.16 220.66,52.94 459.23,68.61 711.49,46.69l10.06 0.13c914.66,11.74 1859.66,-541.58 2664.41,-1559.13 830.7,-1050.47 1432.37,-2508.11 1694.16,-4104.23 42.87,-261.05 77.87,-535.31 103.94,-815.3 33.34,-284.6 59.56,-575.25 77.89,-864.38 -8.94,-235.83 -23.34,-470.36 -42.94,-697.07 -66.16,-1274.66 -362.08,-2384.29 -855.71,-3209.58 -797.57,-1461.1 -1846.9,-1666.41 -1857.37,-1668.28 -726.55,-187.16 -1377.69,-285.05 -1962.46,-292.58zm-80.61 13260.08c-164.05,-2.19 -321.8,-21.13 -470.76,-56.95 -21.42,-3.4 -2315.75,-371.87 -3484.11,-791.76 -596.8,-215.04 -1057.08,-1157.49 -1231.13,-2521.1 -190.43,-1492.65 -15.33,-3226.73 493.31,-4882.8 1048.48,-3408.03 2210.77,-5922 6744.37,-4754.1 9.13,1.61 1076.68,209.05 1883.65,1687.54 496.64,830.17 794.49,1946.19 860.91,3226.78 19.73,226.99 34.21,462.5 43.15,699.35l0 2.06c-18.49,290.12 -44.76,581.84 -78.16,866.97 -26.14,280.38 -61.28,555.65 -104.28,817.64 -262.79,1602.79 -867.39,3066.82 -1702.36,4122.56 -812.42,1027.48 -1768.95,1586.19 -2694.06,1574.32l-10.47 -0.13c-84.75,7.41 -168.24,10.6 -250.05,9.6z"/>
   <path class="fil1 str1" d="M59551.69 8521.12c-224.06,-2.82 -426.63,42.07 -610.67,134.62 -733.47,369.07 -1131.56,1473.63 -1535.97,3136.38 -214.65,877.1 -514.37,1772.49 -778.76,2562.51 -443.62,1325.47 -794.09,2372.29 -470.42,2509.51 771.56,327.54 2885.39,447.02 2906.65,448.1 76.89,-3.67 158.09,-13.27 239.39,-28.62l2.99 -0.53 3.01 0.34c296.39,32.79 614.07,-148.51 921.05,-524.18 578.06,-609.38 978.95,-1730.69 1192.46,-3333.88l0 -0.06c6.65,-49.48 12.93,-98.84 18.94,-148.04 33.47,-270.52 60.54,-535.04 82.6,-808.83 1.68,-129.63 1.29,-264.79 -1.27,-424.02 6.88,-850.11 -97.82,-1623.6 -294.58,-2178.64 -311.74,-973.8 -763.09,-1124.56 -767.57,-1126.04 -337.05,-142.42 -638.06,-215.17 -907.84,-218.63zm-489.43 8831.39c-23.27,-1.29 -2144.16,-121.1 -2922.13,-451.29 -357.8,-151.7 -19.87,-1161.65 448.02,-2559.47 264.26,-789.16 563.59,-1683.8 777.83,-2559.18 417.61,-1717.09 806.36,-2785.04 1557.05,-3162.76 416.61,-209.52 923.71,-182.64 1550.32,82.2 17.26,5.22 473.03,154.77 791.95,1150.97 198.05,558.73 303.46,1337.15 296.66,2191.32 2.53,159.17 2.93,294.66 1.13,426.02 -22.27,275.72 -49.33,540.77 -82.88,811.82 -6.07,49.41 -12.27,98.89 -19,148.57 -214.59,1611.8 -619,2740.62 -1202.04,3355.14 -314.14,384.42 -643.01,571.6 -952.67,537.86 -82.22,15.33 -164.29,24.99 -244.24,28.81z"/>
   <path class="fil1 str1" d="M20420.28 21724.92c5071.43,704.34 12670.71,1192.19 12746.93,1196.99 8.73,1.66 596.8,114.75 860.38,-227.52 256.25,-331.93 347.67,-3891.26 348.6,-3927.2 557.39,-5240.74 1966.74,-7120.18 4059.96,-8454.38 706.8,-450.1 1516.18,-478.7 2279.46,-80.82 1152.44,600.86 1971.54,2055.95 2038.28,3620.94 129.83,2943.2 -207.37,4735.84 -512.97,5721.49 -255.85,824.58 -526.97,1232.19 -645.07,1383.08 2264,-1016.14 13109.66,-3947.06 14435.07,-4194.71 1345.33,-251.26 1369.68,-498.3 1369.81,-500.7l-0.4 -6.67 3.59 -4.54c79.82,-124.83 103.69,-383.08 143.1,-810.89 67.93,-737.03 181.62,-1970.67 691.93,-4021.48 697.01,-2231.19 1427.02,-2915.74 1916.8,-3097.23 376.67,-139.63 620.99,8.39 631.25,14.72 716.21,442.11 1011.74,1680.95 878.39,3682.08 -80.82,1213.51 -303.94,2352.87 -384.74,2737.56 191.23,-389.81 509.83,-1371.34 538.5,-3609.52 31.4,-2448.84 -684.08,-3291.01 -1027.81,-3695.77 -30.62,-35.93 -58.29,-68.54 -82.3,-98.55 -90.61,-112.54 -203.23,-289.59 -333.59,-494.63 -291.06,-457.55 -689.68,-1084.28 -1103.96,-1372.81 -588.78,-409.61 -3398.56,-1004.67 -3426.97,-1010.66l-6.6 -1.4 -4.46 -5.27c-1619.72,-1887.05 -3215.39,-2854.92 -4268.8,-3334.67 -1141.23,-519.71 -1909.52,-594.13 -1917.06,-594.85 -7949.94,-960.59 -14770.72,-95.96 -16828.55,473.29 -1834.56,507.56 -5323.33,3304.26 -5358.34,3332.48l-22.81 18.33 -70.01 -217.86c-12.53,-7.05 -121.42,-55.34 -688.54,106.7 -625.39,178.96 -537.63,1062.07 -536.76,1071.09l2.67 24 -24.14 -1.87c-1000.34,-77.02 -4512.25,197.37 -4547.66,200.17 -4742.04,-443.88 -7253.74,734.55 -8199.19,1178.11l-33.21 15.67c-925.53,432.03 -2398.09,1567.99 -3031.55,2507.17 -65.29,97.02 -136.22,198.39 -211.38,305.81 -654.27,934.66 -1550.45,2214.78 -1200.11,4123.03 388.48,2112.43 1005.73,4191.91 1011.87,4212.72l5.54 18.41 -18.15 6.33c-14.01,4.93 -343.67,125.22 -348.41,493.82 -10.13,791.31 967.87,1103.9 1035.35,1124.43l289.93 -28.81 4.27 1.53c19.47,7.14 1956.59,715.69 3885.99,1098.7 1929.73,383.34 5455.63,986.26 5491.05,992.33l5.25 0.93 159.57 130.89zm12965.03 1257.67c-123.62,-1.53 -213.83,-19.01 -223.3,-20.81 -73.55,-4.59 -7679.97,-492.84 -12752.78,-1197.77l-5.54 -0.81 -160.3 -131.35c-156.09,-26.67 -3591.19,-615 -5486.85,-991.67 -1888.11,-374.76 -3783.3,-1060.75 -3887.58,-1098.76l-288.53 28.81 -3.67 -1.13c-10.79,-3.14 -1078.88,-318.34 -1068.08,-1164.71 4.4,-346.2 283.6,-491.57 357.54,-523.97 -60.67,-206.23 -637.87,-2187.9 -1007.73,-4199.66 -353.4,-1924.72 548.37,-3212.7 1206.71,-4153.24 75.08,-107.21 145.96,-208.45 210.98,-305.18 637.13,-944.66 2117.63,-2086.89 3047.82,-2521.19l33.19 -15.59c948.27,-444.83 3466.64,-1626.26 8216.68,-1181.78 31.74,-2.74 3494.24,-272.86 4526.92,-201.91 -9.47,-146.43 -30.15,-919.05 567.57,-1090.09 631.01,-180.24 721.62,-107.15 733.49,-90.69l2.8 5.54 53.74 167.03c306.2,-243.92 3585.8,-2833.58 5350.02,-3321.61 2060.35,-569.97 8888.4,-1436.1 16843.35,-474.56 7.2,0.66 780.56,75.42 1927.59,597.32 1056.55,480.89 2656.47,1450.76 4280.28,3340.87 188.11,39.88 2848.11,607.4 3434.83,1015.67l0.13 0c420.8,293.12 821.97,923.79 1114.83,1384.29 129.68,203.97 241.71,380.15 330.93,491.02 23.93,29.75 51.34,62.02 81.67,97.7 346.96,408.4 1068.95,1258.38 1037.43,3722.21 -32.55,2535.52 -438.02,3468.78 -610.93,3752.3l-64.34 105.68 27.6 -120.69c3.01,-13.67 314.73,-1385.82 413.56,-2868.92 90.88,-1364.59 15.54,-3104.55 -859.58,-3644.79 -2.32,-1.55 -239.39,-144.03 -597.78,-10.55 -480.83,179.24 -1199.13,857.24 -1890.32,3069.69 -509.24,2046.82 -622.73,3278.54 -690.62,4014.48 -40.86,443.43 -63.6,689.94 -146.3,824.16 -5.59,51.68 -104.28,291.99 -1402.41,534.38 -1341.66,250.71 -12443.65,3252.13 -14508.41,4229.79l-104.01 49.28 81.09 -81.56c14.54,-14.72 1454.3,-1531.57 1206.71,-7145.12 -66.21,-1551.17 -876.57,-2992.67 -2016.62,-3587.05 -749.95,-390.88 -1545.04,-362.89 -2239.31,79.01 -2083.15,1327.81 -3485.85,3199.98 -4041.42,8423.18 -3.61,145.5 -92.75,3606.8 -356.88,3949.14 -173.76,225.65 -469.68,266.17 -674.14,263.58z"/>
   <path class="fil1 str1" d="M42720.94 6665.94c1753.83,267.64 3525.86,357.73 5267.27,267.64 1396.61,-72.28 2776.76,-259.99 4101.9,-557.78 1800.76,-404.68 3137.97,-942.12 3597.25,-1171.44l231.79 -590.78 -106.81 -109.69c-568.65,-618.93 -2536.79,-2682.87 -3994.22,-3265 -1147.09,-454.88 -2218.92,-711.73 -3185.37,-763.49 -918.2,-49.2 -1407.55,105.22 -1535.52,153.71 -920.65,347.81 -2062.89,1973.52 -2859.06,3276.06 -819.28,1340.47 -1449.61,2622.2 -1517.24,2760.77zm3623.47 319.45c-1211.57,-15.54 -2430.01,-116.28 -3639.99,-301.65l-13.42 -2.08 5.88 -12.19c6.54,-13.48 660.27,-1361.55 1524.04,-2774.7 797.89,-1305.34 1943.26,-2934.66 2869.11,-3284.47 129.02,-48.8 620.52,-204.44 1543.85,-154.97 968.59,51.83 2042.47,309.21 3191.7,764.9 625.2,249.71 1414.89,799.29 2347.22,1633.65 764.94,684.4 1411.62,1372.28 1654.12,1636.21l115.7 118.76 -239.44 609.99 -3.35 1.74c-456.75,228.76 -1798.1,768.69 -3605.32,1174.82 -1326.28,298.08 -2707.48,485.9 -4105.31,558.25 -545.65,28.2 -1094.68,38.75 -1644.81,31.74z"/>
   <path class="fil1 str1" d="M49583.61 509.22c0,0 -90.16,-14.8 -244.85,-34.74 82.94,11.08 164.56,23 244.85,34.74z"/>
   <path class="fil1 str1" d="M56695.17 8111.57c0,0 0.08,-3.01 -0.4,-9.87 -0.06,6.86 0.4,9.87 0.4,9.87z"/>
   <polygon class="fil1 str1" points="58504.55,7469.56 58501.55,7472.83 "/>
   <path class="fil1 str1" d="M30943.69 16193.4c-803.37,-10.26 -4147.72,907.12 -4855.26,1167.03 -515.63,188.77 -835.56,609.99 -1240.71,1143.24 -132.1,173.76 -268.59,353.48 -426.23,545.57l-43.74 53.36c-469.63,571.64 -840.38,1023.27 -762.09,1267.91 26.2,81.96 101.88,138.91 231.45,173.84 616.98,166.84 1956.74,284.66 3258.99,284.39 1504.37,0.66 2624,-143.37 3071.75,-395.29 847.18,-477.75 1204.78,-1972.78 1396.95,-2775.95 35.53,-148.38 66.16,-276.47 92.75,-367.75 102.96,-352.13 88.02,-625.73 -44.53,-813.5 -119.84,-169.7 -336.07,-264.45 -642.93,-281.65l0.06 0c-11.45,-0.68 -23.72,-1.08 -36.46,-1.21zm-4126.04 4653.49c-1222.98,-15.61 -2393.15,-125.64 -2975.81,-283.13 -136.62,-36.95 -216.91,-98.16 -245.38,-187.11 -81.54,-255.19 292.33,-710.49 765.68,-1286.87l43.81 -53.26c157.43,-191.77 293.8,-371.41 425.76,-544.99 407.08,-535.91 728.69,-959.14 1249.78,-1150.04 708.28,-260.1 4057.43,-1178.56 4863.2,-1168.22 12.8,0.13 25.06,0.53 36.46,1.19l0.08 0c313.25,17.62 534.7,115.3 658.21,290.14 136.28,193.04 152.21,472.48 47.4,830.7 -26.41,90.95 -57.01,218.84 -92.43,366.8 -192.91,806.17 -551.85,2306.79 -1406.74,2788.89 -450.69,253.53 -1573.85,398.56 -3081.64,397.74 -96.21,0 -192.57,-0.59 -288.38,-1.85z"/>
   <path class="fil1 str1" d="M19382.14 11689.96c-2666.2,-34.14 -6915.33,-682.48 -6915.33,-682.48 0,0 -1074.42,-73.34 -1196.84,-686.07 -120.36,-612.05 -13.61,-929.39 553.51,-1592.79 0,0 270.73,-310.53 1208.45,-887.84 488.17,-302.33 3171.97,-1851.78 8364.43,-2324.35 0,0 -2960.59,153.84 -5920.26,1189.11 -683.34,239.65 -1366.14,525.44 -2013.42,867.58 0,0 -58.88,25.21 -157.75,73.81 -544.32,264.92 -2296.94,1221.26 -2135.98,2469.91 154.37,894.3 984.28,883.78 1750.16,997.34 767.95,114.15 5656.15,757.68 6985.89,608.78 1329.26,-149.23 2661.19,-380.94 4815.43,-1660.66 2153.63,-1280.2 5313.81,-3113.77 10446.79,-3891.85 0,0 -5076.56,400.67 -10706.91,4010.14 0,0 -2412.15,1543.59 -5078.16,1509.38z"/>
   <path class="fil1 str1" d="M56548.08 6725.48l-5.33 -3.74c-15.14,-7.92 -1452.5,-797.09 -2009.02,-996.79l-11.93 30.87c536.23,191.7 1893.51,933.32 1998.68,990.74 351.61,1561.72 77.61,3127.44 -943.47,5400.57 -404.89,903.3 -1154.1,1691.21 -2225.72,2341.4 -890.03,540.03 -1824.37,874.91 -2381.6,1074.76 -105.56,37.8 -197.18,70.62 -277.13,100.4 -409.8,153.78 -1520.04,491.04 -2968.8,902.73 -1226.99,348.66 -2300.67,636.98 -2395.08,643.39 -21.21,2.34 -38.8,-4.86 -53.34,-21.13 -93.09,-103.62 -20.89,-506.31 -20.28,-510.7 267.66,-1729.35 605.19,-4240.34 702.68,-6383.9 59.54,-1283.07 2,-1832.18 1.74,-1837.11 -37.88,-280.86 -168.58,-545.52 -389.82,-788.1 -177.43,-192.97 -409.82,-371.81 -694.27,-532.57 -484.24,-273.26 -954.2,-399.09 -959,-399.69l-7.86 30.73c4.46,1.55 471.57,126.17 951.99,397.03 279.99,159.09 511.57,336.07 685.48,527.03 216.04,236.72 345.41,495.9 380.81,769.23 1.74,5.27 70.94,551.98 -2,1831.5 -121.29,2144.77 -434.41,4652.09 -701.07,6380.83 -2.32,16.67 -76.15,421.28 28.28,537.24 17.73,20.87 41.41,32.28 69.54,32.61l10.21 -0.4c96.1,-6.8 1172.44,-296.32 2400.49,-644.73 1450.9,-412.35 2561.4,-749.48 2972.46,-903.58 78.95,-29.34 170.3,-62.73 276.13,-100.22 559.18,-200.64 1494.56,-536.39 2388.09,-1078.56 1076.74,-653.12 1829.57,-1444.7 2238.78,-2354.67 1024.4,-2283.86 1297.72,-3857 942.73,-5428.05l-2.34 -7.13z"/>
   <path class="fil1 str1" d="M9278.3 13388.9c-14.21,-0.19 -25.8,4.48 -35.69,14.01 -41.07,39.49 -88.74,198.71 53.28,821.5 161.83,705.16 732.36,2117.23 1844.05,2936.27 20.94,14.74 2024.48,1385.87 6214.26,1439.82 330.21,4.22 673.27,0.21 1030.74,-13.27 3194.52,-266.78 4271.41,-1374.14 4586.06,-1837.77 204.12,-300.8 280.8,-606.32 210.26,-838.3 -0.81,-3.59 -30.94,-152.84 -145.84,-307.39 -153.56,-206.52 -377.54,-323.99 -665.73,-349.34 -678.81,-59.94 -6918.15,-719.14 -8744.97,-986.13 -2424.57,-353.55 -3289.67,-591.65 -4052.95,-801.76 -91.69,-25.21 -181.64,-49.96 -272.33,-74.36 -7.6,-2.06 -14.61,-3.19 -21.13,-3.27zm8076.96 5251.6c-2032.34,-25.93 -3524.71,-359.87 -4463.9,-659.4 -1183.84,-377.48 -1769.08,-783.69 -1774.96,-787.83 -1121.42,-826.37 -1696.6,-2249.31 -1859.77,-2959.99 -111.56,-489.57 -125.69,-778.7 -41.94,-859.37 17.07,-16.48 47.42,-33.47 95.15,-20.6 90.82,24.4 180.85,49.2 272.52,74.42 762.22,209.83 1626.07,447.55 4048.17,800.69 1826.37,266.93 8064.03,926.06 8742.63,985.94 374.82,32.95 585.19,217.63 695.61,366.88 119.76,161.76 150.3,313.73 151.57,320.12 73.47,241.79 -5.07,559.79 -216.04,870.72 -317.87,468.44 -1404.23,1586.93 -4616.87,1855.39 -358.07,13.4 -702.34,17.33 -1032.15,13.06z"/>
   <path class="fil1 str1" d="M24346.15 19980.18c-22.81,12.72 -204.51,118.08 -213.51,242.77 -4.01,55.29 27.14,107.76 92.54,155.9 285.79,209.66 2606.27,505.5 5358.02,206.84l0.42 0c23.59,0.28 891.77,3.21 1403.02,-1097.61 8.39,-22.42 871.09,-2311.67 717.75,-2851.46 -141.7,-497.9 -574.19,-458.42 -782.43,-439.69 -17.14,1.61 -32.61,3.01 -46.29,3.93 -154.82,10 -702.53,57.95 -1544.31,267.72l517.16 -70.62 -2.67 13.74c-5.12,26.41 -524.5,2637.34 -1461.08,3159.65 -924.26,515.03 -3929.73,412.49 -4038.62,408.82zm2629.93 750.14c-1498.91,-19.2 -2573.32,-196.18 -2762.83,-335.33 -71.35,-52.47 -105.15,-110.89 -100.61,-173.57 10.32,-143.37 217.57,-255.59 226.36,-260.25l2.48 -1.32 2.67 0.13c31.13,1.27 3099.24,113.01 4030.81,-406.21 893.32,-498.11 1406.29,-2925.66 1448.36,-3132.05l-662.14 90.42 -3.93 -19.73c939.06,-247.06 1551.64,-300.93 1717.09,-311.67 13.46,-0.87 28.86,-2.27 45.87,-3.74 213.3,-19.34 657.2,-59.94 803.56,454.09 155.11,546.12 -682.87,2770.37 -718.67,2864.78 -514.91,1108.89 -1390.15,1110.29 -1420.43,1109.89l-0.74 -0.06c-940.31,102.14 -1831.23,134.56 -2607.85,124.62z"/>
   <g>
    <polygon class="fil1 str1" points="11043.39,16522 11037.99,16514.06 "/>
    <path class="fil1 str1" d="M11037.99 16514.06c-63.41,-84.34 -585.85,-836.37 -966.73,-2894.78 0,0 173.04,1855.97 966.73,2894.78z"/>
    <path class="fil1 str1" d="M11928.49 16909.88c-63.41,-84.49 -622.92,-1081.75 -845.9,-3053.76 0,0 53.94,2014.75 845.9,3053.76z"/>
    <path class="fil1 str1" d="M12542.62 14901.28c-58.88,-291.93 -102.88,-572.79 -120.95,-819.3 0,0 20.39,331.34 93.49,816.17 9.39,0.08 18.52,1 27.46,3.14z"/>
    <path class="fil1 str1" d="M14176.82 15165.86l10.74 1.13 10.4 -0.87c8.81,0.13 16.88,1.21 24.69,2.74 -42.41,-251.99 -80.96,-515.84 -112.77,-790.5 0,0 5.33,317.39 59.75,788.1l7.2 -0.6z"/>
    <path class="fil1 str1" d="M16106.47 15429.52c7.54,0.13 14.35,1.19 21.08,2.4 -50.81,-262.86 -100.03,-539.18 -145.5,-826.84 0,0 25.69,333.61 101.03,826.5 7.47,-1.19 15.06,-2.14 23.4,-2.06z"/>
    <path class="fil1 str1" d="M19023.01 18163.6c-45.21,-94.89 -533.17,-1430.82 -823.9,-3307.66 0,0 76.61,1715.42 823.9,3307.66z"/>
    <path class="fil1 str1" d="M21330.93 17580.62c-40.07,-97.63 -433.01,-1528.11 -557.52,-2461.63 0,0 -26.8,1003.48 557.52,2461.63z"/>
    <path class="fil1 str1" d="M23200.52 15905.21c-10328.24,-659.26 -13059.39,-1691.08 -13550.75,-1919.18 3221.59,1599.86 13550.75,1919.18 13550.75,1919.18z"/>
    <path class="fil1 str1" d="M9649.77 13986.03c-31.13,-15.67 -60.54,-30.75 -89.74,-45.61 0,0 25.67,15.67 89.74,45.61z"/>
    <path class="fil1 str1" d="M16846.03 16188.54l-3.67 14.8 0.74 2.46c3.46,22.61 7.39,45.16 11.06,67.76 3212.06,312.46 6198.32,327.92 6198.32,327.92 -2481.63,-77.34 -4527.24,-228.05 -6206.45,-412.94z"/>
    <path class="fil1 str1" d="M11421.86 15311.29c-9.66,-29.73 -17.81,-59.94 -23.66,-92.54l-0.08 -5.01c-1164.9,-333.06 -1588.31,-591.84 -1588.31,-591.84 406.61,271.71 962.73,505.9 1616.85,708.07 -1.53,-6.2 -3.19,-12.47 -4.8,-18.67z"/>
    <path class="fil1 str1" d="M11584.22 15951.29c-941.39,-299.46 -1332.01,-531.77 -1332.01,-531.77 375.82,243.05 841.78,453.56 1368.15,636.87 -10.66,-35.48 -22.45,-70.62 -36.14,-105.09z"/>
    <path class="fil1 str1" d="M16986.66 16971.63c7.47,23.74 8.68,49.14 4.06,72.68 2921.87,262.18 5552.67,212.77 5552.67,212.77 -2188.58,-16.54 -4025.01,-126.75 -5556.73,-285.45z"/>
    <path class="fil1 str1" d="M17032.19 17743.85c-6.12,7.41 -12.8,14.35 -20.39,20.47 548.58,50.2 1143.1,93.62 1789.63,127.49 -537.37,-33 -1137.49,-80.61 -1769.23,-147.96z"/>
    <path class="fil1 str1" d="M11851.09 16662.1c-326.47,-119.97 -638.81,-250.65 -930.99,-393.55 0,0 233.85,217.39 961.91,496.77 -14.86,-33.55 -25.06,-67.95 -30.92,-103.22z"/>
    <path class="fil1 str1" d="M21208.64 17967.7c-872.25,-11.13 -1672.06,-37.61 -2407.22,-75.89 1420.69,87.02 2407.22,75.89 2407.22,75.89z"/>
    <polygon class="fil1 str1" points="11412.86,14842.53 11405.79,14849.53 11399.06,14858.99 "/>
    <path class="fil1 str1" d="M11375.38 14896.27c3.08,-6.12 6.48,-12.27 10.28,-18.39 -3.74,5.99 -7.2,12.13 -10.28,18.39z"/>
    <path class="fil1 str1" d="M11351.92 15022.23c1.93,62.28 17.65,128.83 33.74,192.98 7.13,31.47 29.73,135.69 59.88,275.64 -44.15,-220.98 -80.35,-402.15 -93.62,-468.62z"/>
   </g>
   <path class="fil1 str1" d="M43893.24 6799.16c230.05,25.8 3022.42,316.13 6995.28,-241.5 2367.62,-398.82 2994.96,-578.86 3622.6,-789.63 552.66,-186.18 1127.78,-542.85 1192.46,-583.45 -17.88,-79.16 -184.78,-810.31 -288.32,-975.73 -66.55,-106.7 -1533.78,-1584.66 -2900.26,-2289.27 -1550.51,-800.29 -3302.07,-1015.14 -5064.89,-621.46 -724.47,161.36 -1351.74,843.23 -2097.42,2279.99 -691.55,1328.47 -1406.16,3123.37 -1413.3,3141.31l-46.14 79.75zm1864.04 116.09c-1180.7,-15.06 -1867.77,-96.15 -1881.64,-97.89l-15.14 -1.8 60.81 -104.83c6.54,-16.67 721.41,-1812.56 1413.57,-3141.9 371.87,-716.69 696.27,-1219.58 1020.74,-1582.85 348.73,-390.35 705.35,-621.8 1090.09,-707.48 1767.5,-394.89 3523.78,-179.43 5078.5,623.18 1416.42,730.35 2870.25,2235.93 2908.18,2296.47 110.69,177.03 284.92,955.87 292.41,988.94l1.46 6.86 -5.94 3.8c-6.12,3.87 -616.85,391.94 -1202.78,589.33 -628.59,211.03 -1256.65,391.34 -3625.93,790.42 -2114.96,296.92 -3896.07,353.61 -5134.32,337.73z"/>
   <path class="fil1 str1" d="M37804.08 5906.12c1416.68,18.13 3322.27,332.19 3447.89,353.19 2834.58,-4100.03 4046.37,-5103.49 4215.86,-5233.38l-16.8 -1.81c-3460.24,-378.86 -6696.02,-308.32 -8800.98,-182.36 -2254,134.9 -3727.09,360.21 -3775.49,367.67 -664.93,266.11 -1984.81,1004.14 -3518.4,2209.37 -1206.31,948.48 -1985.6,1801.31 -2096.15,1924.4 175.1,12.74 1492.04,103.3 4489.44,179.85 3174.71,80.01 5053.23,421.41 5120.65,433.88 257.31,-41.47 580.45,-55.34 933.98,-50.81zm3457.17 375.14l-6.28 -1.08c-30.54,-5.12 -3069.28,-515.63 -4383.42,-303.12l-1.74 0.26 -1.66 -0.32c-18.73,-3.48 -1903.51,-352.81 -5119.29,-433.9 -3216.26,-82.07 -4498.12,-180.36 -4510.65,-181.36l-20.15 -1.53 13.34 -15.08c7.94,-9.05 812.76,-920.31 2112.43,-1942.13 1535.97,-1207.16 2858.51,-1946.45 3524.24,-2212.64l2.21 -0.6c14.67,-2.32 1496.83,-231.51 3778.56,-368.07 2105.83,-126.02 5342.63,-196.71 8804.4,182.44l69.54 7.54 -22.74 15.46c-11.4,7.73 -1180.7,830.3 -4235.2,5248.86l-3.59 5.27z"/>
   <path class="fil1 str1" d="M46059.96 7151.64c333.86,319.93 602.52,206.52 625.73,195.78l749.88 -854.71 4.67 0c964.6,12.4 2482.16,-389.96 3063.63,-812.23 288.59,-209.71 357.12,-409.35 363.8,-539.84 7.2,-140.44 -53.34,-232.58 -53.94,-233.45 -317.47,-635.13 -2003.27,-512.44 -2626.13,-411.62 -665.46,107.49 -1062.02,394.15 -1247.72,902.11 -169.57,464.56 126.96,717.22 129.91,719.75l8.47 7.01 -7.75 7.79 -1010.53 1019.41zm467.7 243.72c-120.42,-1.53 -294.94,-47.22 -488.96,-236.31l-7.28 -7.07 1017.41 -1026.41c-47.95,-45.61 -286.4,-300.8 -127.89,-734.76 188.5,-515.58 589.97,-806.36 1263.51,-915.11 369.54,-59.82 949.87,-109.76 1470.84,-70.14 641.46,48.6 1037.09,213.96 1175.77,491.55 2,2.8 64.28,97.49 56.76,244.53 -6.94,134.88 -77.16,340.74 -372.08,555.04 -583.39,423.62 -2102.96,827.3 -3071.09,816.22l-748.16 851.59c-1.34,0.72 -64.95,32.21 -168.83,30.87z"/>
   <path class="fil1 str1" d="M47261.65 6117.29l-1068.27 1137.49c0,0 2.61,11.47 47.88,34.02l1075.55 -1143.37c0,0 -27.27,-30.02 -55.15,-28.14z"/>
  </g>
  <g id="_2852005753280">
   <path class="fil1" d="M17178.22 17524.35c-23.19,-106.62 -336.33,-1749.56 -336.33,-1749.56 0,0 -86.29,-262.05 -362.61,-314.41 -278.06,-52.07 -4859.45,-731.15 -4859.45,-731.15 0,0 -93.81,0.13 -195.1,101.35 21.87,-19.73 49.01,-36.93 84.62,-47.06l4935.4 756.68c0,0 197.9,101.48 234.64,270.2 34.4,167.49 350.94,1703.14 372.28,1847.96 0,0 -27.09,105.36 -84.83,170.64 44.02,-19.2 92.09,-39.6 127.3,-52.94 81.28,-31.81 106.94,-145.56 84.07,-251.71z"/>
   <g>
    <g>
     <path class="fil1" d="M60361.4 9690.95c-390.96,1194.97 -420.37,2345.88 -420.37,2345.88 63.62,-886.52 420.37,-2345.88 420.37,-2345.88z"/>
     <path class="fil1" d="M60089.54 13942.88c-56.82,-25.93 -102.03,27.8 -102.03,27.8 221.85,262.86 320.8,555.72 345.75,595.45 63.6,17.81 229.92,73.41 229.92,73.41 -12.61,-60.6 -117.76,-241.58 -117.76,-241.58 0,0 -298.08,-427.42 -355.88,-455.09z"/>
     <path class="fil1" d="M60332.65 14574.21c0,0 -165.63,536.92 -393.87,819.04l35.67 356.54c0,0 172.7,-173.23 370.34,-553.72 195.18,-380.73 232.92,-519.96 227.44,-530.04 -3.38,-9.21 -239.58,-91.82 -239.58,-91.82z"/>
     <path class="fil1" d="M61221.62 11624.75c-36.2,2.4 -265.85,201.38 -265.85,201.38 84.15,695.14 -102.28,1750.43 -102.28,1750.43l27.8 -120.7c20.87,-143.69 87.55,-577.04 93.68,-473.03 3.87,103.75 -99.82,614 -82.07,632.41 18.52,19.87 179.22,134.75 190.49,116.55 10.07,-17.6 81.62,55.74 166.11,-976.87 85.89,-1032.27 2.14,-1131.42 -27.88,-1130.16z"/>
     <path class="fil1" d="M60419.27 9611c-33.68,-11.47 -95.62,283.2 -101.09,312.99 0,0 238.31,132.37 464.96,855.12 0,0 -3.06,25.93 37.75,23.59 40.52,-2.4 211.83,-111.75 241.03,-231.71 0,0 -152.89,-789.21 -642.65,-959.99z"/>
     <path class="fil1" d="M59283.58 10386.83c-235.25,382.21 -237.12,529.37 -238.78,662.86 48.86,-194.23 161.23,-384.74 355.54,-692.87 274.98,-437.21 386.14,-384.21 386.14,-384.21 -13.27,26.14 -25.74,43.34 -25.74,43.34l78.08 -94.28c91.09,-116.43 59.09,-233.91 59.09,-233.91 -147.17,-20.81 -376.74,316.58 -614.32,699.07z"/>
     <path class="fil1" d="M59456 16039.24c86.7,174.71 -33.66,69.41 -33.66,69.41 -335.33,-130.55 -600.65,-682.66 -600.65,-682.66 0,0 -4.27,82.28 127.28,278.06 132.16,193.78 495.97,676.86 542.19,685.01 46.54,7.73 63.34,-108.83 63.34,-108.83 4.33,-88.69 -107.68,-261.31 -98.5,-240.97z"/>
     <path class="fil1" d="M59484.08 13324.69c10,-11.21 15.73,-17.2 14.33,-16.07 -2.46,1.61 -7.86,6.46 -14.33,16.07z"/>
     <path class="fil1" d="M59018.58 12904.81c22.21,170.36 -19.53,353 -90.48,494.24 -135.69,273.05 -350.07,518.77 -350.07,518.77 0,0 -59.14,-762.96 118.63,-1558.86 0,0 301.33,375.42 321.93,545.86zm447.15 -187.18c-123.14,-93.81 -597.12,-474.43 -721.41,-542.38 -45,-23.87 -61.41,20.28 -88.21,165.5 -24.93,145.11 -86.15,598.46 -104.75,871.06 -20.34,272.79 -35.8,1249.84 46.27,1289.46 0,0 350.47,-511.17 485.11,-677.94 120.69,-146.83 340.26,-429.29 401.35,-498.64 -95.36,94.36 -607.87,580.65 -680.55,668.07 0,0 84.62,-152.5 169.3,-276 82.83,-123.01 262.79,-342.53 262.13,-684.27 -1.8,-342.14 -339.81,-625.26 -339.81,-625.26 0,0 563.98,352.42 607.59,376.95 0,0 85.96,27.2 -37.01,-66.55z"/>
     <polygon class="fil1" points="60665.97,11068.23 60669.58,11063.56 "/>
     <polygon class="fil1" points="60751.12,13566.27 60747.46,13563.41 "/>
     <path class="fil1" d="M60612.18 12134.57c32.26,-30.13 65.34,-60.67 100.61,-93.62 0,0 -43,33.61 -100.61,93.62z"/>
     <path class="fil1" d="M59698.79 13511.45c-48.22,-64.53 -136.36,51.22 -136.36,51.22 36.67,-36.69 93.15,-29.28 93.15,-29.28 68.56,27.46 19.15,349.73 19.15,349.73 -42.62,208.45 -213.06,1691.55 -230.99,1729.16 -17.12,37.33 20.34,-228.18 50.22,-781.84 28.28,-552.83 -14.35,-659.87 -66.16,-696.33 -52.34,-35.74 -174.5,105.81 -174.5,105.81 24.14,-23.14 33.68,2.87 33.68,2.87 79.14,184.91 -99.84,1620.33 -99.84,1620.33 0,0 137.11,54.02 236.85,116.15 98.42,61.75 138.89,269.14 138.89,269.14 16.54,-95.04 26.41,-634.33 29.15,-849.11 5.73,-214.25 64.34,-1067.74 123.35,-1447.36 60.09,-379.01 -16.6,-440.5 -16.6,-440.5z"/>
     <path class="fil1" d="M58988.32 14852.61c330.32,-966.21 543.44,-1258.2 543.44,-1258.2 -311.4,322.33 -579.78,1166.5 -607.72,1376.48 -29.47,209.9 64.28,-118.29 64.28,-118.29z"/>
     <path class="fil1" d="M60251.03 13826.86c-68.4,-123.09 -188.77,-439.55 -251.84,-434.17 -60.88,6.01 -87.68,88.42 -87.68,88.42 22.53,-41.73 45.06,-69.54 96.08,-50.94 49.09,20.21 265.79,577.04 339.47,729.41 73.15,151.84 234.51,468.83 234.51,468.83 99.82,35.55 232.85,196.97 232.85,196.97 -14.86,-72.47 -93.35,-226.91 -174.5,-339.39 -79.82,-113.48 -320.46,-536.05 -388.88,-659.13z"/>
     <path class="fil1" d="M59887.89 12560.8c-87.68,-18.01 -181.57,151.7 -206.65,377.88 -26.01,227.71 25.08,425.81 113.3,443.35 88.55,17.67 181.04,-151.97 207.5,-378.62 26.75,-226.7 -25.67,-425.28 -114.15,-442.62z"/>
     <path class="fil1" d="M59766.34 12296.88c-12.74,119.23 -59.82,208.37 -105.22,200.24 -44.68,-8.34 -69.35,-111.69 -57.42,-230.58 14.4,-119.57 60.88,-208.65 105.77,-200.19 44.93,8.68 70.2,111.84 56.87,230.52zm115.96 -2399.75l-150.51 530.24c0,0 -23.8,-22.28 -27.27,433.49 -2.59,456.15 -78.08,948.19 -170.36,1056.14 -93.54,107.62 -253.92,-160.49 -253.92,-160.49 90.22,280.25 300.27,816.56 418.16,780.03 118.15,-37.35 124.62,-244.66 126.62,-568.59 1.4,-324.2 57.29,-2070.81 57.29,-2070.81z"/>
     <path class="fil1" d="M60634.63 11065.03c-39.2,51.28 -607.85,1200.11 -605.32,395.08 0,0 -128.23,556.84 -89.01,835.16 -3.87,-34 -4.08,-72.75 1,-113.56 13,-118.81 58.93,-208.77 103.62,-199.69 46.27,8.2 71.49,111.82 58.67,231.05 -13.06,118.61 -60.62,208.56 -104.41,199.43 -21.02,-3.72 -37.75,-28.47 -48.61,-65.08 8.94,33.81 21.6,61.01 39.07,78.74 0,0 67.89,57.69 208.79,-251.37 140.49,-308.81 551.56,-965.13 634.39,-1110.1 0,0 -161.83,-50.07 -198.18,0.34z"/>
     <path class="fil1" d="M60241.37 12907c-13.55,118.89 -60.01,208.65 -104.22,200.45 -44.89,-8.34 -69.82,-111.76 -59.22,-230.65 13.61,-119.1 61.68,-208.58 106.36,-200.24 42.74,8.47 71.2,112.16 57.08,230.45zm374 562.85c-81.82,-57.74 -340.87,-281.2 -341.61,-621.93 -1.61,-313.92 207.92,-578.44 338.41,-713.34 -528.45,501.38 -532.85,631.27 -539.05,782.63 0,0 -6.54,136.09 41.81,206.31 53.42,104.96 581.13,409.54 632.52,439.89 -9.05,-6.54 -39.33,-26.01 -132.08,-93.56z"/>
     <path class="fil1" d="M59972.71 13434.18c-44.95,-8.68 -91.35,80.88 -105.49,199.69 -12.27,118.97 12.4,222.19 56.55,230.31 46.01,9.07 93.01,-80.41 106.55,-199.64 12.53,-118.89 -12.93,-222.77 -57.61,-230.37z"/>
     <path class="fil1" d="M59623.31 13539.46c-45.42,-9.21 -92.62,80.43 -105.75,199.32 -12.47,118.95 12.72,222.24 58.2,230.77 44.89,9.07 91.9,-80.61 105.56,-199.56 12.74,-118.89 -12.47,-222.05 -58.01,-230.52z"/>
     <path class="fil1" d="M59505.82 12838.13c-44.15,-9 -90.63,81.09 -104.22,199.85 -12.74,119.29 12.19,222.56 58.14,230.9 43.34,8.88 91.43,-81.41 104.49,-199.77 13.34,-118.81 -12.21,-221.98 -58.41,-230.98z"/>
     <path class="fil1" d="M60422.2 15015.29c0,0 130.1,-256.85 150.02,-349.26 0,0 -164.16,-77.29 -239.58,-91.82l89.56 441.08z"/>
    </g>
    <g>
     <path class="fil1" d="M40120.55 19322.84c0,0 -330.27,814.37 -820.02,1248.44l110.08 534.31c0,0 377.75,-268.38 790.76,-848.09 412.75,-580.26 484.43,-791.57 473.56,-805.37 -10,-14.59 -554.38,-129.29 -554.38,-129.29z"/>
     <path class="fil1" d="M41880.77 14850.21c-81.75,5.07 -587.91,314.05 -587.91,314.05 255.85,1041.75 -78.03,2637 -78.03,2637l53.02 -182.83c35.53,-216.71 149.76,-871.96 169.51,-715.87 21.34,156.37 -172.17,926.98 -129.36,955.13 44.87,28.33 421.35,194.97 443.43,167.11 22.87,-27.01 189.3,80.75 291.57,-1475.9 103.3,-1556.65 -96.74,-1702.21 -162.23,-1698.68z"/>
     <path class="fil1" d="M39883.16 11854.53c-77.21,-16.09 -192.57,430.22 -201.51,475.16 0,0 551.79,189.22 1133.11,1267.32 0,0 -8.54,38.54 83.81,33.32 90.61,-5.52 473.37,-176.43 527.92,-359.13 0,0 -417.63,-1180.17 -1543.32,-1416.68z"/>
     <path class="fil1" d="M37378.06 13069.1c-505.29,584.53 -494.5,805.69 -487.77,1007.01 93.17,-294.67 332.82,-585.27 747.16,-1057.08 585.79,-669.81 843.52,-593.73 843.52,-593.73 -27.62,39.62 -56.08,66.02 -56.08,66.02l170.23 -144.96c196.97,-179.19 112.63,-355.08 112.63,-355.08 -335.67,-24.93 -826.18,493.1 -1329.68,1077.82z"/>
     <path class="fil1" d="M38262.31 21563.55c210.11,258.99 -72.09,104.88 -72.09,104.88 -771.67,-181.02 -1420.14,-1001.53 -1420.14,-1001.53 0,0 -3.35,125.03 311.06,412.28 315.86,287.08 1183.78,997.49 1289.27,1007.75 106.28,10.74 135.09,-166.37 135.09,-166.37 1.74,-132.76 -268.19,-387.82 -243.19,-357.01z"/>
     <path class="fil1" d="M38085.67 17478.27c24.14,-16.67 35.8,-24.93 33,-23.87 -4.27,1.61 -16.2,10.34 -33,23.87z"/>
     <path class="fil1" d="M36994.58 16867.28c65.15,255.51 -14.35,531.38 -161.31,746.68 -283.65,417.89 -748.74,794.96 -748.74,794.96 0,0 -201.38,-1144.77 131.89,-2350.42 0,0 712.55,553.53 778.15,808.78zm998.79 -301.01c-287.85,-135.35 -1396.74,-688.26 -1685.33,-784.96 -101.56,-34.4 -137.22,32.15 -184.04,252.2 -46.4,219.9 -143.9,903.38 -164.16,1315.18 -20.55,411.16 29.13,1880.45 220.77,1936.21 0,0 748.82,-782.56 1040.62,-1039.35 258.86,-225.38 733.07,-658.92 864.44,-767.29 -206.91,146.22 -1324.94,900.24 -1484.5,1034.14 0,0 179.64,-233.04 358.47,-421.82 178.05,-188.96 569.73,-525.84 536.65,-1040.53 -32.87,-514.84 -825.98,-926.06 -825.98,-926.06 0,0 1311.8,505.97 1413.75,542.17 0,0 194.7,36.93 -90.69,-99.89z"/>
     <path class="fil1" d="M40985.52 17789.59c0,0 -3.46,-1.06 -9.6,-3.8 8.81,3.8 9.6,3.8 9.6,3.8z"/>
     <path class="fil1" d="M40760.47 15496.47c0,0 -91.54,53.13 -218.77,145.77 69.48,-46.88 143.03,-94.89 218.77,-145.77z"/>
     <path class="fil1" d="M38951.51 16215.4c-221.19,-25.46 -436.02,276.87 -480.49,673.67 -45.27,396.5 96.68,739.43 317.26,764.22 221.19,25.08 436.83,-276.72 481.04,-674.27 45.27,-396.87 -95.89,-738.67 -317.81,-763.62z"/>
     <path class="fil1" d="M38916.11 16281.03c-217.65,-24.74 -424.89,244.3 -465.9,600.92 -40.81,356.46 102.96,665.6 320.4,690.07 216.25,24.74 425.09,-244.85 464.82,-601.92 40.75,-355.88 -102.75,-665.07 -319.32,-689.07z"/>
     <path class="fil1" d="M38936.58 16312.69c-201.58,-23.27 -396.61,236.33 -435.89,579.33 -38.41,341.93 93.49,637.79 296.39,660.59 202.17,22.74 397.67,-236.31 436.89,-578.57 37.41,-342.34 -93.69,-638.61 -297.4,-661.34z"/>
     <path class="fil1" d="M38638.31 15922.28c-18.07,178.58 -117.68,315.81 -220.18,304.94 -101.8,-10.94 -169.75,-165.9 -151.95,-345.22 19.47,-179.03 118.29,-315.26 221.64,-304.52 101.95,10.94 169.96,165.58 150.49,344.8zm101.82 -498.17c-24.8,-487.77 -49.33,-3115.96 -49.33,-3115.96l-296.94 802.71c0,0 -55.34,-33.08 -20.13,653.25 33.87,686.94 -92.56,1430.5 -295.2,1595.19 -202.36,166.03 -587.17,-230.31 -587.17,-230.31 224.17,417.82 749.61,1215.78 1015.01,1154.97 263.79,-60.01 259.97,-371.68 233.77,-859.85z"/>
     <path class="fil1" d="M40496.1 14033.3c-79.82,77.95 -1268.27,1830.17 -1334.27,618.59 0,0 -242.39,844.1 -128.89,1260.39 -12,-51.02 -16.61,-109.29 -10.21,-170.96 19.73,-179.03 118.76,-315.99 220.77,-305.07 103.09,11 170.25,165.63 151.04,344.74 -19.41,179.83 -117.62,316.13 -219.12,304.99 -47.93,-5.14 -87.68,-42.02 -115.22,-97.15 23.29,50.67 54.55,91.35 95.89,117.28 0,0 158.17,84.22 452.43,-386.21 292.41,-470.08 1165.31,-1474.03 1340.81,-1695.27 0,0 -372.34,-69.14 -453.22,8.68z"/>
     <path class="fil1" d="M39675.13 16816.53c-14.95,142.97 -90.08,253.39 -169.3,244.93 -77.16,-8.34 -127.3,-131.57 -112.56,-275.73 15.73,-143.56 89.82,-252.9 167.96,-245.44 78.48,8.47 128.89,131.69 113.9,276.25zm988.06 833.84c-187.43,-82.81 -796.7,-408.95 -827.43,-920.52 -28.47,-472.5 423.88,-880.64 705.88,-1087.61 -1153.29,775.94 -1152.37,970.93 -1155.3,1199.43 0,0 -2.61,205.18 115.15,309.06 132.29,155.24 1353.27,592.2 1474.43,635.07 -22.13,-8.2 -89.88,-36.74 -312.72,-135.43z"/>
     <path class="fil1" d="M39358.86 17965.04c-16.26,143.63 -90.61,253.85 -168.22,245.3 -78.48,-8.2 -128.89,-131.42 -113.9,-275.19 15.74,-144.56 90.9,-253.77 167.71,-245.59 79.54,8.15 130.16,131.44 114.41,275.47zm-46.06 -359.15c0,0 -150.3,-51.94 -240.92,91.16 0,0 -237.04,194.23 -20.34,1365.14 0,0 14.46,-688.94 417.42,-689.07l1140.55 973.39c0,0 -1082.15,-1602.92 -1296.72,-1740.62z"/>
     <path class="fil1" d="M38352.39 18445.85c-103.28,-11.27 -170.77,-165.43 -150.76,-344.38 18.6,-180.24 117.95,-316.41 219.71,-305.41 102.54,11.21 170.49,165.5 151.29,344.48 -19.66,179.56 -117.95,316.66 -220.24,305.32zm171.83 -666.26c-91.88,-90.03 -454.16,58.22 -1050.01,1135.69 -594.72,1077.21 -695.74,1700.15 -695.74,1700.15 0,0 686.01,-1523.57 864.86,-1749.43 0,0 287.93,-275.72 451.61,-122.95 163.5,153.5 72.09,2264.26 72.09,2264.26 0,0 328.92,-2150.91 390.47,-2451.84 61.43,-301.38 100.69,-645.52 -33.27,-775.89z"/>
     <path class="fil1" d="M38095.61 16746.46c-81.96,-8.62 -160.04,75.81 -198.84,200.64 32.13,-85.15 86.74,-140.78 142.5,-134.64 77.87,8.07 128.89,131.55 113.09,275.32 -14.67,143.37 -90.08,253.45 -168.58,244.93 -44.53,-4.48 -79.8,-47.4 -99.27,-109.82 22.74,97.21 74.21,166.56 141.08,173.63 103.64,11.21 201.92,-126.04 221.32,-305.2 19.01,-179.03 -48.75,-333.2 -151.29,-344.86z"/>
     <path class="fil1" d="M39393.41 11648.62c0,0 -697.01,3050.94 -461.5,4272.6 0,0 102.88,-2484.24 912.11,-4123.24 0,0 87.84,-286.05 -450.61,-149.36z"/>
     <path class="fil1" d="M39337.52 16321.42c421.03,-300.06 2268.14,-1506.9 2454.03,-1533.04 185.57,-25.4 239.78,114.43 239.78,114.43 -77.87,-473.5 -177.16,-650 -177.16,-650 -1106.36,365.48 -2516.66,2068.61 -2516.66,2068.61z"/>
     <path class="fil1" d="M36357.11 14799.38c0,0 -139.02,235.19 -280.78,1095.23 0,0 112.43,-278.91 354.4,-153.29 242.52,124.56 1421.22,642.86 2001.14,729.41 0,0 -1944.05,-1252.98 -2074.76,-1671.34z"/>
     <path class="fil1" d="M36267.77 20209.28c0,0 1450.9,-1831.04 2197.11,-2778.1 0,0 -1850.83,1538.98 -2197.11,2778.1z"/>
     <path class="fil1" d="M38824.68 17825.86c-265.32,578.91 -144.29,4523.46 -144.29,4523.46 0,0 280.99,-39.35 411.3,-124.11 131.08,-84.15 48.73,-451.75 48.73,-451.75 -388.14,-1621.27 -315.73,-3947.61 -315.73,-3947.61z"/>
    </g>
    <g>
     <path class="fil1" d="M11260.89 19027.77c-15.73,24.35 7.47,20.75 -15.73,24.35 -23.87,2.74 -71.01,-13.34 -71.01,-13.34 0,0 -704.21,285.6 -727.63,300.93 -25.54,15.67 -51.94,7.14 -92.28,-13.67 -40.01,-19.87 -570.26,-295.32 -766.02,-584.85 0,0 181.91,542.77 957.85,792.63l290.87 -28.07 826.35 -480.7 -57.06 -199.64c0,0 -328.73,178.83 -345.35,202.36z"/>
     <path class="fil1" d="M10717.72 19382.65l135.43 161.91c3112.03,1304.73 9467.18,2136.17 9467.18,2136.17l-109.95 -202.51c-6491.31,-899.12 -9492.66,-2095.57 -9492.66,-2095.57z"/>
     <path class="fil1" d="M47978.74 1351.06l2046.42 97.89c1073.02,207.44 2472.56,893.59 2472.56,893.59l1455.64 3107.42 -44.82 42.74c-137.56,91.16 -2212.59,524.38 -2212.59,524.38 1411.75,-204.44 2189.58,-438.89 2189.58,-438.89l101.48 -34.74 7.14 50.62 129.95 -98.63 -1665.26 -3448.29c-1854.31,-1122.16 -4480.12,-696.08 -4480.12,-696.08z"/>
     <path class="fil1" d="M55731.99 7895.31c-7.88,31.68 -11.02,86.55 2.06,131.63 0,0 -15.14,16.33 -45.4,31.34 -32.68,14.35 -1046.82,199.64 -1046.82,199.64 0,0 -6.46,-181.49 154.95,-248.31 160.91,-66.16 800.78,-189.03 876.78,-179.9 76.55,9.68 142.5,32.95 153.71,146.83 0,0 -88.16,-112.48 -95.28,-81.22zm-19.88 487.7c-101.35,87.55 -725.82,253.13 -954.92,162.04 0,0 -110.42,-43.21 -94.68,-142.63 0,0 709.81,9.07 1029.47,-103.43 0,0 122.9,-2.99 20.13,84.02zm132.9 -603.45c-229.84,-116.28 -964.6,145.5 -1055,191.11 -90.9,46.01 -162.97,103.96 -164.18,195.63 -8.92,365.4 129.63,408.22 129.63,408.22 434.56,131.44 1136.04,-210.24 1136.04,-210.24 135.35,-123.75 107.15,-456.57 -46.48,-584.72z"/>
    </g>
   </g>
  </g>
 </g>
</svg>
