<?xml version="1.0" encoding="UTF-8"?>
<!DOCTYPE svg PUBLIC "-//W3C//DTD SVG 1.1//EN" "http://www.w3.org/Graphics/SVG/1.1/DTD/svg11.dtd">
<!-- Creator: CorelDRAW -->
<svg xmlns="http://www.w3.org/2000/svg" xml:space="preserve" width="180.099mm" height="107.233mm" version="1.1" style="shape-rendering:geometricPrecision; text-rendering:geometricPrecision; image-rendering:optimizeQuality; fill-rule:evenodd; clip-rule:evenodd"
viewBox="0 0 16804.78 10005.75"
 xmlns:xlink="http://www.w3.org/1999/xlink"
 xmlns:xodm="http://www.corel.com/coreldraw/odm/2003">
 <defs>
  <style type="text/css">
   <![CDATA[
    .str0 {stroke:#666666;stroke-width:24.69;stroke-miterlimit:22.9256}
    .str3 {stroke:#666666;stroke-width:32.91;stroke-miterlimit:22.9256}
    .str1 {stroke:#B2B3B3;stroke-width:16.46;stroke-miterlimit:22.9256}
    .str2 {stroke:#666666;stroke-width:16.46;stroke-miterlimit:22.9256}
    .fil2 {fill:black}
    .fil1 {fill:#999999}
    .fil4 {fill:#B3B3B3}
    .fil3 {fill:#E6E6E6}
    .fil0 {fill:white}
    .fil5 {fill:black;fill-rule:nonzero}
   ]]>
  </style>
   <mask id="id0">
  <linearGradient id="id1" gradientUnits="userSpaceOnUse" x1="8401.02" y1="7758.22" x2="8401.07" y2="628.34">
   <stop offset="0" style="stop-opacity:0.741176; stop-color:white"/>
   <stop offset="1" style="stop-opacity:0; stop-color:white"/>
  </linearGradient>
    <rect style="fill:url(#id1)" x="4656.05" y="501.73" width="7492.69" height="7123.2"/>
   </mask>
 </defs>
 <g id="Слой_x0020_1">
  <metadata id="CorelCorpID_0Corel-Layer"/>
  <rect class="fil0 str0" x="3822.72" y="1461.01" width="9159.32" height="832.67"/>
  <rect class="fil1 str0" x="3822.72" y="2293.67" width="9159.32" height="832.67"/>
  <rect class="fil0 str0" x="3822.72" y="3126.34" width="9159.32" height="832.67"/>
  <rect class="fil1 str0" x="3822.72" y="3959.01" width="9159.32" height="832.67"/>
  <rect class="fil0 str0" x="3822.72" y="4791.67" width="9159.32" height="832.67"/>
  <rect class="fil1 str0" x="3822.72" y="5624.34" width="9159.32" height="832.67"/>
  <polygon class="fil2 str1" points="3822.73,6457.01 31.91,8551.63 16772.87,8551.63 12982.05,6457.01 "/>
  <path class="fil3 str2" d="M7385.12 518.18c0,0 0,-509.95 1017.28,-509.95 1017.28,0 1017.28,509.95 1017.28,509.95l-2034.56 0z"/>
  <ellipse class="fil4 str2" cx="8402.4" cy="518.18" rx="1017.28" ry="110.16"/>
  <path class="fil0 str3" style="mask:url(#id0)" d="M8402.4 518.18c-619.46,0 -708.32,79.07 -708.32,79.07 -233.46,106.12 -3021.57,6305.76 -3021.57,6305.76 0,0 635.93,705.47 3729.9,705.47 3093.97,0 3729.9,-705.47 3729.9,-705.47 0,0 -2788.12,-6199.64 -3021.57,-6305.76 0,0 -88.87,-79.07 -708.32,-79.07z"/>
  <path class="fil5" d="M268.25 9630.53l339.23 -189.42c-13.1,28.51 -14.09,50.64 -2.75,66.2 11.4,15.65 32.66,24.34 63.8,25.99 31.18,1.61 69.29,-3.55 114.16,-15.47 44.67,-11.87 92.3,-29.57 142.68,-52.98 49.96,-23.21 100.32,-52.44 150.92,-87.49 58.66,-40.63 90.96,-70.41 97.62,-89.75 6.56,-19.17 -7.81,-28.72 -43.16,-28.72l-164.82 0 258.81 -172.45 147.9 0c30.39,0 67.37,-9.09 110.63,-27.12 42.96,-17.92 86.81,-42.33 131.31,-73.04 37.72,-26.01 61.85,-46.82 72.74,-62.58 10.8,-15.63 11.39,-27.19 1.88,-34.72 -9.49,-7.52 -27.57,-10.85 -54.31,-10 -26.74,0.82 -61.84,6.65 -105.43,17.53 -43.83,10.93 -93.03,26.15 -147.83,45.73l191.89 -154.99c81.64,-27.8 151.76,-46.85 210.94,-57.39 58.9,-10.49 104.66,-13.19 137.61,-8.16 33.02,5.06 51.49,17.53 55.39,37.56 3.95,20.2 -7.72,46.83 -35.26,80.11 -27.98,33.79 -75.47,74.39 -143.24,122.2 -61.7,43.53 -125.59,82.96 -191.53,118.08 -66.91,35.63 -129.25,63.39 -186.66,83.04 -57.85,19.8 -105.98,29.76 -144.02,29.76l77.79 -50.78c43.91,0 66.24,10.95 67,33.02 0.76,22.28 -18.12,53.41 -57.13,93.77 -39.62,41 -98.2,89.04 -176.49,144.49 -74.07,52.47 -150.58,100.32 -229.41,143.31 -80.15,43.72 -158.29,81.07 -234.09,111.79 -76.67,31.09 -147.02,54.34 -210.59,69.58 -63.94,15.32 -117.82,21.82 -161.39,19.45 -43.51,-2.37 -73.54,-13.87 -89.98,-34.38 -16.33,-20.35 -14.3,-51.19 5.77,-92.14zm1389.97 -16.89l915.36 -720.92 -214.2 0 -176.22 131.77c-78.65,58.31 -155.76,114.82 -231.13,169.35 -77.11,55.79 -150.85,107.63 -220.97,155.27 -71.45,48.56 -136.35,90.43 -194.27,125.28 -58.74,35.35 -107.33,60.79 -145.4,76.09l-127.42 -35.9c22.86,1.07 61.29,-12.39 114.9,-40.2 53.01,-27.49 117.45,-65.88 192.57,-114.63 73.7,-47.83 154.48,-102.84 241.7,-164.48 85.09,-60.16 173.68,-123.79 265.43,-190.64l372.54 -271.87 463.36 0 -1090.98 880.87 -165.27 0zm-1092.51 392.1l675.96 -491.15 803.85 0 -598.9 491.15 -166.43 0 334.81 -268.13 -522.25 0 -360.63 268.13 -166.42 0zm2366.76 -916.57l313.67 0 -192.2 178.52 -325.39 0 203.93 -178.52zm-477.48 428.66l386.47 0 -234.21 219.78 -572.99 0 1177 -1004.84 455.62 0 -168.2 157.45 -328.25 0 -715.43 627.61zm765.98 241.01c-57.3,0 -95.4,-15.65 -114.09,-46.66 -18.49,-30.64 -17.64,-73.73 2.05,-128.64 19.3,-53.78 54.91,-115.51 106.09,-184.58 49.8,-67.24 113.98,-139.09 191.68,-215.07 75.37,-73.7 151.29,-139.37 228.05,-197.62 74.91,-56.83 147.68,-105.23 218.76,-145.68 69.82,-39.74 134.69,-69.87 195.12,-90.79 59.85,-20.73 113.03,-31.03 159.96,-31.03 52.09,0 87.84,12.24 107.4,36.91 19.79,24.96 22.24,62.12 6.92,112.07l-204.07 122.44c10.71,-35.53 10.85,-61.83 0.59,-79.18 -10.19,-17.23 -30.69,-25.81 -61.57,-25.81 -29.1,0 -62.26,6.69 -99.6,20.11 -37.55,13.52 -77.86,33.07 -121.09,58.82 -43.72,26.06 -88.6,57.27 -134.79,93.83 -46.92,37.13 -93.54,79.01 -140.02,125.92 -47.36,47.81 -85.96,92.14 -115.44,132.78 -29.98,41.32 -50.42,77.65 -61.07,108.77 -10.75,31.48 -10.69,55.89 0.32,73 11.09,17.23 33.26,25.9 66.44,25.9 35.2,0 78.06,-11.09 128.24,-33.13 49.75,-21.85 106.78,-54.8 170.56,-98.42l-33.4 152.78c-94.7,67.53 -184.96,120.18 -269.87,157.05 -86.05,37.36 -162.09,56.23 -227.18,56.23zm1501.09 -739.64c77.64,0 118.74,25.09 123.37,76.11 4.72,52.14 -32.07,132.53 -113.08,243.95 -90.18,124.02 -187.66,222.2 -291.09,291.27 -106.18,70.91 -207.91,107.08 -303.06,107.08l-334.06 0 849.02 -1004.84 138.66 0 -233.02 286.43 163.25 0zm-433.6 514.9c42.05,0 88.24,-16.81 138.1,-50.12 49.22,-32.88 96.9,-79.87 142.67,-140.19 43.97,-57.93 63.61,-98.79 59.73,-123.42 -3.83,-24.39 -25.68,-36.49 -65.55,-36.49l-138.59 0 -284.91 350.21 148.56 0zm722.53 203.51l625.39 -1004.84 549.48 0 -500.4 1004.84 -170.21 0 471.61 -890.88 8.68 45.99 -348.06 0 60.2 -45.99 -526.49 890.88 -170.2 0zm1350.14 21.23c-58.72,0 -106.77,-15.94 -143.81,-47.53 -36.6,-31.23 -60.98,-74.57 -73.25,-129.44 -12.03,-53.74 -12.14,-115.42 -0.77,-184.45 11.09,-67.22 33.66,-138.53 67.16,-213.53 32.52,-72.77 70.44,-138.03 113.67,-196.3 42.19,-56.87 87.27,-105.29 135.36,-145.77 47.24,-39.76 95.29,-70.12 144.39,-91.44 48.66,-21.13 96.26,-31.6 143.21,-31.6 47.5,0 87.46,10.48 120.1,31.6 32.95,21.32 58.12,51.68 75.48,91.44 17.66,40.48 26.77,88.68 27.06,145.1 0.31,57.81 -10.25,123.27 -32.17,196.96 -22.31,75 -53.05,146.56 -92.49,214.3 -40.51,69.59 -86.73,131.29 -138.59,184.52 -52.94,54.31 -109.15,97.37 -168.29,128.6 -59.85,31.59 -119.05,47.53 -177.07,47.53zm86.21 -234.5c31.83,0 64.22,-8.67 97.06,-25.9 32.59,-17.1 64.36,-41.51 95.17,-73 30.44,-31.12 57.96,-67.45 82.51,-108.77 24.15,-40.64 44.08,-84.97 59.83,-132.78 15.45,-46.91 24.12,-88.79 26.22,-125.92 2.07,-36.56 -1.46,-67.77 -10.49,-93.83 -8.92,-25.75 -22.95,-45.3 -42.1,-58.82 -19.03,-13.42 -42.45,-20.11 -70.36,-20.11 -27.92,0 -56.18,6.69 -84.9,20.11 -28.88,13.52 -57.48,33.07 -85.86,58.82 -28.73,26.06 -55.63,57.27 -80.77,93.83 -25.54,37.13 -48.04,79.01 -67.49,125.92 -19.43,46.83 -32.4,90.91 -38.69,132.04 -6.39,41.8 -6.19,78.39 0.76,109.51 7.04,31.48 20.64,55.89 40.84,73 20.34,17.23 46.46,25.9 78.28,25.9zm1082.03 213.28l-123.19 -535.19 144.15 -110.51 173.55 645.7 -194.52 0zm-481.01 0l247.84 -1004.84 138.67 0 -216.3 1004.84 -170.2 0zm222.67 -455.17l43.06 -191.91 227.16 0 -33.94 191.91 -236.29 0zm273.02 -72.85l-137 -25.71 286.19 -451.12 147.27 0 -296.46 476.83zm307.32 528.01l367.74 -1004.84 137.81 0 324.33 1004.84 -179.71 0 -244.74 -906.82 56.34 0 -286.28 906.82 -175.49 0zm182.08 -252.01l54.7 -189.82 349.56 0 46.35 189.82 -450.61 0zm1552.04 -171.92c-28.87,21.05 -57.88,36.95 -86.95,47.62 -29.18,10.71 -58.3,16.07 -87.25,16.07 -92.77,0 -169.67,-34.31 -229.47,-101.57 -58.22,-65.48 -95.41,-156.85 -112.08,-271.15l-39.65 -271.87 137.81 0 43.95 248.27c11.23,63.48 32.01,112.46 62.43,145.99 30.84,34 69.18,51.19 114.69,51.19 29.07,0 56.12,-4.95 81.06,-14.84 24.83,-9.84 46.65,-24.07 65.44,-42.59l50.03 192.89zm77.44 423.93l-236.67 -1004.84 137.81 0 268.01 1004.84 -169.15 0zm658.2 0l-317.97 -890.88 49.43 45.99 -232.04 0 -50.13 -159.95 522.79 0 69.07 159.95 -232.04 0 14.27 -45.99 345.75 890.88 -169.13 0zm1014.3 21.23c-58.71,0 -121.32,-15.94 -187.22,-47.53 -65.14,-31.23 -129.13,-74.57 -191.53,-129.44 -61.13,-53.74 -117.61,-115.42 -169.31,-184.45 -50.33,-67.22 -92.94,-138.53 -127.95,-213.53 -33.97,-72.77 -55.69,-138.03 -65.71,-196.3 -9.78,-56.87 -8.94,-105.29 2.16,-145.77 10.92,-39.76 31.21,-70.12 60.85,-91.44 29.35,-21.13 67.39,-31.6 114.32,-31.6 47.5,0 97.04,10.48 148.99,31.6 52.43,21.32 105.34,51.68 159.03,91.44 54.65,40.48 107.8,88.68 159.65,145.1 53.14,57.81 102.39,123.27 147.81,196.96 46.22,75 80.88,146.56 103.34,214.3 23.08,69.59 33.25,131.29 30.01,184.52 -3.31,54.31 -20.16,97.37 -50.78,128.6 -30.98,31.59 -75.62,47.53 -133.65,47.53zm-128.07 -234.5c31.82,0 56.3,-8.67 73.39,-25.9 16.96,-17.1 26.43,-41.51 28.47,-73 2,-31.12 -3.69,-67.45 -16.88,-108.77 -12.98,-40.64 -33.56,-84.97 -61.5,-132.78 -27.4,-46.91 -57.02,-88.79 -88.85,-125.92 -31.32,-36.56 -63.38,-67.77 -96.22,-93.83 -32.46,-25.75 -64.35,-45.3 -95.84,-58.82 -31.3,-13.42 -60.84,-20.11 -88.76,-20.11 -27.92,0 -50.06,6.69 -66.52,20.11 -16.53,13.52 -27.26,33.07 -32.12,58.82 -4.92,26.06 -3.3,57.27 4.96,93.83 8.39,37.13 24.18,79.01 47.58,125.92 23.37,46.83 50.67,90.91 81.97,132.04 31.8,41.8 65.43,78.39 100.81,109.51 35.81,31.48 71.71,55.89 107.55,73 36.08,17.23 70.13,25.9 101.95,25.9zm1097.21 213.28l-726.19 -1004.84 549.49 0 851.17 1004.84 -170.2 0 -726.69 -890.88 70.55 45.99 -348.05 0 -1.68 -45.99 671.79 890.88 -170.19 0zm825.75 -223.02c56.15,18.44 94.01,23.6 113.2,15.42 19.17,-8.13 14.89,-38 -12.36,-88.9l-41.27 -79.06 -9.88 -25.81 -376.39 -603.47 136.93 0 482.05 759.24c52.01,81.56 81.55,145.87 87.42,191.52 5.99,46.45 -10.9,73.24 -50.8,79.76 -40.01,6.52 -100.6,-7.4 -180.93,-41.48l-147.97 -207.21zm249.61 34.24l-1050.87 -816.07 148.99 0 809.75 627.77 92.13 188.3zm1189.1 210c-57.31,0 -128.01,-15.65 -211.36,-46.66 -82.38,-30.64 -171.35,-73.73 -266.11,-128.64 -92.81,-53.78 -185.86,-115.51 -278.7,-184.58 -90.36,-67.24 -175.94,-139.09 -256.64,-215.07 -78.26,-73.7 -139.24,-139.37 -183.91,-197.62 -43.58,-56.83 -71.69,-105.23 -84.93,-145.68 -13.03,-39.74 -10.96,-69.87 5.84,-90.79 16.65,-20.73 48.38,-31.03 95.31,-31.03 52.09,0 113.35,12.24 184.36,36.91 71.81,24.96 151.7,62.12 240.52,112.07l51.18 122.44c-63.34,-35.53 -118.03,-61.83 -164.47,-79.18 -46.11,-17.23 -84.49,-25.81 -115.38,-25.81 -29.11,0 -48.32,6.69 -57.66,20.11 -9.41,13.52 -8.94,33.07 1.52,58.82 10.6,26.06 30.78,57.27 60.79,93.83 30.48,37.13 71.19,79.01 122.5,125.92 52.29,47.81 106.11,92.14 161.33,132.78 56.14,41.32 111.44,77.65 165.66,108.77 54.88,31.48 105.81,55.89 152.51,73 47.01,17.23 87.22,25.9 120.41,25.9 35.21,0 54.93,-11.09 59.19,-33.13 4.21,-21.85 -7.46,-54.8 -34.62,-98.42l285.1 152.78c46.07,67.53 65.56,120.18 57.51,157.05 -8.17,37.36 -44.86,56.23 -109.95,56.23zm691.16 -21.23l-1129.42 -890.88 91.33 45.99 -232.03 0 -195.84 -159.95 522.78 0 214.77 159.95 -232.05 0 -27.62 -45.99 1157.21 890.88 -169.14 0zm1033.65 21.23c-58.72,0 -135.85,-15.94 -230.54,-47.53 -93.58,-31.23 -197.04,-74.57 -309.42,-129.44 -110.07,-53.74 -222.75,-115.42 -337.32,-184.45 -111.56,-67.22 -219.12,-138.53 -322.44,-213.53 -100.27,-72.77 -181.42,-138.03 -244.52,-196.3 -61.58,-56.87 -104.84,-105.29 -130.6,-145.77 -25.31,-39.76 -32.66,-70.12 -22.44,-91.44 10.11,-21.13 38.59,-31.6 85.54,-31.6 47.5,0 106.6,10.48 177.77,31.6 71.85,21.32 152.4,51.68 242.31,91.44 91.52,40.48 188.58,88.68 291.81,145.1 105.8,57.81 214.67,123.27 327.22,196.96 114.52,75 214.37,146.56 298.52,214.3 86.46,69.59 152.84,131.29 198.08,184.52 46.15,54.31 68.52,97.37 66.36,128.6 -2.2,31.59 -32.32,47.53 -90.35,47.53zm-341.68 -234.5c31.82,0 48.41,-8.67 49.81,-25.9 1.36,-17.1 -11.39,-41.51 -38.03,-73 -26.35,-31.12 -65.12,-67.45 -115.95,-108.77 -49.99,-40.64 -110.95,-84.97 -182.44,-132.78 -70.14,-46.91 -137.91,-88.79 -203.54,-125.92 -64.64,-36.56 -125.12,-67.77 -181.69,-93.83 -55.92,-25.75 -105.63,-45.3 -149.41,-58.82 -43.53,-13.42 -79.16,-20.11 -107.08,-20.11 -27.92,0 -43.97,6.69 -48.19,20.11 -4.24,13.52 2.85,33.07 21.45,58.82 18.82,26.06 48.86,57.27 90.43,93.83 42.2,37.13 96.15,79.01 162.27,125.92 66.03,46.83 133.47,90.91 202.23,132.04 69.88,41.8 136.83,78.39 200.56,109.51 64.49,31.48 122.62,55.89 174.05,73 51.78,17.23 93.71,25.9 125.53,25.9z"/>
 </g>
</svg>
