<svg width="165" height="33" viewBox="0 0 165 33" fill="none" xmlns="http://www.w3.org/2000/svg">
<path d="M77.2031 13.5385V1.69232H81.7723C83.8482 1.69232 85.4785 2.23386 86.6631 3.31694C87.859 4.40001 88.4569 5.82155 88.4569 7.58155C88.4569 9.33027 87.8533 10.7631 86.6462 11.88C85.439 12.9857 83.7918 13.5385 81.7046 13.5385H77.2031ZM80.4862 10.6277H81.8231C82.8159 10.6277 83.6056 10.3626 84.1923 9.83232C84.7903 9.30207 85.0892 8.55745 85.0892 7.59848C85.0892 6.66207 84.7903 5.92309 84.1923 5.38155C83.6056 4.84001 82.8159 4.56925 81.8231 4.56925H80.4862V10.6277Z" fill="#252A3D"/>
<path d="M90.1433 13.5385V1.69232H99.671V4.48463H93.3925V6.27848H99.0787V8.86771H93.3925V10.7462H99.7556V13.5385H90.1433Z" fill="#252A3D"/>
<path d="M101.431 13.5385V1.69232H104.714V10.6616H110.451V13.5385H101.431Z" fill="#252A3D"/>
<path d="M111.927 13.5385V1.69232H115.227V13.5385H111.927Z" fill="#252A3D"/>
<path d="M121.254 13.6231L116.448 1.69232H120.12L122.811 9.18925L125.502 1.69232H129.106L124.3 13.6231H121.254Z" fill="#252A3D"/>
<path d="M130.253 13.5385V1.69232H139.781V4.48463H133.502V6.27848H139.188V8.86771H133.502V10.7462H139.865V13.5385H130.253Z" fill="#252A3D"/>
<path d="M141.541 13.5385V1.69232H147.142C148.868 1.69232 150.154 2.1154 151.001 2.96155C151.7 3.66104 152.05 4.59745 152.05 5.77078C152.05 7.50822 151.237 8.72104 149.613 9.40925L152.439 13.5385H148.648L146.262 9.95078H144.824V13.5385H141.541ZM144.824 7.37848H146.99C147.543 7.37848 147.971 7.25437 148.276 7.00617C148.592 6.74668 148.75 6.3913 148.75 5.94001C148.75 5.47745 148.592 5.12771 148.276 4.89078C147.971 4.65386 147.537 4.5354 146.973 4.5354H144.824V7.37848Z" fill="#252A3D"/>
<path d="M156.693 13.5385V9.10463L152.191 1.69232H155.931L158.368 6.00771L160.822 1.69232H164.494L159.993 9.05386V13.5385H156.693Z" fill="#252A3D"/>
<path d="M82.9062 29.8523C81.1913 29.8523 79.7415 29.2713 78.5569 28.1092C77.3836 26.9359 76.7969 25.4636 76.7969 23.6923C76.7969 21.9549 77.3892 20.4939 78.5739 19.3092C79.7697 18.1246 81.259 17.5323 83.0415 17.5323C85.1513 17.5323 86.8097 18.3672 88.0169 20.0369L85.6139 21.8985C84.8805 20.9846 84.0118 20.5277 83.0077 20.5277C82.1841 20.5277 81.5072 20.8323 80.9769 21.4416C80.4467 22.0508 80.1815 22.801 80.1815 23.6923C80.1815 24.5949 80.4467 25.3508 80.9769 25.96C81.5072 26.558 82.1841 26.8569 83.0077 26.8569C83.5831 26.8569 84.0739 26.7385 84.48 26.5016C84.8862 26.2533 85.2867 25.8923 85.6815 25.4185L88.1523 27.1785C87.5318 28.0246 86.8097 28.6846 85.9862 29.1585C85.1626 29.621 84.1359 29.8523 82.9062 29.8523Z" fill="#252A3D"/>
<path d="M88.6172 29.6154L93.6602 17.6846H96.8249L101.868 29.6154H98.3479L97.4849 27.5H92.9156L92.0695 29.6154H88.6172ZM93.8802 24.9446H96.5372L95.2172 21.5769L93.8802 24.9446Z" fill="#252A3D"/>
<path d="M103.017 29.6154V17.7692H108.619C110.345 17.7692 111.631 18.1923 112.477 19.0385C113.177 19.738 113.527 20.6744 113.527 21.8477C113.527 23.5851 112.714 24.798 111.09 25.4862L113.916 29.6154H110.125L107.739 26.0277H106.3V29.6154H103.017ZM106.3 23.4554H108.467C109.019 23.4554 109.448 23.3313 109.753 23.0831C110.069 22.8236 110.227 22.4682 110.227 22.0169C110.227 21.5544 110.069 21.2046 109.753 20.9677C109.448 20.7308 109.014 20.6123 108.45 20.6123H106.3V23.4554Z" fill="#252A3D"/>
<path d="M0 32.5957L6.82047 0.505371H20.4109C22.4991 0.505371 24.3179 0.724361 25.8673 1.16234C27.4503 1.56663 28.747 2.25729 29.7575 3.23432C30.8016 4.21134 31.5763 5.49159 32.0815 7.07505C32.6204 8.65851 32.8898 10.5957 32.8898 12.8867C32.8898 15.3461 32.5699 17.755 31.9299 20.1133C31.3237 22.4717 30.2964 24.5773 28.8481 26.4303C27.3998 28.2833 25.4968 29.7826 23.1391 30.928C20.8151 32.0398 17.9353 32.5957 14.4998 32.5957H0ZM13.843 29.0582C14.9545 29.0582 15.9313 28.6034 16.7733 27.6937C17.649 26.7504 18.39 25.5712 18.9963 24.1562C19.6362 22.7075 20.1583 21.1241 20.5625 19.4058C21.0003 17.6539 21.3371 15.9694 21.5729 14.3522C21.8424 12.7351 22.0276 11.2864 22.1286 10.0061C22.2634 8.72589 22.3307 7.81624 22.3307 7.27719C22.3307 6.23278 22.1118 5.42421 21.6739 4.85147C21.2698 4.24504 20.5456 3.94182 19.5015 3.94182H17.0764L11.6706 29.0582H13.843Z" fill="url(#paint0_linear_114_102)"/>
<path d="M55.3493 29.8668C54.5073 30.2711 53.6316 30.6753 52.7222 31.0796C51.8465 31.4502 50.9034 31.7871 49.893 32.0904C48.8825 32.3599 47.771 32.5789 46.5585 32.7473C45.3797 32.9158 44.0829 33 42.6683 33C38.155 33 34.669 31.9893 32.2103 29.9678C29.7852 27.9464 28.7692 25.0322 28.7692 20.3155C28.7692 17.5865 28.9937 14.5712 29.8357 12.1792C30.6778 9.75345 31.924 7.64778 33.5743 5.86217C35.2247 4.04288 37.2625 2.61103 39.6875 1.56662C42.1126 0.522206 44.8913 0 48.0236 0C49.5056 0 50.8529 0.101072 52.0654 0.303215C53.3116 0.50536 54.4231 0.774886 55.3999 1.11179C56.4103 1.41501 57.3029 1.75191 58.0775 2.12251C58.8859 2.49311 59.61 2.84686 60.25 3.18377L58.6533 8.39542C57.8908 10.8842 55.5929 12.5835 52.99 12.5835H49.3372C49.3709 12.2466 49.4046 11.8086 49.4383 11.2695C49.5056 10.7305 49.5561 10.1914 49.5898 9.65237C49.6235 9.07963 49.6572 8.52374 49.6909 7.98469C49.7246 7.44564 49.7414 6.99081 49.7414 6.62022C49.7414 6.35069 49.7246 6.04747 49.6909 5.71057C49.6572 5.33997 49.573 4.98622 49.4383 4.64931C49.3035 4.31241 49.0846 4.04288 48.7815 3.84074C48.512 3.6049 48.1415 3.48698 47.67 3.48698C46.7943 3.48698 45.9859 3.85758 45.2449 4.59878C44.5376 5.30628 43.8977 6.26646 43.3251 7.47933C42.7525 8.6585 42.2473 10.0061 41.8094 11.5222C41.3716 13.0383 41.0011 14.5881 40.698 16.1715C40.4285 17.7213 40.2096 19.2542 40.0412 20.7703C39.9064 22.2864 39.8391 23.6172 39.8391 24.7626C39.8391 25.0995 39.8559 25.5207 39.8896 26.026C39.9233 26.5314 40.0243 27.0199 40.1927 27.4916C40.3611 27.9632 40.6137 28.3675 40.9506 28.7044C41.3211 29.0413 41.8094 29.2098 42.4157 29.2098C43.4598 29.2098 44.4703 28.5697 45.447 27.2894C46.4238 25.9755 47.2827 23.6508 48.0236 20.3155H57.3702L55.3493 29.8668Z" fill="url(#paint1_linear_114_102)"/>
<path d="M55.3493 29.8668C54.5073 30.2711 53.6316 30.6753 52.7222 31.0796C51.8465 31.4502 50.9034 31.7871 49.893 32.0904C48.8825 32.3599 47.771 32.5789 46.5585 32.7473C45.3797 32.9158 44.0829 33 42.6683 33C38.155 33 34.669 31.9893 32.2103 29.9678C29.7852 27.9464 28.7692 25.0322 28.7692 20.3155C28.7692 17.5865 28.9937 14.5712 29.8357 12.1792C30.6778 9.75345 31.924 7.64778 33.5743 5.86217C35.2247 4.04288 37.2625 2.61103 39.6875 1.56662C42.1126 0.522206 44.8913 0 48.0236 0C49.5056 0 50.8529 0.101072 52.0654 0.303215C53.3116 0.50536 54.4231 0.774886 55.3999 1.11179C56.4103 1.41501 57.3029 1.75191 58.0775 2.12251C58.8859 2.49311 59.61 2.84686 60.25 3.18377L58.6533 8.39542C57.8908 10.8842 55.5929 12.5835 52.99 12.5835H49.3372C49.3709 12.2466 49.4046 11.8086 49.4383 11.2695C49.5056 10.7305 49.5561 10.1914 49.5898 9.65237C49.6235 9.07963 49.6572 8.52374 49.6909 7.98469C49.7246 7.44564 49.7414 6.99081 49.7414 6.62022C49.7414 6.35069 49.7246 6.04747 49.6909 5.71057C49.6572 5.33997 49.573 4.98622 49.4383 4.64931C49.3035 4.31241 49.0846 4.04288 48.7815 3.84074C48.512 3.6049 48.1415 3.48698 47.67 3.48698C46.7943 3.48698 45.9859 3.85758 45.2449 4.59878C44.5376 5.30628 43.8977 6.26646 43.3251 7.47933C42.7525 8.6585 42.2473 10.0061 41.8094 11.5222C41.3716 13.0383 41.0011 14.5881 40.698 16.1715C40.4285 17.7213 40.2096 19.2542 40.0412 20.7703C39.9064 22.2864 39.8391 23.6172 39.8391 24.7626C39.8391 25.0995 39.8559 25.5207 39.8896 26.026C39.9233 26.5314 40.0243 27.0199 40.1927 27.4916C40.3611 27.9632 40.6137 28.3675 40.9506 28.7044C41.3211 29.0413 41.8094 29.2098 42.4157 29.2098C43.4598 29.2098 44.4703 28.5697 45.447 27.2894C46.4238 25.9755 47.2827 23.6508 48.0236 20.3155H57.3702L55.3493 29.8668Z" fill="url(#paint2_linear_114_102)"/>
<defs>
<linearGradient id="paint0_linear_114_102" x1="6.00479" y1="42.8811" x2="42.3216" y2="23.4558" gradientUnits="userSpaceOnUse">
<stop stop-color="#252A3D"/>
<stop offset="1" stop-color="#000518"/>
</linearGradient>
<linearGradient id="paint1_linear_114_102" x1="34.5168" y1="43.5769" x2="70.3429" y2="25.7407" gradientUnits="userSpaceOnUse">
<stop stop-color="#252A3D"/>
<stop offset="1" stop-color="#000518"/>
</linearGradient>
<linearGradient id="paint2_linear_114_102" x1="34.5168" y1="43.5769" x2="70.3429" y2="25.7407" gradientUnits="userSpaceOnUse">
<stop stop-color="#252A3D"/>
<stop offset="1" stop-color="#000518"/>
</linearGradient>
</defs>
</svg>
