<svg width="165" height="34" viewBox="0 0 165 34" fill="none" xmlns="http://www.w3.org/2000/svg">
<path d="M77.2031 13.6616V1.81543H81.7723C83.8482 1.81543 85.4785 2.35697 86.6631 3.44005C87.859 4.52312 88.4569 5.94466 88.4569 7.70466C88.4569 9.45338 87.8533 10.8862 86.6462 12.0031C85.439 13.1088 83.7918 13.6616 81.7046 13.6616H77.2031ZM80.4862 10.7508H81.8231C82.8159 10.7508 83.6056 10.4857 84.1923 9.95543C84.7903 9.42517 85.0892 8.68056 85.0892 7.72158C85.0892 6.78517 84.7903 6.0462 84.1923 5.50466C83.6056 4.96312 82.8159 4.69235 81.8231 4.69235H80.4862V10.7508Z" fill="white"/>
<path d="M90.1433 13.6616V1.81543H99.671V4.60774H93.3925V6.40158H99.0787V8.99081H93.3925V10.8693H99.7556V13.6616H90.1433Z" fill="white"/>
<path d="M101.431 13.6616V1.81543H104.714V10.7847H110.451V13.6616H101.431Z" fill="white"/>
<path d="M111.927 13.6616V1.81543H115.227V13.6616H111.927Z" fill="white"/>
<path d="M121.254 13.7462L116.448 1.81543H120.12L122.811 9.31235L125.502 1.81543H129.106L124.3 13.7462H121.254Z" fill="white"/>
<path d="M130.253 13.6616V1.81543H139.781V4.60774H133.502V6.40158H139.188V8.99081H133.502V10.8693H139.865V13.6616H130.253Z" fill="white"/>
<path d="M141.541 13.6616V1.81543H147.142C148.868 1.81543 150.154 2.23851 151.001 3.08466C151.7 3.78415 152.05 4.72056 152.05 5.89389C152.05 7.63133 151.237 8.84415 149.613 9.53235L152.439 13.6616H148.648L146.262 10.0739H144.824V13.6616H141.541ZM144.824 7.50158H146.99C147.543 7.50158 147.971 7.37748 148.276 7.12928C148.592 6.86979 148.75 6.5144 148.75 6.06312C148.75 5.60056 148.592 5.25081 148.276 5.01389C147.971 4.77697 147.537 4.65851 146.973 4.65851H144.824V7.50158Z" fill="white"/>
<path d="M156.693 13.6616V9.22774L152.191 1.81543H155.931L158.368 6.13081L160.822 1.81543H164.494L159.993 9.17697V13.6616H156.693Z" fill="white"/>
<path d="M82.9062 29.9754C81.1913 29.9754 79.7415 29.3944 78.5569 28.2324C77.3836 27.059 76.7969 25.5867 76.7969 23.8154C76.7969 22.078 77.3892 20.617 78.5739 19.4324C79.7697 18.2477 81.259 17.6554 83.0415 17.6554C85.1513 17.6554 86.8097 18.4903 88.0169 20.16L85.6139 22.0216C84.8805 21.1077 84.0118 20.6508 83.0077 20.6508C82.1841 20.6508 81.5072 20.9554 80.9769 21.5647C80.4467 22.1739 80.1815 22.9241 80.1815 23.8154C80.1815 24.718 80.4467 25.4739 80.9769 26.0831C81.5072 26.6811 82.1841 26.98 83.0077 26.98C83.5831 26.98 84.0739 26.8616 84.48 26.6247C84.8862 26.3765 85.2867 26.0154 85.6815 25.5416L88.1523 27.3016C87.5318 28.1477 86.8097 28.8077 85.9862 29.2816C85.1626 29.7441 84.1359 29.9754 82.9062 29.9754Z" fill="white"/>
<path d="M88.6172 29.7385L93.6602 17.8077H96.8249L101.868 29.7385H98.3479L97.4849 27.6231H92.9156L92.0695 29.7385H88.6172ZM93.8802 25.0677H96.5372L95.2172 21.7L93.8802 25.0677Z" fill="white"/>
<path d="M103.017 29.7385V17.8924H108.619C110.345 17.8924 111.631 18.3154 112.477 19.1616C113.177 19.8611 113.527 20.7975 113.527 21.9708C113.527 23.7083 112.714 24.9211 111.09 25.6093L113.916 29.7385H110.125L107.739 26.1508H106.3V29.7385H103.017ZM106.3 23.5785H108.467C109.019 23.5785 109.448 23.4544 109.753 23.2062C110.069 22.9467 110.227 22.5913 110.227 22.14C110.227 21.6775 110.069 21.3277 109.753 21.0908C109.448 20.8539 109.014 20.7354 108.45 20.7354H106.3V23.5785Z" fill="white"/>
<path d="M0 32.7188L6.82047 0.628418H20.4109C22.4991 0.628418 24.3179 0.847408 25.8673 1.28539C27.4503 1.68968 28.747 2.38033 29.7575 3.35736C30.8016 4.33439 31.5763 5.61464 32.0815 7.1981C32.6204 8.78156 32.8898 10.7188 32.8898 13.0097C32.8898 15.4692 32.5699 17.878 31.9299 20.2364C31.3237 22.5947 30.2964 24.7004 28.8481 26.5534C27.3998 28.4064 25.4968 29.9056 23.1391 31.0511C20.8151 32.1629 17.9353 32.7188 14.4998 32.7188H0ZM13.843 29.1813C14.9545 29.1813 15.9313 28.7264 16.7733 27.8168C17.649 26.8734 18.39 25.6943 18.9963 24.2793C19.6362 22.8306 20.1583 21.2471 20.5625 19.5289C21.0003 17.777 21.3371 16.0924 21.5729 14.4753C21.8424 12.8581 22.0276 11.4094 22.1286 10.1292C22.2634 8.84894 22.3307 7.93929 22.3307 7.40024C22.3307 6.35583 22.1118 5.54726 21.6739 4.97451C21.2698 4.36808 20.5456 4.06487 19.5015 4.06487H17.0764L11.6706 29.1813H13.843Z" fill="url(#paint0_linear_52_20)"/>
<path d="M55.3493 29.9898C54.5073 30.3941 53.6316 30.7984 52.7222 31.2027C51.8465 31.5733 50.9034 31.9102 49.893 32.2134C48.8825 32.4829 47.771 32.7019 46.5585 32.8704C45.3797 33.0388 44.0829 33.123 42.6683 33.123C38.155 33.123 34.669 32.1123 32.2103 30.0909C29.7852 28.0694 28.7692 25.1552 28.7692 20.4385C28.7692 17.7096 28.9937 14.6943 29.8357 12.3022C30.6778 9.87649 31.924 7.77083 33.5743 5.98522C35.2247 4.16593 37.2625 2.73407 39.6875 1.68966C42.1126 0.645252 44.8913 0.123047 48.0236 0.123047C49.5056 0.123047 50.8529 0.224119 52.0654 0.426262C53.3116 0.628407 54.4231 0.897933 55.3999 1.23484C56.4103 1.53806 57.3029 1.87496 58.0775 2.24556C58.8859 2.61616 59.61 2.96991 60.25 3.30682L58.6533 8.51847C57.8908 11.0072 55.5929 12.7065 52.99 12.7065H49.3372C49.3709 12.3696 49.4046 11.9316 49.4383 11.3926C49.5056 10.8535 49.5561 10.3145 49.5898 9.77542C49.6235 9.20268 49.6572 8.64678 49.6909 8.10773C49.7246 7.56868 49.7414 7.11386 49.7414 6.74326C49.7414 6.47374 49.7246 6.17052 49.6909 5.83361C49.6572 5.46302 49.573 5.10926 49.4383 4.77236C49.3035 4.43545 49.0846 4.16593 48.7815 3.96378C48.512 3.72795 48.1415 3.61003 47.67 3.61003C46.7943 3.61003 45.9859 3.98063 45.2449 4.72182C44.5376 5.42933 43.8977 6.38951 43.3251 7.60237C42.7525 8.78155 42.2473 10.1292 41.8094 11.6453C41.3716 13.1613 41.0011 14.7111 40.698 16.2946C40.4285 17.8443 40.2096 19.3773 40.0412 20.8933C39.9064 22.4094 39.8391 23.7402 39.8391 24.8857C39.8391 25.2226 39.8559 25.6437 39.8896 26.1491C39.9233 26.6544 40.0243 27.143 40.1927 27.6146C40.3611 28.0863 40.6137 28.4906 40.9506 28.8275C41.3211 29.1644 41.8094 29.3328 42.4157 29.3328C43.4598 29.3328 44.4703 28.6927 45.447 27.4125C46.4238 26.0985 47.2827 23.7739 48.0236 20.4385H57.3702L55.3493 29.9898Z" fill="url(#paint1_linear_52_20)"/>
<path d="M55.3493 29.9898C54.5073 30.3941 53.6316 30.7984 52.7222 31.2027C51.8465 31.5733 50.9034 31.9102 49.893 32.2134C48.8825 32.4829 47.771 32.7019 46.5585 32.8704C45.3797 33.0388 44.0829 33.123 42.6683 33.123C38.155 33.123 34.669 32.1123 32.2103 30.0909C29.7852 28.0694 28.7692 25.1552 28.7692 20.4385C28.7692 17.7096 28.9937 14.6943 29.8357 12.3022C30.6778 9.87649 31.924 7.77083 33.5743 5.98522C35.2247 4.16593 37.2625 2.73407 39.6875 1.68966C42.1126 0.645252 44.8913 0.123047 48.0236 0.123047C49.5056 0.123047 50.8529 0.224119 52.0654 0.426262C53.3116 0.628407 54.4231 0.897933 55.3999 1.23484C56.4103 1.53806 57.3029 1.87496 58.0775 2.24556C58.8859 2.61616 59.61 2.96991 60.25 3.30682L58.6533 8.51847C57.8908 11.0072 55.5929 12.7065 52.99 12.7065H49.3372C49.3709 12.3696 49.4046 11.9316 49.4383 11.3926C49.5056 10.8535 49.5561 10.3145 49.5898 9.77542C49.6235 9.20268 49.6572 8.64678 49.6909 8.10773C49.7246 7.56868 49.7414 7.11386 49.7414 6.74326C49.7414 6.47374 49.7246 6.17052 49.6909 5.83361C49.6572 5.46302 49.573 5.10926 49.4383 4.77236C49.3035 4.43545 49.0846 4.16593 48.7815 3.96378C48.512 3.72795 48.1415 3.61003 47.67 3.61003C46.7943 3.61003 45.9859 3.98063 45.2449 4.72182C44.5376 5.42933 43.8977 6.38951 43.3251 7.60237C42.7525 8.78155 42.2473 10.1292 41.8094 11.6453C41.3716 13.1613 41.0011 14.7111 40.698 16.2946C40.4285 17.8443 40.2096 19.3773 40.0412 20.8933C39.9064 22.4094 39.8391 23.7402 39.8391 24.8857C39.8391 25.2226 39.8559 25.6437 39.8896 26.1491C39.9233 26.6544 40.0243 27.143 40.1927 27.6146C40.3611 28.0863 40.6137 28.4906 40.9506 28.8275C41.3211 29.1644 41.8094 29.3328 42.4157 29.3328C43.4598 29.3328 44.4703 28.6927 45.447 27.4125C46.4238 26.0985 47.2827 23.7739 48.0236 20.4385H57.3702L55.3493 29.9898Z" fill="url(#paint2_linear_52_20)"/>
<defs>
<linearGradient id="paint0_linear_52_20" x1="6.00479" y1="43.0041" x2="42.3216" y2="23.5789" gradientUnits="userSpaceOnUse">
<stop stop-color="white"/>
<stop offset="1" stop-color="#636363"/>
</linearGradient>
<linearGradient id="paint1_linear_52_20" x1="34.5168" y1="43.7" x2="70.3429" y2="25.8637" gradientUnits="userSpaceOnUse">
<stop stop-color="white"/>
<stop offset="1" stop-color="#636363"/>
</linearGradient>
<linearGradient id="paint2_linear_52_20" x1="34.5168" y1="43.7" x2="70.3429" y2="25.8637" gradientUnits="userSpaceOnUse">
<stop stop-color="white"/>
<stop offset="1" stop-color="#636363"/>
</linearGradient>
</defs>
</svg>
