<?xml version="1.0" encoding="UTF-8"?>
<!DOCTYPE svg PUBLIC "-//W3C//DTD SVG 1.1//EN" "http://www.w3.org/Graphics/SVG/1.1/DTD/svg11.dtd">
<!-- Creator: CorelDRAW -->
<svg xmlns="http://www.w3.org/2000/svg" xml:space="preserve" width="152.769mm" height="152.769mm" version="1.1" style="shape-rendering:geometricPrecision; text-rendering:geometricPrecision; image-rendering:optimizeQuality; fill-rule:evenodd; clip-rule:evenodd"
viewBox="0 0 8092.5 8092.5"
 xmlns:xlink="http://www.w3.org/1999/xlink"
 xmlns:xodm="http://www.corel.com/coreldraw/odm/2003">
 <defs>
  <style type="text/css">
   <![CDATA[
    .fil10 {fill:none}
    .fil0 {fill:#2B2A29}
    .fil9 {fill:#2B2A29;fill-opacity:0.400000}
    .fil8 {fill:#2B2A29;fill-opacity:0.466667}
    .fil7 {fill:#2B2A29;fill-opacity:0.533333}
    .fil6 {fill:#2B2A29;fill-opacity:0.600000}
    .fil5 {fill:#2B2A29;fill-opacity:0.666667}
    .fil4 {fill:#2B2A29;fill-opacity:0.733333}
    .fil3 {fill:#2B2A29;fill-opacity:0.800000}
    .fil2 {fill:#2B2A29;fill-opacity:0.866667}
    .fil1 {fill:#2B2A29;fill-opacity:0.933333}
   ]]>
  </style>
 </defs>
 <g id="Слой_x0020_1">
  <metadata id="CorelCorpID_0Corel-Layer"/>
  <g id="_1642906281600">
   <circle class="fil0" cx="4046.26" cy="749.81" r="583.12"/>
   <path class="fil1" d="M2109.02 837.81c299.3,0 541.94,242.64 541.94,541.94 0,299.3 -242.64,541.94 -541.94,541.94 -299.3,0 -541.94,-242.64 -541.94,-541.94 0,-299.3 242.64,-541.94 541.94,-541.94z"/>
   <path class="fil2" d="M911.06 2526.76c276.56,0 500.77,224.2 500.77,500.77 0,276.57 -224.2,500.77 -500.77,500.77 -276.57,0 -500.77,-224.2 -500.77,-500.77 0,-276.56 224.2,-500.77 500.77,-500.77z"/>
   <path class="fil3" d="M911.06 4605.31c253.82,0 459.59,205.76 459.59,459.59 0,253.82 -205.77,459.59 -459.59,459.59 -253.82,0 -459.59,-205.77 -459.59,-459.59 0,-253.83 205.77,-459.59 459.59,-459.59z"/>
   <path class="fil4" d="M2109.03 6294.26c231.09,0 418.42,187.33 418.42,418.42 0,231.08 -187.33,418.42 -418.42,418.42 -231.08,0 -418.42,-187.34 -418.42,-418.42 0,-231.09 187.34,-418.42 418.42,-418.42z"/>
   <path class="fil5" d="M4046.26 6965.38c208.34,0 377.24,168.9 377.24,377.24 0,208.34 -168.9,377.24 -377.24,377.24 -208.34,0 -377.24,-168.9 -377.24,-377.24 0,-208.34 168.9,-377.24 377.24,-377.24z"/>
   <path class="fil6" d="M5983.49 6376.61c185.6,0 336.07,150.47 336.07,336.07 0,185.6 -150.46,336.07 -336.07,336.07 -185.6,0 -336.07,-150.46 -336.07,-336.07 0,-185.6 150.46,-336.07 336.07,-336.07z"/>
   <path class="fil7" d="M7181.46 4770.01c162.86,0 294.89,132.03 294.89,294.89 0,162.86 -132.03,294.89 -294.89,294.89 -162.86,0 -294.89,-132.03 -294.89,-294.89 0,-162.86 132.03,-294.89 294.89,-294.89z"/>
   <path class="fil8" d="M7181.46 2773.81c140.12,0 253.71,113.59 253.71,253.71 0,140.12 -113.59,253.71 -253.71,253.71 -140.12,0 -253.71,-113.59 -253.71,-253.71 0,-140.12 113.59,-253.71 253.71,-253.71z"/>
   <path class="fil9" d="M5983.49 1167.21c117.38,0 212.54,95.16 212.54,212.54 0,117.38 -95.16,212.54 -212.54,212.54 -117.38,0 -212.54,-95.16 -212.54,-212.54 0,-117.38 95.16,-212.54 212.54,-212.54z"/>
   <rect class="fil10" x="-0.02" y="0.01" width="8092.5" height="8092.5"/>
  </g>
 </g>
</svg>
