<?xml version="1.0" encoding="UTF-8"?>
<!DOCTYPE svg PUBLIC "-//W3C//DTD SVG 1.1//EN" "http://www.w3.org/Graphics/SVG/1.1/DTD/svg11.dtd">
<!-- Creator: CorelDRAW -->
<svg xmlns="http://www.w3.org/2000/svg" xml:space="preserve" width="10.6827mm" height="10.2402mm" version="1.1" style="shape-rendering:geometricPrecision; text-rendering:geometricPrecision; image-rendering:optimizeQuality; fill-rule:evenodd; clip-rule:evenodd"
viewBox="0 0 10158.45 9737.67"
 xmlns:xlink="http://www.w3.org/1999/xlink"
 xmlns:xodm="http://www.corel.com/coreldraw/odm/2003">
 <defs>
  <style type="text/css">
   <![CDATA[
    .fil0 {fill:black;fill-rule:nonzero}
   ]]>
  </style>
 </defs>
 <g id="Слой_x0020_1">
  <metadata id="CorelCorpID_0Corel-Layer"/>
  <path class="fil0" d="M3767.47 4405.35c247.72,-699.5 1036.41,-1059.9 1760.45,-803.53 724.03,256.27 1110.4,1032.71 862.77,1732.21 -247.62,699.5 -1036.51,1059.9 -1760.45,803.53 -724.03,-256.27 -1110.4,-1032.71 -862.77,-1732.21zm5390.7 -1263.02c-249.14,-14.74 -492.77,-79.78 -716.24,-190.85 -223.56,-111.16 -422.21,-266.26 -584.34,-456.06 -162.13,-189.8 -284.33,-410.32 -359.26,-648.44 -74.84,-238.21 -100.89,-488.97 -76.55,-737.25l54.77 -555.34c-494.67,-267.88 -1029,-454.92 -1582.72,-554.39l-280.9 431.91c-137.03,210.82 -315.61,391.59 -524.72,531.28 -209.11,139.69 -444.46,235.35 -691.8,281.28 -247.15,45.93 -501.23,41.08 -746.48,-14.17 -245.34,-55.34 -476.98,-159.95 -680.58,-307.43l-493.91 -358.88c-473.75,265.21 -902.14,605.55 -1265.87,1013.12l301.16 591.76c114.11,224.13 181.25,469.19 197.6,720.14 16.36,250.95 -18.45,502.75 -102.41,739.82 -83.87,237.16 -215.19,454.64 -385.79,639.4 -170.69,184.86 -377.04,333.01 -606.79,435.52l-613.54 273.87c25.48,541.17 140.26,1074.64 339.58,1578.44l661.18 39.27c249.24,14.83 492.86,79.69 716.43,190.95 223.47,111.35 422.21,266.45 584.44,456.35 162.04,189.8 284.14,410.51 358.97,648.63 74.74,238.3 100.8,489.16 76.36,737.63l-54.58 554.29c494.67,267.88 1029.09,455.11 1582.82,554.39l280.81 -431.91c137.12,-210.63 315.71,-391.31 524.91,-530.9 209.11,-139.5 444.46,-235.16 691.61,-281 247.24,-45.74 501.23,-40.89 746.48,14.45 245.24,55.25 476.7,159.95 680.29,307.53l493.34 357.64c474.89,-265.12 902.62,-607.17 1265.59,-1012.26l-300.4 -591.38c-114.11,-224.32 -181.44,-469.47 -197.79,-720.52 -16.45,-251.14 18.35,-502.94 102.41,-740.2 83.97,-237.16 215.29,-454.73 386.08,-639.69 170.69,-184.86 377.23,-332.92 607.07,-435.52l613.16 -272.92c-23.87,-543.74 -140.17,-1076.92 -338.34,-1579.01l-662.03 -39.56z"/>
 </g>
</svg>
