<?xml version="1.0" encoding="UTF-8"?>
<!DOCTYPE svg PUBLIC "-//W3C//DTD SVG 1.1//EN" "http://www.w3.org/Graphics/SVG/1.1/DTD/svg11.dtd">
<!-- Creator: CorelDRAW -->
<svg xmlns="http://www.w3.org/2000/svg" xml:space="preserve" width="20.747mm" height="20.7482mm" version="1.1" style="shape-rendering:geometricPrecision; text-rendering:geometricPrecision; image-rendering:optimizeQuality; fill-rule:evenodd; clip-rule:evenodd"
viewBox="0 0 1996.28 1996.4"
 xmlns:xlink="http://www.w3.org/1999/xlink"
 xmlns:xodm="http://www.corel.com/coreldraw/odm/2003">
 <defs>
  <style type="text/css">
   <![CDATA[
    .fil0 {fill:black;fill-rule:nonzero}
   ]]>
  </style>
 </defs>
 <g id="Слой_x0020_1">
  <metadata id="CorelCorpID_0Corel-Layer"/>
  <path class="fil0" d="M1447.86 0.01c-82.96,-0.02 -164.84,18.79 -239.49,55 -74.64,36.21 -140.09,88.88 -191.43,154.05 -51.33,65.17 -87.21,141.15 -104.95,222.19 -17.72,81.04 -16.83,165.06 2.62,245.71l-828.71 828.7c-27.03,26.48 -48.53,58.06 -63.27,92.91 -14.74,34.84 -22.43,72.27 -22.62,110.1 -0.19,37.83 7.12,75.33 21.51,110.33 14.39,35 35.58,66.79 62.33,93.55 26.76,26.75 58.55,47.94 93.55,62.33 35,14.38 72.49,21.7 110.33,21.51 37.84,-0.19 75.26,-7.88 110.1,-22.63 34.85,-14.74 66.43,-36.25 92.91,-63.27l410.31 -410.11c8.09,-118.1 48.52,-231.7 116.86,-328.35l-632.97 632.77c-25.65,25.65 -60.45,40.06 -96.72,40.06 -36.28,0 -71.07,-14.4 -96.72,-40.06 -25.65,-25.65 -40.06,-60.45 -40.06,-96.72 0,-36.28 14.4,-71.07 40.06,-96.72l859.91 -859.72c9.81,-9.83 16.68,-22.21 19.86,-35.74 3.17,-13.53 2.51,-27.67 -1.91,-40.84 -21.21,-63.34 -26.17,-130.98 -14.43,-196.74 11.74,-65.76 39.8,-127.5 81.61,-179.6 41.81,-52.08 96.04,-92.83 157.7,-118.5 61.66,-25.68 128.78,-35.46 195.21,-28.45l-183.88 183.87c-11.58,11.58 -20.75,25.32 -27.03,40.44 -6.26,15.13 -9.49,31.34 -9.49,47.71 0,16.38 3.22,32.58 9.49,47.71 6.27,15.13 15.45,28.87 27.03,40.44l178.79 178.79c23.37,23.34 55.06,36.47 88.1,36.47 33.03,0 64.72,-13.12 88.09,-36.47l183.96 -183.97c1.4,13.76 2.1,27.65 2.1,41.68 0.03,73.16 -20.07,144.91 -58.1,207.41 -38.02,62.5 -92.5,113.35 -157.47,146.96 63.75,8.25 125.91,25.92 184.46,52.45 56.9,-51.4 102.39,-114.17 133.52,-184.24 31.14,-70.08 47.23,-145.9 47.25,-222.58 0,-76.48 -15.66,-149.37 -44.08,-215.68 -4.8,-11.25 -12.29,-21.15 -21.8,-28.83 -9.51,-7.68 -20.76,-12.91 -32.77,-15.23 -12.01,-2.33 -24.4,-1.67 -36.09,1.91 -11.69,3.58 -22.32,9.98 -30.97,18.62l-258.05 258.16 -143.48 -143.59 258.15 -258.05c8.65,-8.64 15.05,-19.27 18.63,-30.96 3.59,-11.68 4.25,-24.07 1.94,-36.08 -2.32,-12 -7.53,-23.26 -15.2,-32.77 -7.68,-9.53 -17.56,-17.01 -28.8,-21.82 -68.24,-29.15 -141.68,-44.15 -215.88,-44.08z"/>
 </g>
</svg>
